<svg height='300px' width='300px'  fill="#000000" xmlns="http://www.w3.org/2000/svg" xmlns:xlink="http://www.w3.org/1999/xlink" version="1.1" x="0px" y="0px" viewBox="0 0 52 52" enable-background="new 0 0 52 52" xml:space="preserve"><g><g><path d="M26,50C12.7666016,50,2,39.2333984,2,26S12.7666016,2,26,2c3.7436523,0,7.4682617,0.8847656,10.7719727,2.5585938    l1.1767578,0.5957031l-0.8920898,0.9716797c-0.5732422,0.625-1.4770508,1.9208984-1.0917969,3.5898438    c0.6484375,2.8359375,4.2773438,9.5253906,5.9663086,12.546875c0.9277344-1.6552734,2.4394531-4.4130859,3.7207031-7.0322266    l0.8828125-1.8046875l0.9077148,1.7919922C49.1396484,18.5693359,50,22.1962891,50,26C50,39.2333984,39.2333984,50,26,50z M26,4    C13.8691406,4,4,13.8691406,4,26s9.8691406,22,22,22s22-9.8691406,22-22c0-2.7871094-0.5039063-5.4707031-1.4995117-8.0029297    c-1.809082,3.5185547-3.6831055,6.7568359-3.7050781,6.7949219l-0.8662109,1.4931641l-0.8647461-1.4941406    c-0.25-0.4326172-6.1362305-10.6367188-7.0488281-14.6279297c-0.3442383-1.4912109-0.0737305-2.9941406,0.7626953-4.3359375    C32.019043,4.6142578,29.0717773,4,26,4z"></path></g><g><path d="M7.5732422,36.7890625c-0.7724609,0-1.7006836-0.1435547-2.824707-0.4306641l0.4941406-1.9375    c2.2109375,0.5634766,2.9868164,0.3564453,3.2539063,0.1826172c0.3085938-0.2011719,0.4160156-0.734375,0.5566406-1.5878906    c0.15625-0.9462891,0.3505859-2.1240234,1.1621094-3.1367188c1.0893555-1.3613281,1.8901367-1.5644531,2.84375-1.4375    c0.2080078,0.0244141,0.4072266,0.0488281,1.1044922-0.9960938c0.9208984-1.3818359,0.8051758-1.7792969,0.574707-2.5732422    c-0.1943359-0.6679688-0.4599609-1.5839844-0.206543-3.0429688c0.4370117-2.5126953,1.6103516-3.2470703,2.387207-3.7324219    c0.2441406-0.1533203,0.4375-0.2744141,0.5258789-0.4003906c1.0219727-1.4648438,0.6621094-2.2519531,0.5439453-2.5107422    c-0.956543-2.0917969-6.0874023-3.3691406-9.0966797-3.6826172l0.206543-1.9902344    c0.9125977,0.0947266,8.9658203,1.0332031,10.7084961,4.8398438c0.4350586,0.9511719,0.6635742,2.5019531-0.722168,4.4882813    c-0.3217773,0.4609375-0.7382813,0.7216797-1.1054688,0.9511719c-0.6401367,0.4003906-1.1928711,0.7460938-1.4770508,2.3798828    c-0.1748047,1.0029297-0.0136719,1.5566406,0.15625,2.1425781c0.3549805,1.2207031,0.5029297,2.2392578-0.8310547,4.2402344    c-1.1582031,1.7382813-1.9838867,2.0039063-3.0214844,1.8701172c-0.2543945-0.0292969-0.421875-0.0537109-1.0302734,0.7041016    c-0.4838867,0.6044922-0.612793,1.3857422-0.7490234,2.2128906c-0.1733398,1.0488281-0.3691406,2.2392578-1.4360352,2.9365234    C9.0688477,36.6191406,8.4135742,36.7890625,7.5732422,36.7890625z"></path></g><g><path d="M28.0664063,43.3378906c-1.9550781,0-4.1630859-1.6816406-5.2817383-3.1103516    c-1.1000977-1.40625-1.362793-2.7744141-0.7211914-3.7529297c1.0678711-1.6289063,1.4897461-5.8671875,1.1220703-6.5742188    c-0.5664063-1.0429688-0.4614258-3.1503906,0.5976563-4.6220703c0.8647461-1.203125,2.1889648-1.7412109,3.7441406-1.5283203    c1.6162109-0.3125,4.734375,0.0322266,6.2578125,3.421875c0.4282227,0.9521484,0.7167969,1.7412109,0.9487305,2.375    c0.6811523,1.8603516,0.8037109,2.1962891,2.703125,2.7080078c1.1606445,0.3134766,1.909668,1.1474609,2.1083984,2.3476563    c0.4121094,2.4824219-1.7207031,6.2470703-3.2783203,7.2958984c-1.190918,0.8007813-2.7050781,0.8476563-4.1694336,0.8935547    c-1.0532227,0.0332031-2.1420898,0.0673828-3.0444336,0.3837891    C28.7363281,43.2871094,28.4052734,43.3378906,28.0664063,43.3378906z M26.8779297,25.7041016    c-0.6293945,0-1.1137695,0.2451172-1.4711914,0.7421875c-0.6352539,0.8828125-0.6337891,2.1865234-0.4633789,2.5009766    c0.8886719,1.6367188,0.0166016,6.7568359-1.2070313,8.6230469c-0.0595703,0.0917969-0.0229492,0.5986328,0.6235352,1.4248047    c1.1484375,1.4667969,3.1459961,2.5966797,4.03125,2.2939453c1.1938477-0.4189453,2.4394531-0.4580078,3.644043-0.4960938    c1.2353516-0.0380859,2.4023438-0.0751953,3.1152344-0.5546875c1.0385742-0.6992188,2.6889648-3.7001953,2.4223633-5.3085938    c-0.0708008-0.4267578-0.2548828-0.6347656-0.6567383-0.7431641C34.1391602,33.4375,33.6391602,32.375,32.855957,30.234375    c-0.2324219-0.6357422-0.4960938-1.3554688-0.8950195-2.2421875c-1.2749023-2.8369141-3.8769531-2.3222656-4.1699219-2.2529297    l-0.1987305,0.0458984l-0.2080078-0.0332031C27.2060547,25.7197266,27.0371094,25.7041016,26.8779297,25.7041016z"></path></g><g><path d="M41.9291992,26.2851563l-0.8647461-1.4941406c-0.25-0.4326172-6.1362305-10.6367188-7.0488281-14.6279297    c-0.4379883-1.8964844,0.1186523-3.8105469,1.5673828-5.3886719C37.1674805,3.0615234,39.5986328,2,41.9301758,2    c2.5253906,0,5.1489258,1.2431641,6.6831055,3.1660156c1.1938477,1.4970703,1.6347656,3.2714844,1.2416992,4.9970703    l-0.0004883,0.0009766c-0.2871094,1.2509766-1.0737305,3.1943359-2.4042969,5.9414063    c-2.0336914,4.1572266-4.6289063,8.6416016-4.6547852,8.6865234L41.9291992,26.2851563z M41.9301758,4    c-1.7924805,0-3.6606445,0.8164063-4.8764648,2.1298828c-0.5703125,0.6210938-1.4741211,1.9169922-1.0888672,3.5859375    c0.6484375,2.8359375,4.2773438,9.5253906,5.9663086,12.546875c0.9277344-1.6552734,2.4394531-4.4130859,3.7207031-7.0322266    c1.2451172-2.5712891,2.0039063-4.4277344,2.253418-5.5136719c0.3261719-1.4345703-0.2851563-2.5878906-0.8554688-3.3037109    C45.8803711,4.9472656,43.8706055,4,41.9301758,4z"></path></g><g><path d="M41.9335938,14.078125c-2.2055664,0-4-1.7939453-4-4s1.7944336-4,4-4s4,1.7939453,4,4    S44.1391602,14.078125,41.9335938,14.078125z M41.9335938,8.078125c-1.1030273,0-2,0.8974609-2,2s0.8969727,2,2,2s2-0.8974609,2-2    S43.0366211,8.078125,41.9335938,8.078125z"></path></g></g></svg>