<?xml version="1.0" encoding="UTF-8"?>
<svg width="382px" height="91px" viewBox="0 0 382 91" version="1.1" xmlns="http://www.w3.org/2000/svg" xmlns:xlink="http://www.w3.org/1999/xlink">
    <!-- Generator: Sketch 52.5 (67469) - http://www.bohemiancoding.com/sketch -->
    <title>bumpmap</title>
    <desc>Created with Sketch.</desc>
    <g id="bumpmap" stroke="none" stroke-width="1" fill="none" fill-rule="evenodd">
        <g id="Bumpmap" transform="translate(7.000000, 7.000000)" fill="#000000">
            <path d="M18.6922078,6.20454545 L7.68831169,6.20454545 L7.68831169,60.2727273 L18.6922078,60.2727273 L18.6922078,57.525 C21.4807795,59.9026175 25.1698186,61.1757291 28.9657143,61.0704545 C40.8537662,61.0704545 48.8015584,52.1093182 48.8015584,41.7388636 C48.8015584,31.3684091 40.8537662,22.425 28.9657143,22.425 C25.1848707,22.3353209 21.5097572,23.5814313 18.6922078,25.9084091 L18.6922078,6.20454545 Z M27.3415584,51.8256818 C23.8866211,51.9528204 20.6092788,50.4112516 18.6922078,47.7572727 L18.6922078,35.685 C20.641377,33.0717543 23.9048514,31.5601188 27.3415584,31.6786364 C33.3864935,31.6786364 37.4805195,36.27 37.4805195,41.7565909 C37.4805195,47.2431818 33.3864935,51.8256818 27.3607792,51.8256818 L27.3415584,51.8256818 Z" id="Shape" fill-rule="nonzero"></path>
            <path d="M89.5207792,23.2404545 L78.5168831,23.2404545 L78.5168831,47.6065909 C76.9235382,50.0863413 74.0934401,51.6690818 70.9727273,51.8256818 C65.7446753,51.8256818 63.418961,48.2802273 63.418961,43.0152273 L63.418961,23.2404545 L52.4150649,23.2404545 L52.4150649,44.7170455 C52.4150649,54.5645455 58.3638961,61.0881818 68.6374026,61.0881818 C72.3366353,61.0492825 75.8764139,59.6932135 78.5168831,57.3034091 L78.5168831,60.2727273 L89.5207792,60.2727273 L89.5207792,23.2404545 Z" id="Path" fill-rule="evenodd"></path>
            <path d="M141.272727,22.425 C135.256623,22.425 130.701299,24.6497727 128.183377,27.3088636 C125.420695,24.1667025 121.248142,22.3666752 116.862338,22.425 C113.171948,22.425 109.174026,23.9052273 107.069351,26.13 L107.069351,23.2404545 L96.1038961,23.2404545 L96.1038961,60.2727273 L107.107792,60.2727273 L107.107792,35.685 C108.636082,33.2545635 111.451882,31.7584995 114.498182,31.7584091 C119.553247,31.7584091 121.398442,35.6052273 121.398442,40.7195455 L121.398442,60.2727273 L132.402338,60.2727273 L132.402338,38.9379545 C132.417381,37.9926075 132.307657,37.0490838 132.075584,36.1281818 C133.553348,33.4624296 136.517757,31.7775613 139.763896,31.7584091 C144.818961,31.7584091 146.664156,35.6052273 146.664156,40.7195455 L146.664156,60.2727273 L157.668052,60.2727273 L157.668052,38.9379545 C157.668052,29.7552273 152.612987,22.425 141.282338,22.425 L141.272727,22.425 Z" id="Shape" fill-rule="nonzero"></path>
            <path d="M185.086494,22.425 C181.302841,22.3357473 177.624893,23.5816535 174.803377,25.9084091 L174.803377,23.2493182 L163.799481,23.2493182 L163.799481,74.6584091 L174.803377,74.6584091 L174.803377,57.525 C177.595447,59.9031507 181.287648,61.1761627 185.086494,61.0704545 C196.964935,61.0704545 204.912727,52.1093182 204.912727,41.7388636 C204.912727,31.3684091 197.012987,22.425 185.086494,22.425 Z M183.471948,51.8256818 C180.017427,51.9510714 176.740959,50.409914 174.822597,47.7572727 L174.822597,35.685 C176.774215,33.0743472 180.036034,31.5634787 183.471948,31.6786364 C189.497662,31.6786364 193.591688,36.27 193.591688,41.7565909 C193.591688,47.2431818 189.497662,51.8256818 183.471948,51.8256818 Z" id="Shape" fill-rule="nonzero"></path>
            <path d="M254.223636,22.425 C248.197922,22.425 243.652208,24.6497727 241.134286,27.3088636 C238.371604,24.1667025 234.199051,22.3666752 229.813247,22.425 C226.122857,22.425 222.124935,23.9052273 220.02026,26.13 L220.02026,23.2404545 L209.016364,23.2404545 L209.016364,60.2727273 L220.02026,60.2727273 L220.02026,35.685 C221.543938,33.2546315 224.357114,31.7580155 227.401039,31.7584091 C232.465714,31.7584091 234.310909,35.6052273 234.310909,40.7195455 L234.310909,60.2727273 L245.314805,60.2727273 L245.314805,38.9379545 C245.324997,37.9928191 245.215335,37.0498259 244.988052,36.1281818 C246.457437,33.4553058 249.427092,31.7674556 252.676364,31.7584091 C257.741039,31.7584091 259.586234,35.6052273 259.586234,40.7195455 L259.586234,60.2727273 L270.59013,60.2727273 L270.59013,38.9379545 C270.59013,29.7552273 265.525455,22.425 254.204416,22.425 L254.223636,22.425 Z" id="Shape" fill-rule="nonzero"></path>
            <path d="M293.972208,22.425 C282.093766,22.425 274.145974,31.3861364 274.145974,41.7565909 C274.145974,52.1270455 282.093766,61.0881818 293.972208,61.0881818 C297.772768,61.2035011 301.468796,59.9291698 304.255325,57.5427273 L304.255325,60.2727273 L315.220779,60.2727273 L315.220779,23.2404545 L304.255325,23.2404545 L304.255325,25.8995455 C301.442061,23.5601435 297.758444,22.3123169 293.972208,22.4161364 L293.972208,22.425 Z M295.586753,51.8256818 C289.637922,51.8256818 285.543896,47.2343182 285.543896,41.7565909 C285.543896,36.2788636 289.637922,31.6786364 295.586753,31.6786364 C299.022668,31.5634787 302.284486,33.0743472 304.236104,35.685 L304.236104,47.7572727 C302.317742,50.409914 299.041274,51.9510714 295.586753,51.8256818 Z" id="Shape" fill-rule="nonzero"></path>
            <path d="M343.090909,22.425 C339.307257,22.3357473 335.629309,23.5816535 332.807792,25.9084091 L332.807792,23.2493182 L321.842338,23.2493182 L321.842338,74.6584091 L332.846234,74.6584091 L332.846234,57.525 C335.638304,59.9031507 339.330506,61.1761627 343.129351,61.0704545 C355.007792,61.0704545 362.955584,52.1093182 362.955584,41.7388636 C362.955584,31.3684091 355.007792,22.425 343.090909,22.425 Z M341.476364,51.8256818 C338.021842,51.9510714 334.745375,50.409914 332.827013,47.7572727 L332.827013,35.685 C334.778631,33.0743472 338.040449,31.5634787 341.476364,31.6786364 C347.502078,31.6786364 351.596104,36.27 351.596104,41.7565909 C351.596104,47.2431818 347.502078,51.8256818 341.476364,51.8256818 Z" id="Shape" fill-rule="nonzero"></path>
        </g>
    </g>
</svg>