<?xml version="1.0" encoding="UTF-8"?>
<svg width="277px" height="277px" viewBox="0 0 277 277" version="1.1" xmlns="http://www.w3.org/2000/svg" xmlns:xlink="http://www.w3.org/1999/xlink">
    <!-- Generator: Sketch 52.5 (67469) - http://www.bohemiancoding.com/sketch -->
    <title>emblem-dark</title>
    <desc>Created with Sketch.</desc>
    <defs>
        <linearGradient x1="0%" y1="0%" x2="68.5125385%" y2="90.1656746%" id="linearGradient-1">
            <stop stop-color="#5EFCE8" offset="0%"></stop>
            <stop stop-color="#736EFE" offset="100%"></stop>
        </linearGradient>
        <linearGradient x1="-1%" y1="0%" x2="100%" y2="100%" id="linearGradient-2">
            <stop stop-color="#F0FF00" offset="0%"></stop>
            <stop stop-color="#58CFFB" offset="100%"></stop>
        </linearGradient>
        <linearGradient x1="39.0054424%" y1="105.978895%" x2="65.2036517%" y2="30.7952425%" id="linearGradient-3">
            <stop stop-color="#E80505" offset="0%"></stop>
            <stop stop-color="#FDD819" offset="100%"></stop>
        </linearGradient>
    </defs>
    <g id="emblem-dark" stroke="none" stroke-width="1" fill="none" fill-rule="evenodd">
        <g id="BumpmapEmblem" transform="translate(14.000000, 14.000000)">
            <g id="Group" transform="translate(0.000000, 6.300000)">
                <g id="continents" transform="translate(8.100000, 0.900000)">
                    <path d="M108.524534,63.8026186 C80.1448062,68.4897409 58.5,93.1421628 58.5,122.85 C58.5,155.904242 85.2957577,182.7 118.35,182.7 C133.675294,182.7 147.655247,176.93991 158.243001,167.466588 L146.987448,147.156218 C133.873985,123.493293 124.498426,105.174124 118.611829,91.4977356 C114.803877,82.6506849 111.44477,73.4171322 108.524535,63.802621 Z" id="Combined-Shape" stroke="url(#linearGradient-1)" stroke-width="117"></path>
                    <path d="M87.9756434,193.381696 C88.5988701,192.628341 89.1354644,192.314197 89.6226485,192.314197 C89.9609433,192.314197 90.2751919,192.465196 90.579229,192.724849 C90.2751919,192.465196 89.9606139,192.314525 89.6226485,192.314525 C89.135135,192.314525 88.5988701,192.628341 87.9756434,193.381696 C87.9697142,193.38859 87.963785,193.39614 87.9578558,193.403361 C87.963785,193.39614 87.9697142,193.38859 87.9756434,193.381696 M27.7212806,157.5 C27.50717,157.5 27.3424695,157.664786 27.2650602,158.141747 C26.8029106,160.993664 24.4236471,163.437883 25.4579663,166.571118 C27.1836982,168.392957 27.1580049,170.668122 26.7521828,172.843168 C26.3480078,175.012306 25.2949128,177.102661 26.9985748,179.151655 C28.6129692,183.566086 31.2267662,187.225849 35.1729904,189.876872 C37.7910696,194.581156 41.6737194,197.986518 46.3993063,200.425813 C48.9979509,201.76708 50.8340321,203.649647 52.3588294,206.1477 C56.2210563,212.475227 60.8850453,218.218452 66.0335831,223.564154 C68.2824038,224.884741 70.7209595,225.965699 72.1235491,228.354442 C74.9636446,229.633669 77.296792,232.2 80.6405417,232.2 C80.9916831,232.2 81.3543537,232.171441 81.7298708,232.110057 C76.657754,225.88068 76.657754,225.88068 80.2693067,222.019038 C80.955449,216.793478 79.2946091,210.558849 87.8465182,209.494632 C90.6012989,209.151601 90.2824387,204.892765 89.8861693,202.044459 C87.8863758,198.778936 91.5028695,197.373001 92.2318339,195.010519 C92.2315045,195.009862 92.2311751,195.009206 92.2308457,195.008549 C92.2552214,195.010847 92.2792677,195.011832 92.3023257,195.011832 C92.5312594,195.011832 92.6962894,194.90088 92.7954391,194.676679 C93.5731549,194.521741 93.945378,194.061521 93.86731,193.26221 C95.3601554,190.668961 94.0283871,189.499373 91.7782487,188.212269 C86.1115631,184.971036 79.7560999,183.548032 73.5883954,182.49235 C69.1645397,181.735384 67.4177262,179.771737 66.1380032,176.26166 C56.1360709,170.61199 46.9415004,163.380109 35.4243233,160.701185 C33.7519544,159.191848 31.6981391,158.619036 29.5316686,158.319335 C29.5151985,158.320977 29.4987285,158.321633 29.481929,158.321633 C28.9259001,158.321633 28.1995709,157.5 27.7212806,157.5" id="Fill-4" fill="url(#linearGradient-2)"></path>
                    <path d="M207.9,55.8 C208.070459,56.6461856 208.440038,57.3784615 209.7,57.6 C209.100377,57.0001903 208.5,56.4000952 207.9,55.8" id="Fill-6" fill="url(#linearGradient-2)"></path>
                    <path d="M211.5,178.2 C206.004927,181.453445 204.334368,187.378939 201.6,192.6 C206.098606,188.682684 208.889648,183.5441 211.5,178.2 Z" id="Fill-8" fill="url(#linearGradient-2)"></path>
                    <path d="M138.355103,59.4 C138.013634,59.4 137.699245,59.6363769 137.490533,60.3517629 C137.038103,61.9023692 136.442019,62.397839 135.778566,62.397839 C134.834408,62.397839 133.753861,61.3947185 132.755543,61.0013056 C133.234392,63.1023608 131.135053,63.9007091 130.5,65.4388053 C132.450071,65.7620952 130.312423,69.0921129 132.311039,69.0921129 C132.492011,69.0921129 132.706668,69.0651172 132.961613,69.0058584 C134.565262,68.6328569 137.383865,68.6061904 136.686067,65.4727145 C136.283173,63.6616984 136.835006,62.8031036 138.15828,62.8031036 C138.477292,62.8031036 138.841547,62.8531444 139.247743,62.9519092 C141.703082,63.5474605 140.806809,64.7698388 140.143686,66.4567405 C139.442585,68.2404316 139.383472,70.4860125 142.181271,71.1 C144.312643,69.4285714 148.011999,71.3699569 149.4,67.986277 C146.980657,64.3217761 142.988709,62.5690312 139.628841,60.054481 C139.271521,59.7868286 138.791351,59.4 138.355103,59.4" id="Fill-10" fill="url(#linearGradient-2)"></path>
                    <path d="M206.077254,109.140559 C208.260373,112.462598 210.175777,115.276576 210.911709,118.675721 C210.911047,118.676711 210.910385,118.678361 210.909392,118.679682 C212.648828,123.237117 213.26814,128.340097 217.295819,132.497202 C219.068687,125.784317 214.350198,121.303779 213.621985,115.896838 C211.136462,113.848318 211.559488,108.599463 206.405065,108.599463 C206.396354,108.599463 206.387627,108.599478 206.378883,108.599508 C210.340195,101.490133 213.928734,94.9027454 217.144499,88.8373451 C217.307493,88.8779298 217.478306,88.8994225 217.654961,88.8994225 C217.764855,88.8994225 217.877397,88.8911717 217.991263,88.8740099 C219.21797,88.6882009 219.143494,87.3934788 218.891598,86.4509026 C218.837695,86.2491753 218.780391,86.0491981 218.719888,85.850867 C219.794171,83.8036536 220.823445,81.8194668 221.807708,79.8983069 C225.319724,88.2267535 227.610397,97.0151305 228.6,106.293187 C227.987308,106.519591 227.439824,106.620251 226.943316,106.620251 C224.963239,106.620251 223.789823,105.016617 222.485329,103.37701 C221.672048,102.354566 220.94549,101.824531 220.371195,101.824531 C219.633052,101.824531 219.146473,102.700771 219.049488,104.535098 C221.50489,105.598797 221.894483,108.290221 223.337338,110.144351 C223.822593,110.767784 224.218476,110.976035 224.574638,110.976035 C225.160518,110.976035 225.639484,110.414318 226.230991,110.208047 C230.381142,119.329188 225.181372,126.461216 220.800178,133.502484 C219.347724,135.836812 219.826028,136.540444 221.532694,137.692592 C221.65318,137.726255 221.781279,137.738136 221.91302,137.738136 C222.210263,137.738136 222.527367,137.67807 222.82461,137.67807 C223.264186,137.67807 223.660731,137.809424 223.887801,138.45893 C223.157271,138.621307 222.427072,138.783683 221.696542,138.94606 C221.374473,140.374445 222.300628,141.40283 222.858373,142.549367 C220.500949,149.33717 216.529541,155.233882 212.3731,160.988349 C210.167277,164.041821 208.496691,167.36592 208.264325,170.983089 C207.837658,177.618746 203.550801,181.77057 199.728677,186.467609 C193.76031,193.800627 187.940896,201.196352 179.805766,206.347848 C178.631026,207.091414 177.719767,208.074584 176.240833,208.515839 C173.796023,209.245544 172.148276,209.7 171.055957,209.7 C168.973268,209.7 168.910046,208.047521 169.193056,203.497677 C168.811737,195.761028 172.089026,188.382795 171.480638,180.59334 C171.417746,179.791688 172.859939,178.873534 173.603709,178.009176 C175.925715,174.752404 173.393851,171.477809 173.639789,168.213446 L173.639789,168.213116 C169.893465,166.657668 168.847486,164.270204 170.502846,160.341813 C171.61966,157.690983 171.81065,154.706158 167.421844,154.592296 C167.402645,154.43388 167.377489,154.287345 167.347037,154.150381 C167.377489,154.287345 167.402645,154.43388 167.421844,154.592296 C166.819413,154.689326 166.212017,154.794937 165.661224,154.794937 C164.558643,154.794937 163.683133,154.370184 163.531201,152.595593 C162.562678,152.546088 161.646454,152.401863 161.242627,151.317042 C160.478996,151.321003 159.715366,151.324633 158.951404,151.328923 C156.58074,155.037842 152.535849,154.258962 149.057308,154.997908 C148.477055,154.888667 147.904415,154.842462 147.337402,154.842462 C144.173317,154.842462 141.184996,156.287679 138.026869,156.338175 C137.509838,156.026293 136.991814,155.714741 136.474121,155.403189 C136.474121,155.403189 136.044475,155.199558 136.034876,155.199558 C136.034876,155.199558 136.034876,155.199888 136.034545,155.199888 C135.008758,153.780744 133.437473,153.288993 131.877443,152.778761 C131.635477,152.435856 131.304472,152.253348 130.884425,152.230575 C130.113512,150.964236 128.23704,150.533542 128.205595,148.708456 C127.440971,148.26291 126.676017,147.817035 125.911393,147.37182 C125.431766,145.355974 124.056767,144.450361 122.076028,144.296896 C118.180421,139.225268 123.364965,134.211397 122.173675,129.156271 C120.509709,127.437455 120.524935,125.727551 121.81983,123.704444 C124.542022,119.45295 126.985838,114.967133 131.232974,111.993529 C135.176578,109.233128 134.995518,103.512324 139.341294,101.113639 C140.683522,100.24103 141.163812,99.4001041 139.25126,98.6463071 C138.443937,98.2535671 137.636944,97.861157 136.829621,97.468747 C132.31106,93.3377154 134.295109,88.8172441 136.035538,84.3129444 C136.589642,85.2631114 137.174198,85.573013 137.774974,85.573013 C138.900725,85.573013 140.08043,84.4832418 141.206843,84.4832418 C141.402798,84.4832418 141.596436,84.5162452 141.788751,84.593143 C142.616265,84.5769714 143.444111,84.5604697 144.270964,84.5446281 C144.738675,84.5743311 145.322238,85.0693816 145.782998,85.0693816 C146.107384,85.0693816 146.370865,84.8235066 146.489696,83.9961121 C147.591945,80.5040258 146.35928,78.1300935 143.019431,76.743952 C141.880439,76.2713438 139.572998,76.3456014 141.733473,74.1993924 C142.093276,74.2399865 142.441163,74.2594585 142.777796,74.2594585 C146.626732,74.2594585 148.997065,71.7000473 151.16085,68.7835397 C151.200571,68.7908004 151.238637,68.7944308 151.275047,68.7944308 C151.460411,68.7944308 151.595461,68.6990511 151.678875,68.5073015 C155.643332,65.4904636 159.386015,62.6389727 164.858204,62.6389727 C165.245811,62.6389727 165.642687,62.6534941 166.04817,62.6831972 C166.473512,62.7142203 166.940892,62.7366626 167.43045,62.7366626 C167.63199,62.7366626 167.837214,62.7328507 168.044674,62.7242546 C168.439339,63.7511715 168.840803,64.7703572 169.249067,65.7818116 C167.940811,68.3940313 168.912552,72.278335 168.676356,75.479263 C168.617106,76.2802547 168.682976,77.0901574 168.690258,77.8957696 C170.793158,77.979756 173.039449,77.7870323 174.867012,78.4014814 C175.516778,79.7489009 176.205055,81.1503307 176.93184,82.6057637 C175.698254,82.2539866 174.61446,81.6235878 173.789072,80.4657418 C173.348835,79.8482488 172.781822,79.6195355 172.231359,79.6195355 C171.597483,79.6195355 170.985122,79.9231665 170.612409,80.2858735 C169.323803,81.5409916 171.170154,82.1370324 171.687185,83.0367042 C173.262254,85.7773211 176.752272,85.4685465 179.122297,86.9289051 C179.525152,87.7134043 179.937762,88.5115831 180.360126,89.3234415 C180.120983,89.5900319 179.881887,89.8565039 179.642911,90.1228573 C179.192081,90.4895248 178.739927,90.8568522 178.288435,91.2241797 C177.534404,90.5162575 176.780041,89.8086653 176.025348,89.100413 C173.543797,86.4578333 168.840866,86.8832467 167.358953,82.8607963 C166.920039,82.573667 166.481787,82.2865377 166.043535,81.9990783 C165.292814,81.8551836 164.542424,81.7109589 163.792696,81.5667342 C162.417366,82.4165709 161.574957,84.2881919 159.757072,84.2881919 C159.471745,84.2881919 159.162586,84.2423172 158.823636,84.1390167 C157.664784,84.2390169 156.506264,84.3386871 155.348074,84.4386873 L155.348074,84.4390173 C152.935042,88.3885304 150.522009,92.3380434 148.108977,96.2875564 C147.844503,97.4469648 148.070249,98.4466368 149.062935,99.1961433 C148.92292,99.7195767 148.704456,100.176013 148.418136,100.495486 C148.704456,100.176013 148.92292,99.7195767 149.062935,99.1961433 C149.90038,99.1271662 150.738156,99.0581892 151.575601,98.9892121 C151.942686,98.8133042 152.310103,98.6377263 152.677188,98.4618183 C153.626182,97.5073609 154.728432,97.2581855 155.884635,97.2581855 C156.464557,97.2581855 157.058051,97.3208919 157.652868,97.3888788 C159.286713,97.0538946 160.920227,96.7189105 162.554403,96.3839263 C162.042999,97.6604965 161.46738,98.6241949 160.770943,99.0053838 C161.46738,98.6241949 162.042999,97.6604965 162.554734,96.3839263 C164.009505,96.3119789 165.621503,95.6862351 167.056082,95.6862351 C168.463188,95.6862351 169.700488,96.2885465 170.45154,98.6063731 C169.474411,101.525851 170.256247,103.394502 173.550086,103.762159 C174.368995,103.38163 175.114089,103.222554 175.806884,103.222884 C178.752174,103.223214 180.74185,106.098138 183.382946,107.014311 C184.36173,107.78494 185.340183,108.555568 186.348758,109.350289 C186.415953,109.403095 186.483478,109.45623 186.550672,109.509366 C186.483478,109.45623 186.415953,109.403095 186.348758,109.350289 C185.340183,108.555568 184.36173,107.78494 183.382946,107.013981 C183.750693,107.096489 184.086333,107.135103 184.394169,107.135103 C186.435245,107.135103 187.266213,105.448854 188.132893,103.812515 C191.275604,109.524918 194.763027,115.720747 198.59516,122.4 C201.220547,117.796253 203.714578,113.376439 206.077254,109.140559 Z M167.311288,154.023978 C167.288779,153.936849 167.266602,153.8484 167.239129,153.770182 C167.266602,153.8484 167.288448,153.936849 167.311288,154.023978 Z M167.183189,153.638499 C167.156046,153.573812 167.13089,153.506156 167.100437,153.44774 C167.13089,153.506156 167.156046,153.573812 167.183189,153.638499 Z M167.028609,153.330248 C166.997494,153.278432 166.968035,153.223977 166.93361,153.177772 C166.967704,153.223977 166.997494,153.278432 167.028609,153.330248 Z M166.846556,153.076782 C166.811469,153.036188 166.778037,152.992953 166.740634,152.956979 C166.778037,152.992953 166.811469,153.036188 166.846556,153.076782 Z M166.639015,152.872821 C166.600949,152.841468 166.564208,152.807474 166.524156,152.780081 C166.564208,152.807474 166.600949,152.841468 166.639015,152.872821 Z M166.409297,152.713415 C166.368252,152.689982 166.328532,152.66424 166.285832,152.643778 C166.328532,152.66424 166.368252,152.689982 166.409297,152.713415 Z M166.159057,152.593282 C166.115695,152.576121 166.073326,152.557639 166.02864,152.543447 C166.073326,152.557639 166.115695,152.576121 166.159057,152.593282 Z M165.888956,152.507144 C165.84427,152.495922 165.800908,152.483051 165.754898,152.47447 C165.800908,152.483051 165.84427,152.495922 165.888956,152.507144 Z M164.23194,152.449388 C164.24485,152.448398 164.257759,152.447737 164.270337,152.446417 C164.257759,152.447737 164.24485,152.448398 164.23194,152.449388 Z M165.601643,152.451038 C165.556626,152.444767 165.512271,152.436846 165.466592,152.432556 C165.512271,152.436846 165.556626,152.444767 165.601643,152.451038 Z M164.543417,152.426615 C164.576849,152.424305 164.61028,152.423315 164.643381,152.421995 C164.61028,152.423315 164.576849,152.424305 164.543417,152.426615 Z M165.299765,152.421335 C165.255411,152.418695 165.211387,152.414734 165.166701,152.413414 C165.211387,152.414734 165.255411,152.418695 165.299765,152.421335 Z M164.911164,152.412424 L164.907523,152.412424 L164.890973,152.412424 C164.88005,152.412424 164.868796,152.412754 164.857542,152.413084 C164.868796,152.412754 164.88005,152.412424 164.890973,152.412424 L164.907523,152.412424 L164.911164,152.412424 L164.966111,152.412424 L164.981007,152.412424 L164.966111,152.412424 L164.911164,152.412424 Z M154.04027,101.838723 C154.010811,101.841363 153.981351,101.843673 153.953878,101.844003 L153.944941,101.844003 L153.934017,101.844003 L153.944941,101.844003 L153.953878,101.844003 C153.981351,101.843673 154.010811,101.841363 154.04027,101.838723 C154.057814,101.837403 154.075688,101.835753 154.093231,101.834102 C154.075688,101.835753 154.057814,101.837403 154.04027,101.838723 Z M153.849611,101.834432 C153.809559,101.830472 153.767522,101.829152 153.731111,101.821231 C153.767522,101.829152 153.809559,101.830472 153.849611,101.834432 Z M154.168701,101.829482 C154.22762,101.821231 154.293159,101.80539 154.357705,101.790208 C154.293159,101.80539 154.22762,101.821231 154.168701,101.829482 Z M153.558988,101.765455 C153.587785,101.777997 153.620886,101.785588 153.651669,101.795489 C153.620886,101.785588 153.587785,101.777997 153.558988,101.765455 C153.557995,101.765125 153.557002,101.764795 153.556009,101.764135 C153.557002,101.764795 153.557995,101.765125 153.558988,101.765455 Z M153.488815,101.724861 C153.461672,101.70902 153.432213,101.695488 153.407387,101.676676 C153.432213,101.695488 153.461672,101.70902 153.488815,101.724861 Z M154.436815,101.774036 C154.532807,101.748294 154.634095,101.71562 154.742334,101.674696 C154.634095,101.71562 154.532807,101.748294 154.436815,101.774036 Z M153.355419,101.629152 C153.330594,101.607039 153.304444,101.586577 153.281936,101.561825 C153.304444,101.586577 153.330594,101.607039 153.355419,101.629152 Z M153.240229,101.507039 C153.218714,101.479316 153.196205,101.453244 153.177007,101.42288 C153.195874,101.453244 153.218714,101.479316 153.240229,101.507039 Z M153.14192,101.359844 C153.124377,101.328161 153.10551,101.297468 153.089291,101.263474 C153.10551,101.297468 153.124377,101.328161 153.14192,101.359844 Z M153.062479,101.197798 C153.046922,101.160834 153.030703,101.12519 153.0168,101.086576 C153.030703,101.12519 153.046922,101.160834 153.062479,101.197798 Z M152.996278,101.020899 C152.983038,100.979315 152.969135,100.938721 152.956888,100.895817 C152.968804,100.938721 152.983038,100.979315 152.996278,101.020899 Z M152.942655,100.838391 C152.930077,100.790866 152.91783,100.743341 152.906244,100.694166 C152.917499,100.743341 152.930077,100.790866 152.942655,100.838391 Z M152.896314,100.646641 C152.884729,100.593176 152.873475,100.53971 152.862883,100.485255 C152.873475,100.53971 152.884729,100.593176 152.896314,100.646641 Z M152.849311,100.413307 C152.85229,100.431129 152.855931,100.448951 152.859241,100.467103 C152.855931,100.448951 152.85229,100.431129 152.849311,100.413307 C152.829782,100.311327 152.811577,100.208357 152.793371,100.106376 C152.811577,100.208357 152.829782,100.310997 152.849311,100.413307 Z M152.785427,100.062152 C152.780131,100.032449 152.774173,100.003406 152.768877,99.9737026 C152.774173,100.003406 152.780131,100.032449 152.785427,100.062152 Z M155.469885,100.372713 C154.561936,100.199116 153.653987,100.025848 152.746037,99.8525802 C153.653987,100.025848 154.561936,100.199116 155.469885,100.372713 Z M160.277745,99.1720508 C160.221143,99.1796416 160.16421,99.1849221 160.105953,99.1852521 L160.100325,99.1852521 L160.099001,99.1852521 L160.100325,99.1852521 L160.105953,99.1852521 C160.16421,99.1849221 160.221143,99.1796416 160.277745,99.1720508 C160.280062,99.1717208 160.282048,99.1713907 160.284365,99.1710607 C160.282048,99.1713907 160.280062,99.1717208 160.277745,99.1720508 Z M160.515407,99.1169352 C160.551817,99.105054 160.587897,99.0911925 160.623977,99.076341 C160.587897,99.0911925 160.551817,99.105054 160.515407,99.1169352 Z M156.993174,82.79908 L156.992181,82.79908 C156.986553,82.79908 156.980595,82.79908 156.974637,82.79908 C156.968679,82.79941 156.962721,82.79941 156.956763,82.79974 C156.962721,82.79941 156.968679,82.79941 156.974637,82.79908 C156.980595,82.79908 156.986553,82.79908 156.992181,82.79908 L156.993174,82.79908 L157.002773,82.79908 C157.18284,82.8007301 157.366879,82.8495751 157.554559,82.9426446 C157.579716,82.9545258 157.60421,82.9673971 157.629036,82.9812586 C157.60421,82.9673971 157.579716,82.9545258 157.554559,82.9426446 C157.366879,82.8495751 157.18284,82.8007301 157.002773,82.79908 L156.993174,82.79908 Z" id="Combined-Shape" fill="url(#linearGradient-2)"></path>
                    <path d="M175.438328,92.7 C174.858705,93.1195879 174.279353,93.5391757 173.7,93.9583647 C173.736986,93.9412143 173.777481,93.9336362 173.820406,93.9336362 C174.190263,93.9336362 174.748018,94.5 175.117875,94.5 C175.42348,94.5 175.601119,94.1131177 175.438328,92.7" id="Fill-14" fill="url(#linearGradient-2)"></path>
                    <path d="M174.0078,93.6 C173.8971,93.6342 173.7936,93.6801 173.7,93.7503 C173.8026,93.6999 173.9052,93.6504 174.0078,93.6 Z" id="Fill-16" fill="url(#linearGradient-2)"></path>
                    <path d="M66.0204,80.1 L66.0195,80.1009 C65.9223,80.118 65.8242,80.1333 65.7261,80.1504 C65.7171,80.2287 65.7081,80.307 65.7,80.3844 C65.7927,80.3484 65.8773,80.3115 65.9628,80.2746 C65.9808,80.217 66.0033,80.1594 66.0195,80.1009 L66.0204,80.1009 L66.0204,80.1 Z" id="Fill-18" fill="url(#linearGradient-2)"></path>
                    <path d="M60.3136946,30.6 C60.0421595,30.6 59.7472738,30.6550887 59.4230329,30.7813335 L59.5040931,31.2410615 C59.3206235,31.1695774 59.156168,31.1354749 59.0093922,31.1354749 C58.5777382,31.1354749 58.2961957,31.4286252 58.1190641,31.9260627 C57.7474547,32.0260748 57.3711752,32.1047729 56.9905591,32.1621569 C56.9905591,32.1621569 56.9084981,32.2667598 56.9084981,32.2667598 C56.0418542,33.885317 55.1748768,35.50453 54.3082329,37.1240709 C54.9693908,37.8631771 55.9501194,37.9641729 56.9515301,37.9641729 C57.3264753,37.9641729 57.7047563,37.9500729 58.0700277,37.9500729 C59.3312981,37.9500729 60.4404554,38.11829 60.7526874,39.6181443 C61.3020956,42.2548579 58.7188431,44.4744717 57.4635771,46.8318071 C56.4311435,48.7704032 53.8328798,48.1923002 52.2,49.3012873 C54.0186845,50.6952271 58.0440084,49.8085621 57.189707,53.9654603 C58.605759,54.5852077 59.8363399,54.9 60.8714423,54.9 C63.7409074,54.9 65.111926,52.4826573 64.7883523,47.4338475 C66.011928,48.4280666 67.2842065,49.2921059 68.4644167,49.2921059 C69.1922908,49.2921059 69.8848053,48.9632135 70.5092692,48.1329487 C72.1241356,45.9858028 70.0669406,45.0283094 68.6518893,43.9012873 C68.2605986,43.5897741 67.8769803,42.61359 68.0694566,42.347984 C70.9909604,38.3143794 67.3432504,36.0550887 65.6253074,33.2796697 C65.381126,33.3550887 65.1542908,33.3888632 64.9417996,33.3888632 C63.0113654,33.3888632 62.2441288,30.6 60.3136946,30.6 Z" id="Fill-20" fill="url(#linearGradient-2)"></path>
                    <path d="M41.7402229,94.8380515 C41.7474292,94.7317984 41.754963,94.6255453 41.7647897,94.5209319 C41.754963,94.6255453 41.7474292,94.7317984 41.7402229,94.8380515 M45.5641202,34.2 C40.4889562,36.5234666 35.9359177,39.5513519 32.4169757,43.9736451 C32.0065471,44.1300733 31.8050997,44.4281722 31.8132887,44.867942 C30.5233703,45.2919706 29.6779463,46.1544571 29.2730862,47.4508105 C22.1932751,53.9460229 17.5714496,62.2701658 13.0033434,70.4762499 C9.6167344,76.5595675 6.03391889,82.7904589 5.34932533,90.0337063 C3.53007525,94.3389243 2.34235454,98.8084411 1.85855325,103.461277 C1.81105753,104.237843 1.7635618,105.014081 1.71639363,105.790647 C1.67151836,106.970909 1.62697065,108.151171 1.58209537,109.331433 C-1.62468501,116.610426 0.922068563,123.881548 1.61124792,131.155294 C4.75775787,138.025344 10.402543,142.668342 15.9827995,147.382831 C16.7610742,148.040354 17.4050508,149.4 18.3009184,149.4 C18.6589379,149.4 19.0572469,149.183231 19.5204121,148.617859 C20.4667235,147.463505 20.3524062,144.69043 18.9082086,144.28739 C13.45963,142.768036 15.0348503,138.869466 15.4426584,135.367705 C15.5579584,134.378305 16.193746,133.333155 15.0410739,132.776966 C14.7082762,132.616602 14.4203539,132.544127 14.1664974,132.544127 C13.356122,132.543799 12.8932844,133.285275 12.429464,134.277954 C11.6249847,135.999976 10.8837238,136.660123 10.2269726,136.660123 C9.26428336,136.660123 8.48338812,135.240791 7.95078088,133.670279 C5.88160501,127.568924 5.40599264,121.467898 9.22399389,115.731542 C15.4750865,116.032265 22.5565355,115.085825 22.6230295,124.674839 C23.714121,124.473155 23.3957358,123.470637 23.6793999,122.810163 C23.5408434,119.058182 22.8496987,115.173058 26.2140339,112.264871 L25.8265343,111.838547 C25.8265343,111.838547 25.8265343,111.838547 25.8265343,111.838547 C25.8265343,111.838547 26.2130512,112.263887 26.2130512,112.263887 C27.0047559,111.77755 27.7971156,111.292852 28.5894753,110.807826 C27.6929526,110.760931 26.7957747,110.714035 25.8992519,110.667467 C26.9690522,108.594876 26.7695701,107.352961 25.7037005,106.803331 C26.7695701,107.352961 26.9690522,108.594876 25.8992519,110.667467 C26.7957747,110.714035 27.6929526,110.760931 28.5894753,110.807826 C30.5076475,110.09193 32.3409825,108.975616 32.0022889,106.734463 C31.5541913,103.772494 34.0796537,103.519651 35.4337732,102.180993 C34.5198899,97.1421695 41.4283889,99.0947341 41.7189317,95.1322151 C41.7189317,95.1318872 41.7189317,95.1318872 41.7189317,95.1318872 C42.2813466,94.4353391 42.8440891,93.7394469 43.406504,93.0432268 L43.7039255,93.0783166 C43.703598,93.0763489 43.7032704,93.0750371 43.7029428,93.0730695 C43.7258718,93.0563445 44.0436018,92.8867986 44.0436018,92.8867986 C44.8618386,92.626413 45.6800753,92.3660273 46.498312,92.1056416 C47.4515021,91.8354177 48.3899521,91.4786172 49.3608302,91.3153022 C50.7952012,91.0745931 53.2128974,91.7858985 52.5404234,89.2217227 C52.0674315,87.4186995 54.0992659,84.195361 50.1852905,83.8651237 C49.1230241,82.6812544 49.3408493,81.5272277 50.2668522,80.390254 C52.5594217,80.9795651 54.850681,81.2137155 57.1406301,81.2137155 C60.0460583,81.2137155 62.9495212,80.8369105 65.8526565,80.3308965 C65.8939286,79.9606504 65.9352008,79.5904043 65.9764729,79.2198302 C66.8120701,79.6999368 66.658446,80.069855 65.9388039,80.3761525 C65.0776573,83.1652963 60.6094559,85.9167267 65.8716548,88.7701471 C68.2778865,88.5720703 72.9671887,87.9620988 70.307428,85.4303893 C66.9758485,82.2591935 68.7456375,80.1885699 69.1282238,77.5597896 C69.3961652,75.7203648 68.4819544,74.9818402 67.0583928,74.4236835 C63.1748802,71.16132 62.4974929,66.6193281 62.8931814,61.9002477 C62.7592107,61.8828668 62.6278605,61.8743403 62.4988031,61.8743403 C60.3110517,61.8743403 58.8180481,64.2794644 57.3047361,64.2794644 C56.7871964,64.2794644 56.2676914,63.9984184 55.716741,63.2441526 C54.5054362,61.5854237 55.0423017,58.6470665 54.7904106,56.2858866 C52.8719108,55.8598903 50.9534111,55.4335662 49.0352389,55.0069141 C45.4429242,59.847005 46.2831072,67.3762174 39.5790036,70.4424719 C38.738493,70.8271474 38.6965658,72.9617196 38.2844994,74.2856201 C38.8930998,74.3007054 39.4132599,75.0815345 39.9373507,75.6190309 C40.0772174,75.7623414 40.2170841,75.887943 40.3592437,75.9774711 C40.4653721,76.0446991 40.5731383,76.0912668 40.6825422,76.1093036 C40.5731383,76.0912668 40.4653721,76.0446991 40.3592437,75.9774711 C40.2170841,75.887943 40.0772174,75.7623414 39.9373507,75.6190309 C39.4132599,75.0815345 38.8930998,74.3010334 38.2844994,74.285948 C37.7905439,75.1494184 37.5619093,76.4474115 36.4167709,76.4474115 C36.2598713,76.4474115 36.0859386,76.4231438 35.8916975,76.3700173 C34.8042092,76.0729021 34.205763,74.7601517 34.728216,73.9422652 C37.0407665,70.3240849 34.829431,67.8989564 32.6282498,65.6187781 C28.8364531,61.6913488 30.0756002,58.2981365 33.3757343,54.9636258 C37.0060455,53.1009172 39.956349,49.5056929 44.3187495,49.5056929 C45.0076013,49.5056929 45.7311741,49.5952209 46.498312,49.7952653 C46.5592375,49.0482143 46.6198355,48.3014911 46.6807611,47.55444 C47.0833283,46.9179053 47.3945072,45.8245478 47.9032028,45.7228859 C50.213788,45.2621279 51.3225675,43.4722223 51.27933,41.6760859 C51.2498499,40.4492562 50.5557572,40.2541309 49.7204875,40.2541309 C49.3313501,40.2541309 48.91175,40.2964353 48.5140961,40.2964353 C48.1262689,40.2964353 47.7597329,40.2564265 47.4632941,40.0973748 C46.3289651,39.4893709 47.3617515,38.8390626 47.4947395,38.2084308 C47.468535,38.2087588 47.4420029,38.2090867 47.4164535,38.2090867 C44.0298445,38.2090867 45.9938746,35.6262183 45.5641202,34.2" id="Fill-22" fill="url(#linearGradient-2)"></path>
                </g>
                <g id="globe-original">
                    <g id="pin">
                        <path d="M231.279846,65.3844868 L229.079217,69.8831161 C223.460015,81.3699313 216.642666,94.1254226 209.690122,106.530225 L207.3317,110.738145 L204.978045,106.527557 C188.995183,77.9349146 176.533162,52.9512611 173.725102,40.6702029 C171.840033,32.5039563 174.764032,25.3452728 180.03596,19.5973454 L182.257718,17.177368 L179.326507,15.6935182 C162.5513,7.19434426 143.630059,2.7 124.615385,2.7 C57.3946771,2.7 2.7,57.3946771 2.7,124.615385 C2.7,191.836092 57.3946771,246.530769 124.615385,246.530769 C191.836092,246.530769 246.530769,191.836092 246.530769,124.615385 C246.530769,105.287929 242.162764,86.8736663 233.542214,69.8508082 L231.279846,65.3844868 Z M207.327432,120.710592 L209.483619,116.99379 C209.574364,116.836876 209.71876,116.586434 209.925546,116.226386 C210.267445,115.631086 210.660379,114.94402 211.101327,114.169487 C212.353655,111.969751 213.74412,109.502592 215.238878,106.819269 C219.49304,99.1823915 223.74272,91.3236864 227.707432,83.6708298 C228.02754,83.0529439 228.344769,82.4383244 228.659023,81.82712 L231.388661,76.5181398 L233.572986,82.0737603 C238.870889,95.5484669 241.546154,109.818721 241.546154,124.615385 C241.546154,189.093708 189.093708,241.546154 124.615385,241.546154 C60.1370612,241.546154 7.68461538,189.093708 7.68461538,124.615385 C7.68461538,60.1370612 60.1370612,7.68461538 124.615385,7.68461538 C140.929924,7.68461538 156.603885,10.9481202 171.281625,17.3999888 L174.135542,18.65448 L172.486405,21.3000306 C168.50021,27.6946969 167.248141,34.7704299 168.867048,41.7834262 C170.876173,50.5702545 177.923934,66.2782344 188.219573,86.0432502 C191.901616,93.1118375 195.764552,100.246468 199.593663,107.123485 C200.970628,109.59649 202.258197,111.883016 203.430681,113.944675 C203.861586,114.702364 204.253389,115.388208 204.603749,115.998926 C204.841897,116.414047 205.026467,116.734516 205.171503,116.985499 L207.327432,120.710592 Z" id="globe-border" stroke-opacity="0.6" stroke="#003BFF" stroke-width="5.4" fill="#D8D8D8" fill-rule="nonzero"></path>
                        <path d="M225.917762,31.1836137 C225.913775,31.2156672 225.906078,31.2701852 225.893978,31.3456378 C225.838941,31.6888361 225.740725,32.1629751 225.595271,32.7525836 C225.418201,33.4703498 225.194232,34.2705317 224.923497,35.1504135 C226.262683,36.9278194 227.686807,38.9209962 229.188905,41.1257069 L247.783393,28.457043 L227.80293,38.8026272 C226.864263,36.9897762 226.329318,35.2623146 226.069469,33.6533945 C225.921028,32.7342845 225.884,32.0031565 225.904656,31.419975 C225.908864,31.3011848 225.914569,31.2189586 225.919463,31.1697712 Z M208.089986,73.2326593 C202.682628,83.9669744 196.081775,96.4696801 188.298752,110.708051 L227.757015,110.657666 C219.568019,95.7670839 213.003488,83.2669425 208.089985,73.2326624 Z M192.587545,32.8924314 C191.75377,29.8124878 190.96972,26.664846 190.23566,23.449365 L168.3,28.457043 L187.14004,40.7575671 C189.150863,37.677699 190.989745,35.0447798 192.587545,32.8924314 Z M207.590363,23.6545374 C208.544907,23.4853564 209.554263,23.3237983 210.617359,23.1709305 L207.414914,0.9 L204.608768,23.2243262 C205.654717,23.3558011 206.648862,23.4995829 207.590363,23.6545374 Z" id="pin-body" stroke="url(#linearGradient-3)" stroke-width="45"></path>
                        <path d="M207.327432,120.710595 L209.482775,116.995252 C209.574499,116.836594 209.720107,116.58402 209.925915,116.225654 C210.268509,115.629105 210.661621,114.941691 211.102813,114.166683 C212.356641,111.964184 213.748245,109.494808 215.244285,106.808887 C219.502697,99.1635308 223.756274,91.2960621 227.72468,83.6335915 C228.987604,81.1950516 230.203799,78.8110508 231.367712,76.4900894 C232.12445,74.9810776 232.857673,73.5015242 233.561433,72.0629602 C240.389706,57.9653952 244.410957,48.0288754 245.843667,41.786355 L245.8949,41.5631239 C247.661177,33.4931189 245.565687,25.2025311 239.919959,18.1228573 C232.469529,8.78492275 219.625828,2.7 207.329759,2.7 C195.971082,2.7 184.067877,7.90144514 176.362297,16.2315168 C169.425974,23.7873631 166.797783,32.8235052 168.867048,41.7834262 C170.876172,50.5702545 177.923933,66.2782344 188.219573,86.0432502 C191.901615,93.1118375 195.764551,100.246468 199.593662,107.123485 C200.970627,109.59649 202.258196,111.883016 203.43068,113.944675 C203.861585,114.702364 204.253388,115.388208 204.603748,115.998926 C204.841896,116.414047 205.026466,116.734516 205.171503,116.985499 L207.327432,120.710595 Z M207.329759,7.68461538 C218.218575,7.68461538 229.433524,12.9706424 236.024162,21.2316426 C240.477977,26.8217904 242.64074,33.3935947 240.985738,40.6725977 C239.631813,46.5652171 235.633922,56.3470574 229.079217,69.8831156 C223.460015,81.3699308 216.642666,94.1254221 209.690122,106.530224 L207.3317,110.738144 L204.978045,106.527557 C188.995183,77.9349141 176.533162,52.9512606 173.725102,40.6702024 C171.840554,32.5062128 174.765212,25.3411233 180.028228,19.6095143 C186.853565,12.2359568 197.272471,7.68461538 207.329759,7.68461538 Z" id="pin-outline" stroke="#B14C37" stroke-width="5.4" fill-rule="nonzero"></path>
                        <path d="M207.347506,60.0133413 C217.309243,60.0133413 225.416737,51.9065305 225.416737,41.9441106 C225.416737,31.9816907 217.309243,23.8748798 207.347506,23.8748798 C197.38577,23.8748798 189.278276,31.9816907 189.278276,41.9441106 C189.278276,51.9065305 197.38577,60.0133413 207.347506,60.0133413 Z M207.347506,28.8594952 C214.565159,28.8594952 220.432122,34.7274463 220.432122,41.9441106 C220.432122,49.1607748 214.565159,55.028726 207.347506,55.028726 C200.129853,55.028726 194.262891,49.1607748 194.262891,41.9441106 C194.262891,34.7274463 200.129853,28.8594952 207.347506,28.8594952 Z" id="pin-center" stroke="#B14C37" stroke-width="5.4" fill-rule="nonzero"></path>
                    </g>
                </g>
            </g>
        </g>
    </g>
</svg>