<?xml version="1.0" encoding="UTF-8"?>
<svg width="277px" height="277px" viewBox="0 0 277 277" version="1.1" xmlns="http://www.w3.org/2000/svg" xmlns:xlink="http://www.w3.org/1999/xlink">
    <!-- Generator: Sketch 52.5 (67469) - http://www.bohemiancoding.com/sketch -->
    <title>emblem-black</title>
    <desc>Created with Sketch.</desc>
    <defs>
        <linearGradient x1="0%" y1="0%" x2="68.5125385%" y2="90.1656746%" id="linearGradient-1">
            <stop stop-color="#5EFCE8" offset="0%"></stop>
            <stop stop-color="#736EFE" offset="100%"></stop>
        </linearGradient>
        <linearGradient x1="-1%" y1="0%" x2="100%" y2="100%" id="linearGradient-2">
            <stop stop-color="#F0FF00" offset="0%"></stop>
            <stop stop-color="#58CFFB" offset="100%"></stop>
        </linearGradient>
        <linearGradient x1="39.0054424%" y1="105.978895%" x2="65.2036517%" y2="30.7952425%" id="linearGradient-3">
            <stop stop-color="#E80505" offset="0%"></stop>
            <stop stop-color="#FDD819" offset="100%"></stop>
        </linearGradient>
    </defs>
    <g id="emblem-black" stroke="none" stroke-width="1" fill="none" fill-rule="evenodd">
        <rect fill="#000000" x="0" y="0" width="277" height="277"></rect>
        <g id="BumpmapEmblem" transform="translate(29.000000, 21.000000)">
            <g id="Group" transform="translate(0.000000, 5.575439)">
                <g id="continents" transform="translate(7.200000, 0.796491)">
                    <path d="M96.5121748,56.6815816 C71.228222,60.7956757 52,82.5690585 52,108.721053 C52,137.796484 75.7674085,161.459649 105.2,161.459649 C118.785796,161.459649 131.164537,156.417844 140.555888,148.129192 L130.702617,130.427186 C119.041539,109.477346 110.703568,93.2570051 105.465663,81.1411035 C102.087251,73.326432 99.1056744,65.1715904 96.5121754,56.6815838 Z" id="Combined-Shape" stroke="url(#linearGradient-1)" stroke-width="104"></path>
                    <path d="M78.2005719,171.140916 C78.7545512,170.474204 79.2315239,170.19619 79.6645764,170.19619 C79.965283,170.19619 80.244615,170.329823 80.5148703,170.559613 C80.244615,170.329823 79.9649902,170.19648 79.6645764,170.19648 C79.2312311,170.19648 78.7545512,170.474204 78.2005719,171.140916 C78.1953015,171.147017 78.1900311,171.153699 78.1847607,171.16009 C78.1900311,171.153699 78.1953015,171.147017 78.2005719,171.140916 M24.6411383,139.385965 C24.4508178,139.385965 24.3044173,139.531799 24.2356091,139.953905 C23.8248094,142.477823 21.7099085,144.640933 22.6293033,147.413816 C24.1632873,149.026125 24.1404488,151.039624 23.7797181,152.964519 C23.4204514,154.884185 22.4843669,156.734129 23.9987332,158.547469 C25.4337504,162.454197 27.7571255,165.693052 31.2648803,168.039181 C33.5920619,172.202426 37.0433061,175.216138 41.2438278,177.374891 C43.5537341,178.561899 45.1858064,180.227953 46.5411817,182.438706 C49.9742723,188.038505 54.1200402,193.121203 58.6965183,197.852098 C60.6954701,199.020804 62.8630751,199.977442 64.1098214,202.091456 C66.6343507,203.223559 68.7082595,205.494737 71.6804815,205.494737 C71.9926072,205.494737 72.314981,205.469463 72.6487741,205.415138 C68.1402258,199.9022 68.1402258,199.9022 71.3504949,196.484684 C71.9603991,191.860115 70.484097,186.342529 78.085794,185.400708 C80.5344879,185.097129 80.2510566,181.3281 79.8988172,178.807377 C78.1212229,175.917421 81.335884,174.673182 81.9838524,172.582408 C81.9835596,172.581827 81.9832668,172.581246 81.982974,172.580665 C82.0046412,172.582699 82.0260157,172.58357 82.0465118,172.58357 C82.2500084,172.58357 82.3967016,172.485379 82.4848347,172.286964 C83.1761376,172.149845 83.5070027,171.742555 83.4376089,171.035172 C84.7645825,168.740172 83.5807885,167.705098 81.5806655,166.566023 C76.5436116,163.697564 70.8943111,162.43822 65.411907,161.503951 C61.4795909,160.834044 59.9268677,159.096235 58.7893362,155.989852 C49.8987297,150.989948 41.7257781,144.589804 31.4882874,142.218982 C30.0017372,140.883234 28.1761236,140.376301 26.2503721,140.111069 C26.235732,140.112521 26.221092,140.113102 26.2061592,140.113102 C25.7119112,140.113102 25.0662852,139.385965 24.6411383,139.385965" id="Fill-4" fill="url(#linearGradient-2)"></path>
                    <path d="M184.8,49.3824561 C184.951519,50.1313221 185.280034,50.7793792 186.4,50.9754386 C185.867002,50.4446129 185.333333,49.9135345 184.8,49.3824561" id="Fill-6" fill="url(#linearGradient-2)"></path>
                    <path d="M188,157.705263 C183.11549,160.58453 181.63055,165.828535 179.2,170.449123 C183.198761,166.982336 185.679688,162.434739 188,157.705263 Z" id="Fill-8" fill="url(#linearGradient-2)"></path>
                    <path d="M122.982314,52.5684211 C122.678786,52.5684211 122.399329,52.7776123 122.213807,53.4107219 C121.811648,54.7829934 121.281795,55.2214793 120.692058,55.2214793 C119.852807,55.2214793 118.892321,54.3337275 118.004927,53.9855609 C118.430571,55.8449743 116.564491,56.5515047 116,57.9127048 C117.733396,58.1988133 115.833265,61.1458465 117.609813,61.1458465 C117.770677,61.1458465 117.961482,61.1219556 118.188101,61.0695121 C119.613566,60.7394094 122.118991,60.7158098 121.498726,57.9427142 C121.140599,56.3399826 121.631116,55.5801346 122.80736,55.5801346 C123.090926,55.5801346 123.414709,55.6244202 123.775772,55.711826 C125.958295,56.2388832 125.161608,57.320676 124.572165,58.8135676 C123.948965,60.3921169 123.89642,62.3794341 126.383352,62.922807 C128.277905,61.443609 131.566221,63.1617163 132.8,60.1671926 C130.649473,56.9241449 127.101075,55.3729828 124.114525,53.1476304 C123.796907,52.9107606 123.37009,52.5684211 122.982314,52.5684211" id="Fill-10" fill="url(#linearGradient-2)"></path>
                    <path d="M183.179782,96.5883308 C185.120331,99.5283032 186.822913,102.018647 187.477075,105.026857 C187.476487,105.027733 187.475898,105.029193 187.475015,105.030361 C189.021181,109.063647 189.57168,113.579735 193.151839,117.258732 C194.727721,111.317894 190.533509,107.352662 189.886209,102.567572 C187.676855,100.754652 188.052878,96.1094661 183.471169,96.1094661 C183.463426,96.1094661 183.455668,96.1094795 183.447896,96.1095062 C186.969063,89.8177786 190.158875,83.9880047 193.017333,78.6201846 C193.162216,78.6561016 193.31405,78.6751224 193.471076,78.6751224 C193.56876,78.6751224 193.668797,78.6678205 193.770011,78.6526325 C194.860418,78.4881934 194.794217,77.342377 194.57031,76.5082062 C194.522395,76.3296795 194.471458,76.1527017 194.417678,75.9771806 C195.372597,74.1654166 196.287506,72.4094307 197.162407,70.7092228 C200.284199,78.0798169 202.320353,85.8574449 203.2,94.0684349 C202.655385,94.2687995 202.168733,94.3578828 201.727392,94.3578828 C199.967323,94.3578828 198.924287,92.9386827 197.764737,91.4876462 C197.04182,90.5827929 196.395991,90.1137179 195.885506,90.1137179 C195.229379,90.1137179 194.796865,90.8891813 194.710656,92.5125429 C196.893235,93.4539058 197.239541,95.8357904 198.522078,97.4766767 C198.953416,98.0284093 199.305312,98.2127097 199.6219,98.2127097 C200.142683,98.2127097 200.56843,97.7155953 201.094214,97.5330474 C204.783238,105.605168 200.161219,111.916943 196.266825,118.148397 C194.975755,120.214255 195.400914,120.836962 196.91795,121.856602 C197.025049,121.886393 197.138915,121.896908 197.256018,121.896908 C197.520234,121.896908 197.802104,121.84375 198.06632,121.84375 C198.457054,121.84375 198.809538,121.959997 199.011378,122.534804 C198.362019,122.678505 197.712953,122.822207 197.063593,122.965909 C196.77731,124.230016 197.600558,125.140127 198.096331,126.154801 C196.000843,132.16194 192.470703,137.380472 188.776089,142.47312 C186.815358,145.175412 185.330392,148.117208 185.123844,151.318367 C184.744585,157.190859 180.934046,160.865183 177.536602,165.022017 C172.231387,171.511666 167.058575,178.056811 159.827347,182.615834 C158.783134,183.273883 157.973126,184.143979 156.658518,184.534485 C154.485354,185.180267 153.02069,185.582456 152.04974,185.582456 C150.198461,185.582456 150.142263,184.120029 150.393828,180.093461 C150.054878,173.246601 152.968023,166.716937 152.427233,159.823345 C152.37133,159.113891 153.653279,158.301334 154.314408,157.536386 C156.378413,154.654174 154.127868,151.75619 154.346479,148.867261 L154.346479,148.866968 C151.016413,147.490411 150.086654,145.377529 151.558086,141.900942 C152.550809,139.554983 152.720578,136.913442 148.819417,136.812676 C148.802352,136.672479 148.77999,136.542797 148.752921,136.421585 C148.77999,136.542797 148.802352,136.672479 148.819417,136.812676 C148.283923,136.898546 147.744016,136.992011 147.254421,136.992011 C146.27435,136.992011 145.496118,136.616108 145.361068,135.045612 C144.500158,135.001801 143.685737,134.874163 143.326779,133.914107 C142.647997,133.917612 141.969214,133.920825 141.290137,133.924622 C139.18288,137.206979 135.587421,136.517678 132.495385,137.171638 C131.979604,137.07496 131.470591,137.03407 130.966579,137.03407 C128.15406,137.03407 125.497774,138.313073 122.690551,138.357761 C122.230967,138.081748 121.770501,137.806028 121.31033,137.530308 C121.31033,137.530308 120.928423,137.350096 120.91989,137.350096 C120.91989,137.350096 120.91989,137.350389 120.919596,137.350389 C120.007785,136.094459 118.611087,135.659265 117.224393,135.207715 C117.009313,134.904247 116.715086,134.742729 116.341711,134.722575 C115.656456,133.601878 113.98848,133.220718 113.960529,131.605534 C113.280863,131.211231 112.600904,130.816635 111.921238,130.422624 C111.494903,128.63862 110.272682,127.837162 108.512025,127.701346 C105.049263,123.213005 109.657747,118.775778 108.598822,114.302041 C107.119741,112.780906 107.133276,111.267657 108.284293,109.477228 C110.70402,105.714697 112.876301,101.744792 116.651533,99.1131818 C120.156958,96.6702532 119.996016,91.6073976 123.858928,89.4845849 C125.05202,88.7123344 125.478944,87.9681233 123.778898,87.3010204 C123.061277,86.9534492 122.343951,86.6061702 121.62633,86.2588911 C117.609831,82.6029684 119.373431,78.6023954 120.920478,74.6161341 C121.413015,75.4570226 121.932621,75.7312825 122.466643,75.7312825 C123.467311,75.7312825 124.515937,74.7668456 125.517193,74.7668456 C125.691376,74.7668456 125.863499,74.7960533 126.034445,74.8641071 C126.770014,74.8497953 127.505877,74.8351915 128.240857,74.8211718 C128.6566,74.8474587 129.175323,75.2855736 129.584887,75.2855736 C129.87323,75.2855736 130.107435,75.0679766 130.213063,74.3357405 C131.19284,71.2452782 130.097137,69.1443712 127.128383,67.9176496 C126.115946,67.4993959 124.064887,67.5651131 125.985309,65.6657391 C126.305134,65.7016645 126.614367,65.718897 126.913597,65.718897 C130.334873,65.718897 132.441836,63.4538431 134.3652,60.8727622 C134.400508,60.8791879 134.434344,60.8824008 134.466709,60.8824008 C134.631476,60.8824008 134.751521,60.7979906 134.825666,60.6282941 C138.349628,57.958422 141.676458,55.4348803 146.540625,55.4348803 C146.885166,55.4348803 147.237944,55.4477317 147.598373,55.4740185 C147.976455,55.5014737 148.391904,55.521335 148.827067,55.521335 C149.006213,55.521335 149.188634,55.5179615 149.373044,55.510354 C149.723857,56.4191655 150.080714,57.3211348 150.443615,58.2162621 C149.280721,60.5280511 150.144491,63.965622 149.934539,66.7984121 C149.881872,67.507282 149.940423,68.2240379 149.946896,68.9369969 C151.81614,69.0113241 153.812843,68.8407654 155.437344,69.3845469 C156.014914,70.5770001 156.626715,71.8172517 157.272746,73.1052957 C156.176225,72.7939765 155.212853,72.2360796 154.479175,71.2113973 C154.087853,70.664922 153.583841,70.4625129 153.094541,70.4625129 C152.531096,70.4625129 151.986775,70.7312234 151.655475,71.0522155 C150.510048,72.1629828 152.151248,72.6904731 152.610831,73.4866739 C154.010893,75.9120932 157.113131,75.6388306 159.21982,76.9312338 C159.577913,77.6255079 159.944677,78.3318883 160.320112,79.0503752 C160.10754,79.2863051 159.895011,79.5221301 159.682587,79.7578504 C159.28185,80.0823474 158.879935,80.4074287 158.478609,80.7325099 C157.808359,80.1060057 157.137814,79.4797934 156.466976,78.8529971 C154.261153,76.5143398 150.08077,76.8908266 148.763514,73.3309971 C148.373368,73.0768904 147.983811,72.8227838 147.594254,72.5683851 C146.926946,72.4410397 146.259932,72.3134022 145.593507,72.1857648 C144.370992,72.937862 143.622184,74.5942283 142.006287,74.5942283 C141.752663,74.5942283 141.477854,74.5536297 141.176565,74.4622097 C140.146475,74.5507089 139.116679,74.638916 138.087177,74.7274153 L138.087177,74.7277073 C135.942259,78.2229879 133.797341,81.7182684 131.652424,85.213549 C131.417336,86.239614 131.617999,87.124314 132.500387,87.78762 C132.375929,88.2508534 132.181739,88.6547954 131.927232,88.9375255 C132.181739,88.6547954 132.375929,88.2508534 132.500387,87.78762 C133.244782,87.726576 133.989472,87.6655319 134.733867,87.6044879 C135.060166,87.4488111 135.386758,87.2934264 135.713056,87.1377495 C136.556606,86.293064 137.536384,86.0725462 138.56412,86.0725462 C139.079606,86.0725462 139.607156,86.1280408 140.135883,86.1882086 C141.588189,85.8917508 143.040202,85.5952931 144.492802,85.2988353 C144.038221,86.4285876 143.52656,87.2814512 142.907505,87.6187997 C143.52656,87.2814512 144.038221,86.4285876 144.493097,85.2988353 C145.786226,85.2351626 147.219114,84.6813854 148.494295,84.6813854 C149.745056,84.6813854 150.844878,85.2144252 151.51248,87.2656791 C150.643921,89.8493886 151.338886,91.5031263 154.266743,91.8284996 C154.994662,91.4917353 155.656968,91.3509544 156.272786,91.3512464 C158.890821,91.3515385 160.659422,93.8958177 163.007063,94.7066223 C163.877094,95.3886211 164.74683,96.07062 165.643341,96.7739404 C165.703069,96.8206726 165.763091,96.867697 165.822819,96.9147213 C165.763091,96.867697 165.703069,96.8206726 165.643341,96.7739404 C164.74683,96.07062 163.877094,95.3886211 163.007063,94.7063302 C163.33395,94.7793494 163.632296,94.8135223 163.905928,94.8135223 C165.720217,94.8135223 166.458856,93.3212077 167.229238,91.8730635 C170.022759,96.9284852 173.122691,102.411733 176.529031,108.322807 C178.862708,104.248536 181.079625,100.337044 183.179782,96.5883308 Z M148.721145,136.30972 C148.701137,136.232611 148.681424,136.154335 148.657003,136.085113 C148.681424,136.154335 148.700843,136.232611 148.721145,136.30972 Z M148.607279,135.968574 C148.583152,135.911327 148.560791,135.851451 148.533722,135.799754 C148.560791,135.851451 148.583152,135.911327 148.607279,135.968574 Z M148.469875,135.695775 C148.442217,135.649919 148.416031,135.601726 148.385431,135.560835 C148.415737,135.601726 148.442217,135.649919 148.469875,135.695775 Z M148.308049,135.47146 C148.276861,135.435534 148.247144,135.397272 148.213897,135.365436 C148.247144,135.397272 148.276861,135.435534 148.308049,135.47146 Z M148.123569,135.290956 C148.089733,135.263209 148.057073,135.233125 148.021472,135.208883 C148.057073,135.233125 148.089733,135.263209 148.123569,135.290956 Z M147.919375,135.149883 C147.882891,135.129146 147.847584,135.106364 147.809628,135.088255 C147.847584,135.106364 147.882891,135.129146 147.919375,135.149883 Z M147.696939,135.043568 C147.658395,135.02838 147.620734,135.012023 147.581014,134.999464 C147.620734,135.012023 147.658395,135.02838 147.696939,135.043568 Z M147.45685,134.967336 C147.417129,134.957405 147.378585,134.946014 147.337687,134.93842 C147.378585,134.946014 147.417129,134.957405 147.45685,134.967336 Z M145.983947,134.916222 C145.995422,134.915346 146.006897,134.914762 146.018077,134.913594 C146.006897,134.914762 145.995422,134.915346 145.983947,134.916222 Z M147.20146,134.917683 C147.161445,134.912133 147.122019,134.905123 147.081415,134.901326 C147.122019,134.905123 147.161445,134.912133 147.20146,134.917683 Z M146.260815,134.896069 C146.290532,134.894024 146.320249,134.893148 146.349672,134.89198 C146.320249,134.893148 146.290532,134.894024 146.260815,134.896069 Z M146.933125,134.891396 C146.893698,134.889059 146.854566,134.885554 146.814845,134.884386 C146.854566,134.885554 146.893698,134.889059 146.933125,134.891396 Z M146.587702,134.88351 L146.584465,134.88351 L146.569754,134.88351 C146.560044,134.88351 146.550041,134.883802 146.540037,134.884094 C146.550041,134.883802 146.560044,134.88351 146.569754,134.88351 L146.584465,134.88351 L146.587702,134.88351 L146.636543,134.88351 L146.649784,134.88351 L146.636543,134.88351 L146.587702,134.88351 Z M136.924685,90.1262772 C136.898499,90.1286138 136.872312,90.1306584 136.847891,90.1309504 L136.839947,90.1309504 L136.830238,90.1309504 L136.839947,90.1309504 L136.847891,90.1309504 C136.872312,90.1306584 136.898499,90.1286138 136.924685,90.1262772 C136.940279,90.1251089 136.956167,90.1236485 136.971761,90.1221881 C136.956167,90.1236485 136.940279,90.1251089 136.924685,90.1262772 Z M136.75521,90.1224802 C136.719608,90.1189753 136.682241,90.117807 136.649876,90.1107972 C136.682241,90.117807 136.719608,90.1189753 136.75521,90.1224802 Z M137.038845,90.1180991 C137.091217,90.1107972 137.149475,90.0967775 137.206849,90.083342 C137.149475,90.0967775 137.091217,90.1107972 137.038845,90.1180991 Z M136.496878,90.0614362 C136.522476,90.0725351 136.551899,90.0792529 136.579262,90.0880152 C136.551899,90.0792529 136.522476,90.0725351 136.496878,90.0614362 C136.495995,90.0611441 136.495113,90.0608521 136.49423,90.0602679 C136.495113,90.0608521 136.495995,90.0611441 136.496878,90.0614362 Z M136.434502,90.0255108 C136.410375,90.0114911 136.384189,89.999516 136.362122,89.9828676 C136.384189,89.999516 136.410375,90.0114911 136.434502,90.0255108 Z M137.277169,90.0690302 C137.362495,90.0462482 137.452529,90.0173326 137.548741,89.9811151 C137.452529,90.0173326 137.362495,90.0462482 137.277169,90.0690302 Z M136.315928,89.9408086 C136.293861,89.9212394 136.270617,89.9031307 136.25061,89.881225 C136.270617,89.9031307 136.293861,89.9212394 136.315928,89.9408086 Z M136.213537,89.8327402 C136.194412,89.8082058 136.174405,89.7851318 136.15734,89.7582607 C136.174111,89.7851318 136.194412,89.8082058 136.213537,89.8327402 Z M136.126152,89.7024741 C136.110557,89.6744347 136.093787,89.6472716 136.079369,89.6171877 C136.093787,89.6472716 136.110557,89.6744347 136.126152,89.7024741 Z M136.055537,89.5590645 C136.041708,89.5263519 136.027291,89.4948076 136.014934,89.4606347 C136.027291,89.4948076 136.041708,89.5263519 136.055537,89.5590645 Z M135.996691,89.4025114 C135.984922,89.3657098 135.972565,89.3297844 135.961678,89.2918144 C135.972271,89.3297844 135.984922,89.3657098 135.996691,89.4025114 Z M135.949027,89.2409931 C135.937846,89.198934 135.92696,89.156875 135.916662,89.1133556 C135.926665,89.156875 135.937846,89.198934 135.949027,89.2409931 Z M135.907835,89.0712966 C135.897537,89.0239802 135.887533,88.9766638 135.878118,88.9284711 C135.887533,88.9766638 135.897537,89.0239802 135.907835,89.0712966 Z M135.866054,88.8647984 C135.868703,88.8805706 135.871939,88.8963427 135.874881,88.9124069 C135.871939,88.8963427 135.868703,88.8805706 135.866054,88.8647984 C135.848695,88.7745468 135.832513,88.6834189 135.81633,88.5931672 C135.832513,88.6834189 135.848695,88.7742547 135.866054,88.8647984 Z M135.809269,88.5540289 C135.804561,88.527742 135.799265,88.5020393 135.794557,88.4757524 C135.799265,88.5020393 135.804561,88.527742 135.809269,88.5540289 Z M138.195453,88.828873 C137.388387,88.6752407 136.581321,88.5219005 135.774256,88.3685603 C136.581321,88.5219005 137.388387,88.6752407 138.195453,88.828873 Z M142.469106,87.7662984 C142.418793,87.7730161 142.368186,87.7776894 142.316402,87.7779814 L142.3114,87.7779814 L142.310223,87.7779814 L142.3114,87.7779814 L142.316402,87.7779814 C142.368186,87.7776894 142.418793,87.7730161 142.469106,87.7662984 C142.471166,87.7660063 142.472931,87.7657142 142.474991,87.7654221 C142.472931,87.7657142 142.471166,87.7660063 142.469106,87.7662984 Z M142.680362,87.7175216 C142.712727,87.7070068 142.744797,87.6947396 142.776868,87.6815962 C142.744797,87.6947396 142.712727,87.7070068 142.680362,87.7175216 Z M139.549488,73.2763788 L139.548605,73.2763788 C139.543603,73.2763788 139.538307,73.2763788 139.533011,73.2763788 C139.527715,73.2766708 139.522419,73.2766708 139.517123,73.2769629 C139.522419,73.2766708 139.527715,73.2766708 139.533011,73.2763788 C139.538307,73.2763788 139.543603,73.2763788 139.548605,73.2763788 L139.549488,73.2763788 L139.55802,73.2763788 C139.71808,73.2778391 139.88167,73.3210665 140.048497,73.4034321 C140.070859,73.4139468 140.092631,73.4253378 140.114698,73.437605 C140.092631,73.4253378 140.070859,73.4139468 140.048497,73.4034321 C139.88167,73.3210665 139.71808,73.2778391 139.55802,73.2763788 L139.549488,73.2763788 Z" id="Combined-Shape" fill="url(#linearGradient-2)"></path>
                    <path d="M155.94518,82.0385965 C155.42996,82.4099277 154.91498,82.7812588 154.4,83.152237 C154.432876,83.137059 154.468872,83.1303525 154.507028,83.1303525 C154.835789,83.1303525 155.331572,83.6315789 155.660333,83.6315789 C155.931982,83.6315789 156.089884,83.2891918 155.94518,82.0385965" id="Fill-14" fill="url(#linearGradient-2)"></path>
                    <path d="M154.742,82.8350877 C154.619,82.8730877 154.504,82.9240877 154.4,83.0020877 C154.514,82.9460877 154.628,82.8910877 154.742,82.8350877 Z" id="Fill-16" fill="url(#linearGradient-2)"></path>
                    <path d="M58.756,70.8877193 L58.755,70.8887193 C58.647,70.9077193 58.538,70.9247193 58.429,70.9437193 C58.419,71.0307193 58.409,71.1177193 58.4,71.2037193 C58.503,71.1637193 58.597,71.1227193 58.692,71.0817193 C58.712,71.0177193 58.737,70.9537193 58.755,70.8887193 L58.756,70.8887193 L58.756,70.8877193 Z" id="Fill-18" fill="url(#linearGradient-2)"></path>
                    <path d="M53.612173,27.0807018 C53.3708085,27.0807018 53.1086878,27.1294547 52.8204737,27.2411801 L52.8925272,27.6480349 C52.7294431,27.5847722 52.5832604,27.5545918 52.4527931,27.5545918 C52.0691006,27.5545918 51.8188406,27.814027 51.6613903,28.2542543 C51.3310709,28.3427641 50.9966001,28.4124111 50.6582747,28.4631954 C50.6582747,28.4631954 50.5853316,28.5557679 50.5853316,28.5557679 C49.8149815,29.9881753 49.0443349,31.421163 48.2739848,32.8544409 C48.8616807,33.5085427 49.7334395,33.597923 50.6235823,33.597923 C50.9568669,33.597923 51.2931167,33.5854446 51.6178024,33.5854446 C52.7389316,33.5854446 53.7248493,33.7343151 54.0023888,35.0616715 C54.4907516,37.3951374 52.1945272,39.359474 51.0787352,41.4456929 C50.1610164,43.1613315 47.8514487,42.649716 46.4,43.6311588 C48.0166084,44.8647819 51.5946741,44.080092 50.8352951,47.7589064 C52.094008,48.3073768 53.1878577,48.5859649 54.1079487,48.5859649 C56.6585844,48.5859649 57.8772676,46.4466402 57.5896465,41.9784927 C58.6772693,42.8583669 59.8081836,43.6230333 60.8572593,43.6230333 C61.5042585,43.6230333 62.1198269,43.3319667 62.674906,42.5971905 C64.1103428,40.6969872 62.281725,39.849615 61.0239016,38.8522114 C60.6760876,38.5765252 60.3350936,37.7126118 60.5061836,37.4775531 C63.1030759,33.9078523 59.860667,31.908402 58.3336066,29.4521833 C58.1165565,29.5189284 57.9149252,29.5488185 57.7260441,29.5488185 C56.0101026,29.5488185 55.3281145,27.0807018 53.612173,27.0807018 Z" id="Fill-20" fill="url(#linearGradient-2)"></path>
                    <path d="M37.1024204,83.9307512 C37.1088259,83.8367183 37.1155226,83.7426853 37.1242575,83.6501035 C37.1155226,83.7426853 37.1088259,83.8367183 37.1024204,83.9307512 M40.5014402,30.2666667 C35.9901833,32.322912 31.9430379,35.0025609 28.8150895,38.9162473 C28.4502641,39.0546847 28.2711998,39.3184994 28.2784788,39.7076914 C27.1318847,40.0829525 26.3803967,40.8462447 26.0205211,41.9935048 C19.7273556,47.7417044 15.6190663,55.1084899 11.5585275,62.3707942 C8.54820836,67.7544711 5.36348346,73.2687492 4.75495585,79.6789525 C3.13784466,83.4890285 2.08209293,87.4445073 1.65204734,91.562222 C1.60982891,92.2494752 1.56761049,92.9364382 1.52568323,93.6236913 C1.4857941,94.6682117 1.44619613,95.7127321 1.406307,96.7572525 C-1.44416446,103.19909 0.8196165,109.633963 1.43222038,116.071157 C4.22911811,122.151084 9.24670489,126.260092 14.2069328,130.432369 C14.8987327,131.01427 15.4711562,132.217544 16.267483,132.217544 C16.5857226,132.217544 16.939775,132.025705 17.3514775,131.525357 C18.1926431,130.503764 18.0910278,128.04962 16.8072965,127.692934 C11.9641155,126.34832 13.3643114,122.898124 13.7268075,119.799099 C13.8292963,118.92349 14.3944409,117.998542 13.3698434,117.50632 C13.0740233,117.3644 12.8180923,117.30026 12.5924421,117.30026 C11.8721085,117.29997 11.4606972,117.956169 11.0484125,118.834681 C10.3333197,120.358653 9.67442119,120.942877 9.0906423,120.942877 C8.23491854,120.942877 7.54078944,119.686782 7.06736078,118.296894 C5.22809334,112.897254 4.80532679,107.497905 8.19910568,102.421287 C13.7556325,102.687423 20.0502537,101.849833 20.1093595,110.336017 C21.0792186,110.157529 20.7962096,109.270311 21.0483555,108.685797 C20.9251942,105.365331 20.3108433,101.927033 23.3013635,99.3533166 L22.9569194,98.9760239 C22.9569194,98.9760239 22.9569194,98.9760239 22.9569194,98.9760239 C22.9569194,98.9760239 23.30049,99.3524459 23.30049,99.3524459 C24.0042274,98.922042 24.7085472,98.4930892 25.412867,98.0638462 C24.6159578,98.022344 23.8184664,97.9808418 23.0215572,97.9396298 C23.9724908,96.1054068 23.7951734,95.006324 22.8477338,94.5199067 C23.7951734,95.006324 23.9724908,96.1054068 23.0215572,97.9396298 C23.8184664,97.9808418 24.6159578,98.022344 25.412867,98.0638462 C27.1179089,97.4302846 28.74754,96.4423582 28.446479,94.4589594 C28.04817,91.8376457 30.2930255,91.6138821 31.4966873,90.4291829 C30.6843466,85.9698732 36.8252346,87.6978739 37.0834949,84.1910832 C37.0834949,84.190793 37.0834949,84.190793 37.0834949,84.190793 C37.5834192,83.5743547 38.0836348,82.9584969 38.5835591,82.3423489 L38.8479338,82.373403 C38.8476426,82.3716616 38.8473515,82.3705007 38.8470603,82.3687594 C38.8674416,82.3539579 39.1498683,82.2039115 39.1498683,82.2039115 C39.8771898,81.9734727 40.6045113,81.7430339 41.3318329,81.5125951 C42.1791129,81.2734496 43.0132907,80.9576846 43.8762935,80.8131525 C45.1512899,80.6001272 47.3003532,81.2296256 46.7025986,78.960355 C46.2821613,77.364697 48.0882364,74.5120739 44.6091471,74.2198171 C43.6649103,73.1721043 43.8585327,72.1508019 44.6816464,71.1445912 C46.719486,71.6661259 48.7561609,71.8733466 50.7916712,71.8733466 C53.3742741,71.8733466 55.9551299,71.5398779 58.5356947,71.0920605 C58.572381,70.7643963 58.6090674,70.4367321 58.6457537,70.1087776 C59.3885068,70.5336673 59.251952,70.8610413 58.6122701,71.1321116 C57.8468065,73.6004766 53.8750719,76.0354658 58.552582,78.5607149 C60.6914547,78.3854189 64.8597233,77.8456001 62.4954916,75.6050618 C59.5340876,72.7985845 61.1072334,70.9661028 61.44731,68.6396578 C61.6854802,67.0117849 60.8728483,66.3581978 59.6074603,65.8642346 C56.1554491,62.9770746 55.553327,58.957456 55.9050502,54.7811159 C55.7859651,54.7657339 55.6692093,54.7581881 55.5544917,54.7581881 C53.6098238,54.7581881 52.2827095,56.8866995 50.9375432,56.8866995 C50.4775079,56.8866995 50.0157257,56.6379765 49.525992,55.9704586 C48.4492767,54.5024997 48.9264904,51.9020822 48.7025872,49.812461 C46.9972541,49.4354585 45.2919209,49.0581658 43.586879,48.6805829 C40.3937104,52.9640161 41.1405397,59.6272957 35.1813365,62.340901 C34.434216,62.6813351 34.3969474,64.5704108 34.0306661,65.7420498 C34.5716443,65.7554001 35.0340088,66.4464262 35.4998673,66.9221053 C35.6241932,67.0489337 35.7485192,67.1600899 35.8748833,67.2393214 C35.9692197,67.2988176 36.0650118,67.3400295 36.1622598,67.3559919 C36.0650118,67.3400295 35.9692197,67.2988176 35.8748833,67.2393214 C35.7485192,67.1600899 35.6241932,67.0489337 35.4998673,66.9221053 C35.0340088,66.4464262 34.5716443,65.7556903 34.0306661,65.74234 C33.5915945,66.5065028 33.3883638,67.6552141 32.3704631,67.6552141 C32.2309967,67.6552141 32.0763899,67.6337374 31.9037311,67.5867209 C30.9370748,67.3237769 30.4051227,66.1620056 30.8695253,65.438184 C32.9251258,62.2361297 30.9594942,60.0899146 29.0028887,58.071979 C25.6324028,54.5962424 26.7338668,51.5932826 29.6673193,48.6422731 C32.8942627,46.9937942 35.5167546,43.8120557 39.394444,43.8120557 C40.0067567,43.8120557 40.6499325,43.8912871 41.3318329,44.0683245 C41.3859889,43.4071916 41.4398538,42.7463489 41.4940098,42.0852159 C41.8518474,41.5218889 42.1284508,40.5542782 42.5806247,40.4643084 C44.6344782,40.056542 45.62006,38.472493 45.5816267,36.8829298 C45.5554221,35.7971975 44.9384508,35.6245135 44.1959889,35.6245135 C43.850089,35.6245135 43.4771111,35.6619525 43.123641,35.6619525 C42.7789057,35.6619525 42.453096,35.6265451 42.1895948,35.4857858 C41.1813024,34.9477084 42.0993347,34.3721919 42.2175463,33.8140889 C42.1942533,33.8143791 42.1706693,33.8146693 42.1479587,33.8146693 C39.1376395,33.8146693 40.8834441,31.5288559 40.5014402,30.2666667" id="Fill-22" fill="url(#linearGradient-2)"></path>
                </g>
                <g id="globe-original">
                    <g id="pin">
                        <path d="M205.582052,57.869334 L203.624135,61.8542462 C198.629148,72.0202524 192.56917,83.3089478 186.389013,94.2872842 L184.294848,98.0073287 L182.204905,94.2849102 C167.996841,68.9787838 156.919449,46.8684136 154.422835,35.9973577 C152.745468,28.7627625 155.346701,22.4222248 160.035524,17.3324726 L161.996458,15.2059563 L159.40513,13.8999169 C144.49293,6.37777446 127.672682,2.4 110.769231,2.4 C51.015135,2.4 2.4,50.8019107 2.4,110.283401 C2.4,169.764891 51.015135,218.166802 110.769231,218.166802 C170.523327,218.166802 219.138462,169.764891 219.138462,110.283401 C219.138462,93.1819598 215.256505,76.8885176 207.595006,61.8258379 L205.582052,57.869334 Z M184.291048,106.822412 L186.209949,103.529146 C186.290612,103.390279 186.418957,103.168651 186.602761,102.850023 C186.906663,102.323202 187.255929,101.71517 187.647875,101.029731 C188.761035,99.0830211 189.996983,96.8996457 191.325636,94.5249688 C195.10705,87.7665199 198.884478,80.8117619 202.408594,74.0391978 C202.693128,73.4923878 202.975103,72.9484687 203.254432,72.4075721 L205.678594,67.7134035 L207.619113,72.6272786 C212.329211,84.5544184 214.707692,97.1859384 214.707692,110.283401 C214.707692,167.354269 168.08094,213.776518 110.769231,213.776518 C53.4575213,213.776518 6.83076923,167.354269 6.83076923,110.283401 C6.83076923,53.2125322 53.4575213,6.7902834 110.769231,6.7902834 C125.269682,6.7902834 139.200829,9.6781916 152.24678,15.3876254 L154.794627,16.502666 L153.318738,18.8599083 C149.77769,24.5155536 148.665702,30.7720874 150.10353,36.9733398 C151.888938,44.7475058 158.153311,58.6482408 167.304284,76.1387383 C170.577145,82.394243 174.010806,88.7082112 177.414402,94.7941993 C178.63835,96.9827481 179.782836,99.0062662 180.825025,100.83078 C181.208043,101.501312 181.556304,102.108263 181.867727,102.648729 C182.079407,103.016094 182.243462,103.299695 182.372373,103.521793 L184.291048,106.822412 Z" id="globe-border" stroke-opacity="0.6" stroke="#003BFF" stroke-width="4.8" fill="#D8D8D8" fill-rule="nonzero"></path>
                        <path d="M184.968654,64.7710963 C180.165865,74.2622497 174.304431,85.3152423 167.394466,97.9009843 L202.432741,97.8561378 C195.162733,84.6945912 189.333463,73.6439001 184.968653,64.7710991 Z M171.203944,29.1416761 C170.455594,26.3936192 169.752232,23.5845395 169.094101,20.7143047 L149.6,25.1842057 L166.324648,36.1517092 C168.128115,33.4015536 169.77559,31.0547285 171.203944,29.1416761 Z M184.524234,21.0205104 C185.369383,20.8715463 186.262684,20.729277 187.203197,20.5946292 L184.368813,0.796491228 L181.885231,20.6416877 C182.810647,20.7575014 183.690559,20.8841038 184.524234,21.0205104 Z M199.914681,31.1377894 C201.116673,32.7238987 202.396105,34.5056109 203.746557,36.4790503 L220.251905,25.1842057 L202.508048,34.4121824 C201.666664,32.7943418 201.186382,31.2502019 200.952855,29.8106001 C200.818991,28.9853849 200.785503,28.3270704 200.80425,27.8001516 C200.809998,27.6385752 200.812153,27.6179769 200.796832,27.7130955 C200.748682,28.0120316 200.6623,28.4272165 200.534046,28.9448227 C200.372009,29.5987713 200.165509,30.3306513 199.914681,31.1377894 Z" id="pin-body" stroke="url(#linearGradient-3)" stroke-width="40"></path>
                        <path d="M184.291048,106.822414 L186.209195,103.530447 C186.290732,103.390029 186.420155,103.166515 186.603088,102.849376 C186.907608,102.32145 187.257033,101.71311 187.649195,101.02725 C188.763689,99.0780948 190.000649,96.8927574 191.330441,94.5157814 C195.115633,87.7498292 198.896526,80.787316 202.423925,74.0062439 C203.546496,71.8482141 204.627529,69.7384526 205.66209,67.684483 C206.334724,66.3490647 206.986456,65.039718 207.611973,63.7667004 C213.681026,51.2915677 217.255098,42.4987618 218.52822,36.9759163 L218.573738,36.7784591 C220.142417,29.6425493 218.281228,22.3113361 213.265399,16.0491359 C206.643253,7.78572553 195.225297,2.4 184.293119,2.4 C174.194242,2.4 163.61218,7.00385251 156.762927,14.3757211 C150.60004,21.059607 148.265675,29.050328 150.10353,36.9733398 C151.888937,44.7475058 158.15331,58.6482408 167.304284,76.1387383 C170.577144,82.394243 174.010806,88.7082112 177.414401,94.7941993 C178.63835,96.9827481 179.782835,99.0062662 180.825024,100.83078 C181.208042,101.501312 181.556304,102.108263 181.867726,102.648729 C182.079406,103.016094 182.243461,103.299695 182.372372,103.521793 L184.291048,106.822414 Z M184.293119,6.7902834 C193.969738,6.7902834 203.937238,11.4677348 209.796045,18.7792177 C213.757469,23.7295398 215.681685,29.5508461 214.209027,35.9994578 C213.005135,41.2161202 209.451099,49.8738154 203.624135,61.8542457 C198.629148,72.020252 192.56917,83.3089473 186.389013,94.2872837 L184.294848,98.0073283 L182.204905,94.2849097 C167.996841,68.9787834 156.919449,46.8684132 154.422835,35.9973573 C152.745932,28.7647616 155.347752,22.4185466 160.028668,17.3432224 C166.095769,10.817552 175.355583,6.7902834 184.293119,6.7902834 Z" id="pin-outline" stroke="#B14C37" stroke-width="4.8" fill-rule="nonzero"></path>
                        <path d="M184.308894,53.1006959 C193.166127,53.1006959 200.370433,45.9285923 200.370433,37.120129 C200.370433,28.3116658 193.166127,21.1395622 184.308894,21.1395622 C175.451662,21.1395622 168.247356,28.3116658 168.247356,37.120129 C168.247356,45.9285923 175.451662,53.1006959 184.308894,53.1006959 Z M184.308894,25.5298456 C190.72223,25.5298456 195.939664,30.7252715 195.939664,37.120129 C195.939664,43.5149866 190.72223,48.7104124 184.308894,48.7104124 C177.895559,48.7104124 172.678125,43.5149866 172.678125,37.120129 C172.678125,30.7252715 177.895559,25.5298456 184.308894,25.5298456 Z" id="pin-center" stroke="#B14C37" stroke-width="4.8" fill-rule="nonzero"></path>
                    </g>
                </g>
            </g>
        </g>
    </g>
</svg>