<?xml version="1.0" encoding="UTF-8"?>
<svg width="277px" height="277px" viewBox="0 0 277 277" version="1.1" xmlns="http://www.w3.org/2000/svg" xmlns:xlink="http://www.w3.org/1999/xlink">
    <!-- Generator: Sketch 52.5 (67469) - http://www.bohemiancoding.com/sketch -->
    <title>emblem-white</title>
    <desc>Created with Sketch.</desc>
    <defs>
        <linearGradient x1="0%" y1="0%" x2="68.5125385%" y2="90.1656746%" id="linearGradient-1">
            <stop stop-color="#5EFCE8" offset="0%"></stop>
            <stop stop-color="#736EFE" offset="100%"></stop>
        </linearGradient>
        <linearGradient x1="-1%" y1="0%" x2="100%" y2="100%" id="linearGradient-2">
            <stop stop-color="#F0FF00" offset="0%"></stop>
            <stop stop-color="#58CFFB" offset="100%"></stop>
        </linearGradient>
        <linearGradient x1="39.0054424%" y1="105.978895%" x2="65.2036517%" y2="30.7952425%" id="linearGradient-3">
            <stop stop-color="#E80505" offset="0%"></stop>
            <stop stop-color="#FDD819" offset="100%"></stop>
        </linearGradient>
    </defs>
    <g id="emblem-white" stroke="none" stroke-width="1" fill="none" fill-rule="evenodd">
        <rect fill="#FFFFFF" x="0" y="0" width="277" height="277"></rect>
        <g id="BumpmapEmblem" transform="translate(29.000000, 29.000000)">
            <g id="Group" transform="translate(0.000000, 5.600000)">
                <g id="continents" transform="translate(7.200000, 0.800000)">
                    <path d="M96.4662529,56.7134387 C71.2398277,60.8797697 52,82.7930336 52,109.2 C52,138.581549 75.8184513,162.4 105.2,162.4 C118.822483,162.4 131.249108,157.27992 140.660445,148.85919 L130.65551,130.805527 C118.999098,109.771816 110.665267,93.4881098 105.432737,81.3313206 C102.047891,73.4672755 99.0620179,65.2596731 96.4662535,56.7134409 Z" id="Combined-Shape" stroke="url(#linearGradient-1)" stroke-width="104"></path>
                    <path d="M78.2005719,171.894841 C78.7545512,171.225192 79.2315239,170.945953 79.6645764,170.945953 C79.965283,170.945953 80.244615,171.080174 80.5148703,171.310977 C80.244615,171.080174 79.9649902,170.946245 79.6645764,170.946245 C79.2312311,170.946245 78.7545512,171.225192 78.2005719,171.894841 C78.1953015,171.900969 78.1900311,171.90768 78.1847607,171.914099 C78.1900311,171.90768 78.1953015,171.900969 78.2005719,171.894841 M24.6411383,140 C24.4508178,140 24.3044173,140.146477 24.2356091,140.570442 C23.8248094,143.105479 21.7099085,145.278118 22.6293033,148.063216 C24.1632873,149.682628 24.1404488,151.704997 23.7797181,153.638372 C23.4204514,155.566494 22.4843669,157.424587 23.9987332,159.245916 C25.4337504,163.169855 27.7571255,166.422977 31.2648803,168.779441 C33.5920619,172.961027 37.0433061,175.988016 41.2438278,178.156278 C43.5537341,179.348516 45.1858064,181.021909 46.5411817,183.2424 C49.9742723,188.866868 54.1200402,193.971957 58.6965183,198.723693 C60.6954701,199.897548 62.8630751,200.858399 64.1098214,202.981726 C66.6343507,204.118817 68.7082595,206.4 71.6804815,206.4 C71.9926072,206.4 72.314981,206.374615 72.6487741,206.320051 C68.1402258,200.782827 68.1402258,200.782827 71.3504949,197.350256 C71.9603991,192.705314 70.484097,187.163421 78.085794,186.217451 C80.5344879,185.912534 80.2510566,182.126902 79.8988172,179.595075 C78.1212229,176.692387 81.335884,175.442668 81.9838524,173.342683 C81.9835596,173.3421 81.9832668,173.341516 81.982974,173.340933 C82.0046412,173.342975 82.0260157,173.343851 82.0465118,173.343851 C82.2500084,173.343851 82.3967016,173.245227 82.4848347,173.045937 C83.1761376,172.908214 83.5070027,172.49913 83.4376089,171.788631 C84.7645825,169.483521 83.5807885,168.443887 81.5806655,167.299794 C76.5436116,164.418699 70.8943111,163.153806 65.411907,162.215422 C61.4795909,161.542564 59.9268677,159.7971 58.7893362,156.677032 C49.8987297,151.655102 41.7257781,145.226763 31.4882874,142.845498 C30.0017372,141.503865 28.1761236,140.994699 26.2503721,140.728298 C26.235732,140.729757 26.221092,140.73034 26.2061592,140.73034 C25.7119112,140.73034 25.0662852,140 24.6411383,140" id="Fill-4" fill="url(#linearGradient-2)"></path>
                    <path d="M184.8,49.6 C184.951519,50.3521649 185.280034,51.0030769 186.4,51.2 C185.867002,50.6668358 185.333333,50.1334179 184.8,49.6" id="Fill-6" fill="url(#linearGradient-2)"></path>
                    <path d="M188,158.4 C183.11549,161.291951 181.63055,166.559057 179.2,171.2 C183.198761,167.717941 185.679688,163.150311 188,158.4 Z" id="Fill-8" fill="url(#linearGradient-2)"></path>
                    <path d="M122.982314,52.8 C122.678786,52.8 122.399329,53.0101128 122.213807,53.6460114 C121.811648,55.0243282 121.281795,55.4647458 120.692058,55.4647458 C119.852807,55.4647458 118.892321,54.5730831 118.004927,54.2233828 C118.430571,56.0909874 116.564491,56.8006303 116,58.1678269 C117.733396,58.4551957 115.833265,61.4152115 117.609813,61.4152115 C117.770677,61.4152115 117.961482,61.3912153 118.188101,61.3385408 C119.613566,61.0069839 122.118991,60.9832803 121.498726,58.1979684 C121.140599,56.5881764 121.631116,55.824981 122.80736,55.824981 C123.090926,55.824981 123.414709,55.8694617 123.775772,55.9572526 C125.958295,56.4866316 125.161608,57.57319 124.572165,59.0726582 C123.948965,60.6581615 123.89642,62.6542334 126.383352,63.2 C128.277905,61.7142857 131.566221,63.4399617 132.8,60.4322463 C130.649473,57.1749121 127.101075,55.6169166 124.114525,53.3817609 C123.796907,53.1438476 123.37009,52.8 122.982314,52.8" id="Fill-10" fill="url(#linearGradient-2)"></path>
                    <path d="M183.179782,97.0138301 C185.120331,99.9667539 186.822913,102.468068 187.477075,105.48953 C187.476487,105.49041 187.475898,105.491877 187.475015,105.49305 C189.021181,109.544104 189.57168,114.080087 193.151839,117.77529 C194.727721,111.808281 190.533509,107.825582 189.886209,103.019411 C187.676855,101.198505 188.052878,96.5328559 183.471169,96.5328559 C183.463426,96.5328559 183.455668,96.5328693 183.447896,96.5328961 C186.969063,90.2134516 190.158875,84.3579959 193.017333,78.966529 C193.162216,79.0026043 193.31405,79.0217089 193.471076,79.0217089 C193.56876,79.0217089 193.668797,79.0143748 193.770011,78.9991199 C194.860418,78.8339564 194.794217,77.6830923 194.57031,76.8452468 C194.522395,76.6659336 194.471458,76.4881761 194.417678,76.3118818 C195.372597,74.4921365 196.287506,72.728415 197.162407,71.0207172 C200.284199,78.4237809 202.320353,86.2356715 203.2,94.4828333 C202.655385,94.6840805 202.168733,94.7735563 201.727392,94.7735563 C199.967323,94.7735563 198.924287,93.3481042 197.764737,91.8906755 C197.04182,90.9818361 196.395991,90.5106946 195.885506,90.5106946 C195.229379,90.5106946 194.796865,91.2895741 194.710656,92.9200872 C196.893235,93.865597 197.239541,96.2579745 198.522078,97.9060893 C198.953416,98.4602526 199.305312,98.6453648 199.6219,98.6453648 C200.142683,98.6453648 200.56843,98.1460605 201.094214,97.9627084 C204.783238,106.070389 200.161219,112.409969 196.266825,118.668875 C194.975755,120.743833 195.400914,121.369284 196.91795,122.393415 C197.025049,122.423338 197.138915,122.433899 197.256018,122.433899 C197.520234,122.433899 197.802104,122.380507 198.06632,122.380507 C198.457054,122.380507 198.809538,122.497265 199.011378,123.074604 C198.362019,123.218939 197.712953,123.363274 197.063593,123.507609 C196.77731,124.777285 197.600558,125.691405 198.096331,126.710549 C196.000843,132.744151 192.470703,137.985673 188.776089,143.100755 C186.815358,145.814952 185.330392,148.769707 185.123844,151.984968 C184.744585,157.88333 180.934046,161.57384 177.536602,165.748986 C172.231387,172.267224 167.058575,178.841202 159.827347,183.420309 C158.783134,184.081257 157.973126,184.955186 156.658518,185.347413 C154.485354,185.996039 153.02069,186.4 152.04974,186.4 C150.198461,186.4 150.142263,184.93113 150.393828,180.886824 C150.054878,174.009802 152.968023,167.451373 152.427233,160.527413 C152.37133,159.814834 153.653279,158.998697 154.314408,158.230379 C156.378413,155.33547 154.127868,152.42472 154.346479,149.523063 L154.346479,149.52277 C151.016413,148.140149 150.086654,146.017959 151.558086,142.526056 C152.550809,140.169762 152.720578,137.516585 148.819417,137.415375 C148.802352,137.27456 148.77999,137.144307 148.752921,137.022561 C148.77999,137.144307 148.802352,137.27456 148.819417,137.415375 C148.283923,137.501623 147.744016,137.5955 147.254421,137.5955 C146.27435,137.5955 145.496118,137.217941 145.361068,135.640527 C144.500158,135.596522 143.685737,135.468323 143.326779,134.504037 C142.647997,134.507558 141.969214,134.510785 141.290137,134.514599 C139.18288,137.811415 135.587421,137.119078 132.495385,137.775918 C131.979604,137.678815 131.470591,137.637744 130.966579,137.637744 C128.15406,137.637744 125.497774,138.922382 122.690551,138.967266 C122.230967,138.690038 121.770501,138.413103 121.31033,138.136168 C121.31033,138.136168 120.928423,137.955163 120.91989,137.955163 C120.91989,137.955163 120.91989,137.955456 120.919596,137.955456 C120.007785,136.693994 118.611087,136.256883 117.224393,135.803343 C117.009313,135.498539 116.715086,135.336309 116.341711,135.316067 C115.656456,134.190432 113.98848,133.807593 113.960529,132.185294 C113.280863,131.789254 112.600904,131.39292 111.921238,130.997173 C111.494903,129.20531 110.272682,128.400321 108.512025,128.263907 C105.049263,123.755794 109.657747,119.299019 108.598822,114.805574 C107.119741,113.277738 107.133276,111.757823 108.284293,109.959506 C110.70402,106.1804 112.876301,102.193007 116.651533,99.5498037 C120.156958,97.0961133 119.996016,92.0109544 123.858928,89.8787902 C125.05202,89.1031377 125.478944,88.3556481 123.778898,87.6856064 C123.061277,87.3365041 122.343951,86.9876951 121.62633,86.6388862 C117.609831,82.9668581 119.373431,78.9486614 120.920478,74.9448395 C121.413015,75.7894324 121.932621,76.0649005 122.466643,76.0649005 C123.467311,76.0649005 124.515937,75.096215 125.517193,75.096215 C125.691376,75.096215 125.863499,75.1255513 126.034445,75.1939049 C126.770014,75.1795301 127.505877,75.164862 128.240857,75.1507805 C128.6566,75.1771832 129.175323,75.6172281 129.584887,75.6172281 C129.87323,75.6172281 130.107435,75.3986725 130.213063,74.6632108 C131.19284,71.559134 130.097137,69.448972 127.128383,68.2168463 C126.115946,67.7967501 124.064887,67.8627568 125.985309,65.9550154 C126.305134,65.9910991 126.614367,66.0084076 126.913597,66.0084076 C130.334873,66.0084076 132.441836,63.7333754 134.3652,61.1409242 C134.400508,61.1473782 134.434344,61.1506052 134.466709,61.1506052 C134.631476,61.1506052 134.751521,61.0658232 134.825666,60.8953791 C138.349628,58.2137455 141.676458,55.6790868 146.540625,55.6790868 C146.885166,55.6790868 147.237944,55.6919948 147.598373,55.7183975 C147.976455,55.7459736 148.391904,55.7659223 148.827067,55.7659223 C149.006213,55.7659223 149.188634,55.762534 149.373044,55.754893 C149.723857,56.667708 150.080714,57.5736508 150.443615,58.4727214 C149.280721,60.7946945 150.144491,64.2474089 149.934539,67.0926782 C149.881872,67.8046709 149.940423,68.5245843 149.946896,69.2406841 C151.81614,69.3153387 153.812843,69.1440287 155.437344,69.6902057 C156.014914,70.887912 156.626715,72.1336273 157.272746,73.4273455 C156.176225,73.1146548 155.212853,72.5543002 154.479175,71.5251039 C154.087853,70.9762212 153.583841,70.7729204 153.094541,70.7729204 C152.531096,70.7729204 151.986775,71.0428146 151.655475,71.3652209 C150.510048,72.4808814 152.151248,73.0106955 152.610831,73.8104037 C154.010893,76.2465077 157.113131,75.9720413 159.21982,77.2701379 C159.577913,77.9674704 159.944677,78.6769627 160.320112,79.3986147 C160.10754,79.6355839 159.895011,79.8724479 159.682587,80.1092065 C159.28185,80.4351331 158.879935,80.7616464 158.478609,81.0881598 C157.808359,80.4588955 157.137814,79.8299247 156.466976,79.2003671 C154.261153,76.8514074 150.08077,77.2295527 148.763514,73.6540411 C148.373368,73.3988151 147.983811,73.143589 147.594254,72.8880696 C146.926946,72.7601632 146.259932,72.6319635 145.593507,72.5037637 C144.370992,73.2591742 143.622184,74.9228373 142.006287,74.9228373 C141.752663,74.9228373 141.477854,74.8820598 141.176565,74.7902371 C140.146475,74.8791261 139.116679,74.9677218 138.087177,75.0566109 L138.087177,75.0569043 C135.942259,78.5675825 133.797341,82.0782608 131.652424,85.5889391 C131.417336,86.6195242 131.617999,87.5081216 132.500387,88.1743496 C132.375929,88.6396237 132.181739,89.0453451 131.927232,89.3293208 C132.181739,89.0453451 132.375929,88.6396237 132.500387,88.1743496 C133.244782,88.1130366 133.989472,88.0517237 134.733867,87.9904108 C135.060166,87.8340482 135.386758,87.6779789 135.713056,87.5216163 C136.556606,86.6732097 137.536384,86.4517204 138.56412,86.4517204 C139.079606,86.4517204 139.607156,86.5074595 140.135883,86.5678923 C141.588189,86.2701286 143.040202,85.9723649 144.492802,85.6746011 C144.038221,86.8093303 143.52656,87.665951 142.907505,88.0047856 C143.52656,87.665951 144.038221,86.8093303 144.493097,85.6746011 C145.786226,85.6106479 147.219114,85.0544312 148.494295,85.0544312 C149.745056,85.0544312 150.844878,85.5898191 151.51248,87.6501094 C150.643921,90.2452009 151.338886,91.9062237 154.266743,92.2330304 C154.994662,91.8947826 155.656968,91.7533815 156.272786,91.7536748 C158.890821,91.7539682 160.659422,94.3094556 163.007063,95.1238321 C163.877094,95.8088353 164.74683,96.4938386 165.643341,97.2002573 C165.703069,97.2471954 165.763091,97.2944269 165.822819,97.3416584 C165.763091,97.2944269 165.703069,97.2471954 165.643341,97.2002573 C164.74683,96.4938386 163.877094,95.8088353 163.007063,95.1235387 C163.33395,95.1968795 163.632296,95.231203 163.905928,95.231203 C165.720217,95.231203 166.458856,93.7323144 167.229238,92.2777907 C170.022759,97.3554829 173.122691,102.862886 176.529031,108.8 C178.862708,104.70778 181.079625,100.779057 183.179782,97.0138301 Z M148.721145,136.910203 C148.701137,136.832755 148.681424,136.754134 148.657003,136.684607 C148.681424,136.754134 148.700843,136.832755 148.721145,136.910203 Z M148.607279,136.567555 C148.583152,136.510055 148.560791,136.449916 148.533722,136.397991 C148.560791,136.449916 148.583152,136.510055 148.607279,136.567555 Z M148.469875,136.293553 C148.442217,136.247495 148.416031,136.19909 148.385431,136.15802 C148.415737,136.19909 148.442217,136.247495 148.469875,136.293553 Z M148.308049,136.06825 C148.276861,136.032167 148.247144,135.993736 148.213897,135.96176 C148.247144,135.993736 148.276861,136.032167 148.308049,136.06825 Z M148.123569,135.886952 C148.089733,135.859082 148.057073,135.828866 148.021472,135.804517 C148.057073,135.828866 148.089733,135.859082 148.123569,135.886952 Z M147.919375,135.745257 C147.882891,135.724429 147.847584,135.701546 147.809628,135.683358 C147.847584,135.701546 147.882891,135.724429 147.919375,135.745257 Z M147.696939,135.638473 C147.658395,135.623218 147.620734,135.60679 147.581014,135.594175 C147.620734,135.60679 147.658395,135.623218 147.696939,135.638473 Z M147.45685,135.561905 C147.417129,135.551931 147.378585,135.54049 147.337687,135.532862 C147.378585,135.54049 147.417129,135.551931 147.45685,135.561905 Z M145.983947,135.510567 C145.995422,135.509687 146.006897,135.5091 146.018077,135.507927 C146.006897,135.5091 145.995422,135.509687 145.983947,135.510567 Z M147.20146,135.512034 C147.161445,135.50646 147.122019,135.499419 147.081415,135.495605 C147.122019,135.499419 147.161445,135.50646 147.20146,135.512034 Z M146.260815,135.490325 C146.290532,135.488271 146.320249,135.487391 146.349672,135.486218 C146.320249,135.487391 146.290532,135.488271 146.260815,135.490325 Z M146.933125,135.485631 C146.893698,135.483284 146.854566,135.479764 146.814845,135.47859 C146.854566,135.479764 146.893698,135.483284 146.933125,135.485631 Z M146.587702,135.47771 L146.584465,135.47771 L146.569754,135.47771 C146.560044,135.47771 146.550041,135.478003 146.540037,135.478297 C146.550041,135.478003 146.560044,135.47771 146.569754,135.47771 L146.584465,135.47771 L146.587702,135.47771 L146.636543,135.47771 L146.649784,135.47771 L146.636543,135.47771 L146.587702,135.47771 Z M136.924685,90.5233093 C136.898499,90.5256562 136.872312,90.5277097 136.847891,90.5280031 L136.839947,90.5280031 L136.830238,90.5280031 L136.839947,90.5280031 L136.847891,90.5280031 C136.872312,90.5277097 136.898499,90.5256562 136.924685,90.5233093 C136.940279,90.5221358 136.956167,90.520669 136.971761,90.5192022 C136.956167,90.520669 136.940279,90.5221358 136.924685,90.5233093 Z M136.75521,90.5194955 C136.719608,90.5159752 136.682241,90.5148017 136.649876,90.507761 C136.682241,90.5148017 136.719608,90.5159752 136.75521,90.5194955 Z M137.038845,90.5150951 C137.091217,90.507761 137.149475,90.4936796 137.206849,90.4801849 C137.149475,90.4936796 137.091217,90.507761 137.038845,90.5150951 Z M136.496878,90.4581826 C136.522476,90.4693304 136.551899,90.4760778 136.579262,90.4848787 C136.551899,90.4760778 136.522476,90.4693304 136.496878,90.4581826 C136.495995,90.4578893 136.495113,90.4575959 136.49423,90.4570092 C136.495113,90.4575959 136.495995,90.4578893 136.496878,90.4581826 Z M136.434502,90.4220989 C136.410375,90.4080175 136.384189,90.3959896 136.362122,90.3792679 C136.384189,90.3959896 136.410375,90.4080175 136.434502,90.4220989 Z M137.277169,90.4658101 C137.362495,90.4429277 137.452529,90.4138848 137.548741,90.3775077 C137.452529,90.4138848 137.362495,90.4429277 137.277169,90.4658101 Z M136.315928,90.3370236 C136.293861,90.3173683 136.270617,90.2991797 136.25061,90.2771775 C136.270617,90.2991797 136.293861,90.3173683 136.315928,90.3370236 Z M136.213537,90.2284792 C136.194412,90.2038367 136.174405,90.180661 136.15734,90.1536715 C136.174111,90.180661 136.194412,90.2038367 136.213537,90.2284792 Z M136.126152,90.0976392 C136.110557,90.0694763 136.093787,90.0421935 136.079369,90.0119771 C136.093787,90.0421935 136.110557,90.0694763 136.126152,90.0976392 Z M136.055537,89.9535978 C136.041708,89.9207411 136.027291,89.8890579 136.014934,89.8547344 C136.027291,89.8890579 136.041708,89.9207411 136.055537,89.9535978 Z M135.996691,89.7963551 C135.984922,89.7593913 135.972565,89.7233076 135.961678,89.6851704 C135.972271,89.7233076 135.984922,89.7593913 135.996691,89.7963551 Z M135.949027,89.6341252 C135.937846,89.5918809 135.92696,89.5496366 135.916662,89.5059254 C135.926665,89.5496366 135.937846,89.5918809 135.949027,89.6341252 Z M135.907835,89.4636811 C135.897537,89.4161563 135.887533,89.3686314 135.878118,89.3202265 C135.887533,89.3686314 135.897537,89.4161563 135.907835,89.4636811 Z M135.866054,89.2562733 C135.868703,89.2721149 135.871939,89.2879565 135.874881,89.3040915 C135.871939,89.2879565 135.868703,89.2721149 135.866054,89.2562733 C135.848695,89.1656241 135.832513,89.0740947 135.81633,88.9834455 C135.832513,89.0740947 135.848695,89.1653307 135.866054,89.2562733 Z M135.809269,88.9441348 C135.804561,88.9177321 135.799265,88.8919161 135.794557,88.8655134 C135.799265,88.8919161 135.804561,88.9177321 135.809269,88.9441348 Z M138.195453,89.2201896 C137.388387,89.0658805 136.581321,88.9118648 135.774256,88.7578491 C136.581321,88.9118648 137.388387,89.0658805 138.195453,89.2201896 Z M142.469106,88.152934 C142.418793,88.1596814 142.368186,88.1643752 142.316402,88.1646686 L142.3114,88.1646686 L142.310223,88.1646686 L142.3114,88.1646686 L142.316402,88.1646686 C142.368186,88.1643752 142.418793,88.1596814 142.469106,88.152934 C142.471166,88.1526407 142.472931,88.1523473 142.474991,88.152054 C142.472931,88.1523473 142.471166,88.1526407 142.469106,88.152934 Z M142.680362,88.1039424 C142.712727,88.0933813 142.744797,88.08106 142.776868,88.0678587 C142.744797,88.08106 142.712727,88.0933813 142.680362,88.1039424 Z M139.549488,73.5991822 L139.548605,73.5991822 C139.543603,73.5991822 139.538307,73.5991822 139.533011,73.5991822 C139.527715,73.5994756 139.522419,73.5994756 139.517123,73.5997689 C139.522419,73.5994756 139.527715,73.5994756 139.533011,73.5991822 C139.538307,73.5991822 139.543603,73.5991822 139.548605,73.5991822 L139.549488,73.5991822 L139.55802,73.5991822 C139.71808,73.600649 139.88167,73.6440668 140.048497,73.7267952 C140.070859,73.7373563 140.092631,73.7487975 140.114698,73.7611187 C140.092631,73.7487975 140.070859,73.7373563 140.048497,73.7267952 C139.88167,73.6440668 139.71808,73.600649 139.55802,73.5991822 L139.549488,73.5991822 Z" id="Combined-Shape" fill="url(#linearGradient-2)"></path>
                    <path d="M155.94518,82.4 C155.42996,82.772967 154.91498,83.145934 154.4,83.5185464 C154.432876,83.5033016 154.468872,83.4965655 154.507028,83.4965655 C154.835789,83.4965655 155.331572,84 155.660333,84 C155.931982,84 156.089884,83.6561046 155.94518,82.4" id="Fill-14" fill="url(#linearGradient-2)"></path>
                    <path d="M154.6736,83.2 C154.5752,83.2304 154.4832,83.2712 154.4,83.3336 C154.4912,83.2888 154.5824,83.2448 154.6736,83.2 Z" id="Fill-16" fill="url(#linearGradient-2)"></path>
                    <path d="M58.6848,71.2 L58.684,71.2008 C58.5976,71.216 58.5104,71.2296 58.4232,71.2448 C58.4152,71.3144 58.4072,71.384 58.4,71.4528 C58.4824,71.4208 58.5576,71.388 58.6336,71.3552 C58.6496,71.304 58.6696,71.2528 58.684,71.2008 L58.6848,71.2008 L58.6848,71.2 Z" id="Fill-18" fill="url(#linearGradient-2)"></path>
                    <path d="M53.612173,27.2 C53.3708085,27.2 53.1086878,27.2489677 52.8204737,27.3611853 L52.8925272,27.7698324 C52.7294431,27.706291 52.5832604,27.6759777 52.4527931,27.6759777 C52.0691006,27.6759777 51.8188406,27.9365557 51.6613903,28.3787224 C51.3310709,28.4676221 50.9966001,28.5375759 50.6582747,28.5885839 C50.6582747,28.5885839 50.5853316,28.6815642 50.5853316,28.6815642 C49.8149815,30.1202818 49.0443349,31.5595822 48.2739848,32.9991742 C48.8616807,33.6561574 49.7334395,33.7459315 50.6235823,33.7459315 C50.9568669,33.7459315 51.2931167,33.7333981 51.6178024,33.7333981 C52.7389316,33.7333981 53.7248493,33.8829245 54.0023888,35.2161282 C54.4907516,37.5598737 52.1945272,39.5328637 51.0787352,41.628273 C50.1610164,43.3514695 47.8514487,42.8376002 46.4,43.8233665 C48.0166084,45.0624241 51.5946741,44.2742774 50.8352951,47.969298 C52.094008,48.5201846 53.1878577,48.8 54.1079487,48.8 C56.6585844,48.8 57.8772676,46.6512509 57.5896465,42.16342 C58.6772693,43.0471703 59.8081836,43.8152052 60.8572593,43.8152052 C61.5042585,43.8152052 62.1198269,43.5228564 62.674906,42.7848433 C64.1103428,40.8762691 62.281725,40.025164 61.0239016,39.0233665 C60.6760876,38.7464659 60.3350936,37.8787467 60.5061836,37.6426524 C63.1030759,34.0572261 59.860667,32.0489677 58.3336066,29.5819286 C58.1165565,29.6489677 57.9149252,29.6789896 57.7260441,29.6789896 C56.0101026,29.6789896 55.3281145,27.2 53.612173,27.2 Z" id="Fill-20" fill="url(#linearGradient-2)"></path>
                    <path d="M37.1024204,84.3004902 C37.1088259,84.206043 37.1155226,84.1115958 37.1242575,84.0186061 C37.1155226,84.1115958 37.1088259,84.206043 37.1024204,84.3004902 M40.5014402,30.4 C35.9901833,32.4653037 31.9430379,35.1567572 28.8150895,39.0876845 C28.4502641,39.2267318 28.2711998,39.4917087 28.2784788,39.8826151 C27.1318847,40.2595294 26.3803967,41.0261841 26.0205211,42.1784982 C19.7273556,47.9520203 15.6190663,55.3512585 11.5585275,62.6455554 C8.54820836,68.0529489 5.36348346,73.5915191 4.75495585,80.0299611 C3.13784466,83.8568216 2.08209293,87.8297254 1.65204734,91.9655798 C1.60982891,92.6558605 1.56761049,93.3458498 1.52568323,94.0361305 C1.4857941,95.0852523 1.44619613,96.1343741 1.406307,97.1834959 C-1.44416446,103.653712 0.8196165,110.116932 1.43222038,116.582484 C4.22911811,122.689194 9.24670489,126.816304 14.2069328,131.006961 C14.8987327,131.591426 15.4711562,132.8 16.267483,132.8 C16.5857226,132.8 16.939775,132.607316 17.3514775,132.104764 C18.1926431,131.078671 18.0910278,128.613715 16.8072965,128.255457 C11.9641155,126.904921 13.3643114,123.439525 13.7268075,120.326849 C13.8292963,119.447382 14.3944409,118.51836 13.3698434,118.023969 C13.0740233,117.881424 12.8180923,117.817002 12.5924421,117.817002 C11.8721085,117.81671 11.4606972,118.4758 11.0484125,119.358182 C10.3333197,120.888868 9.67442119,121.475665 9.0906423,121.475665 C8.23491854,121.475665 7.54078944,120.214037 7.06736078,118.818025 C5.22809334,113.394599 4.80532679,107.971465 8.19910568,102.872482 C13.7556325,103.139791 20.0502537,102.298511 20.1093595,110.822079 C21.0792186,110.642804 20.7962096,109.751678 21.0483555,109.164589 C20.9251942,105.829495 20.3108433,102.376051 23.3013635,99.7909964 L22.9569194,99.4120416 C22.9569194,99.4120416 22.9569194,99.4120416 22.9569194,99.4120416 C22.9569194,99.4120416 23.30049,99.7901219 23.30049,99.7901219 C24.0042274,99.3578219 24.7085472,98.9269795 25.412867,98.4958455 C24.6159578,98.4541605 23.8184664,98.4124754 23.0215572,98.3710819 C23.9724908,96.5287786 23.7951734,95.4248541 22.8477338,94.9362939 C23.7951734,95.4248541 23.9724908,96.5287786 23.0215572,98.3710819 C23.8184664,98.4124754 24.6159578,98.4541605 25.412867,98.4958455 C27.1179089,97.8594929 28.74754,96.8672144 28.446479,94.8750781 C28.04817,92.2422168 30.2930255,92.0174674 31.4966873,90.8275494 C30.6843466,86.3485951 36.8252346,88.0842081 37.0834949,84.561969 C37.0834949,84.5616775 37.0834949,84.5616775 37.0834949,84.5616775 C37.5834192,83.9425237 38.0836348,83.3239528 38.5835591,82.7050905 L38.8479338,82.7362814 C38.8476426,82.7345324 38.8473515,82.7333664 38.8470603,82.7316173 C38.8674416,82.7167506 39.1498683,82.5660432 39.1498683,82.5660432 C39.8771898,82.3345893 40.6045113,82.1031354 41.3318329,81.8716814 C42.1791129,81.6314824 43.0132907,81.3143264 43.8762935,81.1691575 C45.1512899,80.9551938 47.3003532,81.5874653 46.7025986,79.308198 C46.2821613,77.7055107 48.0882364,74.8403209 44.6091471,74.5467767 C43.6649103,73.4944483 43.8585327,72.4686468 44.6816464,71.4580035 C46.719486,71.9818357 48.7561609,72.1899693 50.7916712,72.1899693 C53.3742741,72.1899693 55.9551299,71.8550316 58.5356947,71.4052414 C58.572381,71.0761337 58.6090674,70.747026 58.6457537,70.4176269 C59.3885068,70.8443883 59.251952,71.1732044 58.6122701,71.4454689 C57.8468065,73.9247078 53.8750719,76.3704238 58.552582,78.9067974 C60.6914547,78.7307292 64.8597233,78.1885323 62.4954916,75.9381238 C59.5340876,73.1192831 61.1072334,71.2787288 61.44731,68.9420352 C61.6854802,67.306991 60.8728483,66.6505246 59.6074603,66.1543854 C56.1554491,63.2545066 55.553327,59.2171805 55.9050502,55.0224424 C55.7859651,55.0069927 55.6692093,54.9994136 55.5544917,54.9994136 C53.6098238,54.9994136 52.2827095,57.1373017 50.9375432,57.1373017 C50.4775079,57.1373017 50.0157257,56.887483 49.525992,56.2170245 C48.4492767,54.7425988 48.9264904,52.1307257 48.7025872,50.0318992 C46.9972541,49.6532359 45.2919209,49.2742811 43.586879,48.8950348 C40.3937104,53.1973378 41.1405397,59.889971 35.1813365,62.6155305 C34.434216,62.9574644 34.3969474,64.8548619 34.0306661,66.0316623 C34.5716443,66.0450715 35.0340088,66.7391418 35.4998673,67.2169163 C35.6241932,67.3443034 35.7485192,67.4559494 35.8748833,67.5355299 C35.9692197,67.5952881 36.0650118,67.6366816 36.1622598,67.6527143 C36.0650118,67.6366816 35.9692197,67.5952881 35.8748833,67.5355299 C35.7485192,67.4559494 35.6241932,67.3443034 35.4998673,67.2169163 C35.0340088,66.7391418 34.5716443,66.045363 34.0306661,66.0319538 C33.5915945,66.799483 33.3883638,67.9532547 32.3704631,67.9532547 C32.2309967,67.9532547 32.0763899,67.9316834 31.9037311,67.8844598 C30.9370748,67.6203574 30.4051227,66.4534682 30.8695253,65.7264579 C32.9251258,62.5102977 30.9594942,60.3546279 29.0028887,58.3278027 C25.6324028,54.8367545 26.7338668,51.8205658 29.6673193,48.8565563 C32.8942627,47.2008153 35.5167546,44.0050603 39.394444,44.0050603 C40.0067567,44.0050603 40.6499325,44.0846408 41.3318329,44.2624581 C41.3859889,43.5984127 41.4398538,42.9346588 41.4940098,42.2706134 C41.8518474,41.7048047 42.1284508,40.7329314 42.5806247,40.6425652 C44.6344782,40.2330025 45.62006,38.6419754 45.5816267,37.0454097 C45.5554221,35.9548944 44.9384508,35.7814497 44.1959889,35.7814497 C43.850089,35.7814497 43.4771111,35.8190536 43.123641,35.8190536 C42.7789057,35.8190536 42.453096,35.7834902 42.1895948,35.6421109 C41.1813024,35.1016631 42.0993347,34.5236112 42.2175463,33.9630496 C42.1942533,33.9633411 42.1706693,33.9636326 42.1479587,33.9636326 C39.1376395,33.9636326 40.8834441,31.6677496 40.5014402,30.4" id="Fill-22" fill="url(#linearGradient-2)"></path>
                </g>
                <g id="globe-original">
                    <g id="pin">
                        <path d="M205.582085,58.1195438 L203.625971,62.1183254 C198.631124,72.3288278 192.571259,83.6670423 186.391219,94.6935329 L184.294845,98.4339065 L182.202706,94.6911618 C167.995718,69.2754797 156.918366,47.0677876 154.422313,36.1512915 C152.746696,28.8924056 155.345807,22.5291313 160.031965,17.4198626 L162.006861,15.2687716 L159.401339,13.9497939 C144.490044,6.39497267 127.671164,2.4 110.769231,2.4 C51.0174908,2.4 2.4,51.0174908 2.4,110.769231 C2.4,170.520971 51.0174908,219.138462 110.769231,219.138462 C170.520971,219.138462 219.138462,170.520971 219.138462,110.769231 C219.138462,93.5892705 215.25579,77.2210367 207.593079,62.0896073 L205.582085,58.1195438 Z M184.29105,107.298304 L186.207661,103.99448 C186.288324,103.855001 186.416675,103.632385 186.600485,103.312343 C186.904395,102.783187 187.253671,102.172462 187.645624,101.483988 C188.758805,99.5286674 189.994773,97.3356373 191.323448,94.9504612 C195.104924,88.1621258 198.882418,81.1766101 202.406606,74.374071 C202.691146,73.824839 202.973128,73.2785105 203.252465,72.7352178 L205.67881,68.0161243 L207.620432,72.9544536 C212.329679,84.9319706 214.707692,97.6166409 214.707692,110.769231 C214.707692,168.083296 168.083296,214.707692 110.769231,214.707692 C53.4551655,214.707692 6.83076923,168.083296 6.83076923,110.769231 C6.83076923,53.4551655 53.4551655,6.83076923 110.769231,6.83076923 C125.271043,6.83076923 139.203453,9.73166243 152.250334,15.4666567 L154.787149,16.58176 L153.321249,18.9333605 C149.777965,24.6175083 148.665014,30.9070488 150.104043,37.1408233 C151.889931,44.9513373 158.154608,58.9139861 167.306287,76.482889 C170.579214,82.7660777 174.012935,89.1079717 177.416589,95.2208755 C178.640558,97.4191023 179.785064,99.45157 180.827272,101.284155 C181.210298,101.957656 181.558568,102.567296 181.869999,103.110157 C182.081686,103.479152 182.245748,103.764014 182.37467,103.987111 L184.29105,107.298304 Z" id="globe-border" stroke-opacity="0.6" stroke="#003BFF" stroke-width="4.8" fill="#D8D8D8" fill-rule="nonzero"></path>
                        <path d="M184.968877,65.0956971 C180.162336,74.6373106 174.294911,85.7508268 167.376669,98.4071562 L202.45068,98.3623697 C195.171572,85.1262968 189.336434,74.01506 184.968875,65.0956999 Z M171.188929,29.2377168 C170.447796,26.4999891 169.750862,23.7020854 169.098364,20.84388 L149.6,25.2951494 L166.346702,36.2289485 C168.134101,33.491288 169.768662,31.1509154 171.188929,29.2377168 Z M184.524767,21.0262554 C185.373251,20.8758724 186.270456,20.7322651 187.21543,20.5963827 L184.368813,0.8 L181.87446,20.6438455 C182.804193,20.7607121 183.687877,20.8885181 184.524767,21.0262554 Z M199.931998,31.244812 C201.122384,32.8247284 202.388273,34.596441 203.723471,36.5561839 L220.251905,25.2951494 L202.491493,34.4912242 C201.657122,32.879801 201.181616,31.3442796 200.950639,29.9141284 C200.818692,29.0971418 200.785777,28.4472503 200.804139,27.9288667 C200.809617,27.77422 200.811038,27.7605781 200.794647,27.8627892 C200.745725,28.1678543 200.658422,28.5893112 200.52913,29.1134076 C200.371735,29.751422 200.17265,30.4626949 199.931998,31.244812 Z" id="pin-body" stroke="url(#linearGradient-3)" stroke-width="40"></path>
                        <path d="M184.291051,107.298306 L186.206911,103.99578 C186.288443,103.85475 186.417873,103.63024 186.600813,103.311692 C186.905341,102.781426 187.254774,102.170392 187.646945,101.481496 C188.761459,99.5237191 189.99844,97.3287183 191.328253,94.9412328 C195.113508,88.1453607 198.894466,81.1520552 202.421938,74.3409702 C203.544537,72.1733792 204.625599,70.0542674 205.660189,67.9911906 C206.332845,66.6498467 206.984598,65.3346882 207.610163,64.0559646 C213.679739,51.5247957 217.254184,42.6923337 218.527704,37.1434266 L218.573244,36.9449991 C220.143268,29.7716612 218.280611,22.4022498 213.262186,16.1092065 C206.639582,7.80882022 195.222958,2.4 184.293119,2.4 C174.196518,2.4 163.615891,7.02350679 156.766486,14.4280149 C150.600866,21.1443228 148.264696,29.176449 150.104043,37.1408233 C151.889931,44.9513373 158.154607,58.9139861 167.306287,76.482889 C170.579213,82.7660777 174.012934,89.1079717 177.416589,95.2208755 C178.640558,97.4191023 179.785063,99.45157 180.827271,101.284155 C181.210298,101.957656 181.558567,102.567296 181.869998,103.110157 C182.081686,103.479152 182.245748,103.764014 182.374669,103.987111 L184.291051,107.298306 Z M184.293119,6.83076923 C193.972067,6.83076923 203.940911,11.5294599 209.799255,18.8725712 C213.758202,23.8415915 215.680658,29.6831953 214.209545,36.1534202 C213.006056,41.3913041 209.452375,50.0862732 203.625971,62.118325 C198.631124,72.3288274 192.571259,83.6670419 186.391219,94.6935324 L184.294845,98.433906 L182.202706,94.6911614 C167.995718,69.2754792 156.918366,47.0677872 154.422313,36.151291 C152.747159,28.8944114 155.346855,22.5254429 160.025091,17.4306794 C166.092058,10.876406 175.353308,6.83076923 184.293119,6.83076923 Z" id="pin-outline" stroke="#B14C37" stroke-width="4.8" fill-rule="nonzero"></path>
                        <path d="M184.308894,53.3451923 C193.163772,53.3451923 200.370433,46.1391382 200.370433,37.2836538 C200.370433,28.4281695 193.163772,21.2221154 184.308894,21.2221154 C175.454017,21.2221154 168.247356,28.4281695 168.247356,37.2836538 C168.247356,46.1391382 175.454017,53.3451923 184.308894,53.3451923 Z M184.308894,25.6528846 C190.724586,25.6528846 195.939664,30.8688412 195.939664,37.2836538 C195.939664,43.6984665 190.724586,48.9144231 184.308894,48.9144231 C177.893203,48.9144231 172.678125,43.6984665 172.678125,37.2836538 C172.678125,30.8688412 177.893203,25.6528846 184.308894,25.6528846 Z" id="pin-center" stroke="#B14C37" stroke-width="4.8" fill-rule="nonzero"></path>
                    </g>
                </g>
            </g>
        </g>
    </g>
</svg>