<?xml version="1.0" encoding="UTF-8"?>
<svg width="388px" height="161px" viewBox="0 0 388 161" version="1.1" xmlns="http://www.w3.org/2000/svg" xmlns:xlink="http://www.w3.org/1999/xlink">
    <!-- Generator: Sketch 52.5 (67469) - http://www.bohemiancoding.com/sketch -->
    <title>geobump</title>
    <desc>Created with Sketch.</desc>
    <g id="geobump" stroke="none" stroke-width="1" fill="none" fill-rule="evenodd">
        <g id="Group-2" transform="translate(13.000000, 14.000000)" fill="#000000">
            <path d="M319.699622,72.1475943 C319.694079,63.0839853 319.627538,56.7348464 319.5,53.1 C319.433333,51.166657 320.199992,49.633339 321.8,48.5 C323.400008,47.366661 325.399988,46.8 327.8,46.8 C329.200007,46.8 330.216664,47.0833305 330.85,47.65 C331.483337,48.2166695 331.833333,49.333325 331.9,51 C331.9,52.666675 331.933333,53.899996 332,54.7 C334.133344,52.03332 336.233323,50.1166725 338.3,48.95 C340.366677,47.7833275 342.566655,47.2 344.9,47.2 C348.633352,47.2 351.683322,48.699985 354.05,51.7 C356.416679,54.700015 357.6,58.633309 357.6,63.5 C357.6,68.766693 356.383346,73.7499765 353.95,78.45 C351.516655,83.1500235 348.283354,86.966652 344.25,89.9 C340.216647,92.833348 335.900023,94.366666 331.3,94.5 C330.433329,107.366731 328.466682,118.116624 325.4,126.75 C322.333318,135.383376 317.833363,139.7 311.9,139.7 C308.299982,139.7 305.633342,138.400013 303.9,135.8 C302.166658,133.199987 301.3,129.600023 301.3,125 C301.3,118.466634 302.799985,110.850043 305.8,102.15 C306.813434,99.2110415 308.013249,96.171297 309.399451,93.0307554 C307.027431,94.010255 304.460958,94.5 301.7,94.5 C298.299983,94.5 295.733342,93.5166765 294,91.55 C292.266658,89.5833235 291.4,86.733352 291.4,83 C291.4,81.133324 291.866662,77.800024 292.8,73 C293.666671,68.799979 294.1,65.900008 294.1,64.3 C294.1,63.233328 293.733337,62.7 293,62.7 C292.133329,62.7 290.900008,63.8166555 289.3,66.05 C287.699992,68.2833445 286.100008,71.233315 284.5,74.9 C282.899992,78.566685 281.600005,82.433313 280.6,86.5 C279.866663,89.700016 279.016672,91.833328 278.05,92.9 C277.083328,93.966672 275.533344,94.5 273.4,94.5 C271.199989,94.5 269.550005,93.4500105 268.45,91.35 C267.349994,89.2499895 266.8,86.700015 266.8,83.7 C266.8,81.166654 267.13333,77.500024 267.8,72.7 C268.333336,68.433312 268.6,65.63334 268.6,64.3 C268.6,63.233328 268.233337,62.7 267.5,62.7 C266.499995,62.7 265.233341,63.899988 263.7,66.3 C262.166659,68.700012 260.683341,71.766648 259.25,75.5 C257.81666,79.233352 256.666671,82.899982 255.8,86.5 C255.066663,89.633349 254.216672,91.7499945 253.25,92.85 C252.283329,93.9500055 250.766677,94.5 248.7,94.5 C246.166654,94.5 244.383339,93.16668 243.35,90.5 C242.914314,89.3756492 242.570479,87.9668741 242.318492,86.2736651 C240.475458,88.1156816 238.552634,89.7244535 236.55,91.1 C233.249984,93.366678 229.500021,94.5 225.3,94.5 C222.099984,94.5 219.750008,93.266679 218.25,90.8 C216.749993,88.333321 216,84.866689 216,80.4 C214.866661,84.933356 213.166678,88.4166545 210.9,90.85 C208.633322,93.2833455 206.200013,94.5 203.6,94.5 C200.599985,94.5 198.15001,93.1166805 196.25,90.35 C194.349991,87.5833195 193.4,84.133354 193.4,80 C193.4,78.1647689 193.444907,76.3856814 193.534721,74.6627306 C190.525491,75.4119992 187.313933,75.8577528 183.9,76 C182.56666,81.533361 180.050019,85.999983 176.35,89.4 C172.649982,92.800017 168.566689,94.5 164.1,94.5 C157.366633,94.5 152.466682,91.933359 149.4,86.8 C147.466379,83.5632867 146.142366,79.41222 145.427949,74.3467439 C142.078543,75.2877001 138.46925,75.8387813 134.6,76 C133.333327,81.600028 130.833352,86.0833165 127.1,89.45 C123.366648,92.8166835 119.133357,94.5 114.4,94.5 C110.39998,94.5 106.983348,93.533343 104.15,91.6 C101.74466,89.9587095 99.8318233,87.8610025 98.4114491,85.3068321 C96.3119377,87.2088188 93.7581318,89.0065332 90.75,90.7 C86.2499775,93.233346 81.433359,94.5 76.3,94.5 C69.299965,94.5 63.866686,92.600019 60,88.8 C58.2636589,87.0935958 56.9171769,85.1048998 55.9605488,82.8338979 C50.7056507,86.3814713 46.8188365,89.0368145 44.3,90.8 L37.9,95.1 C35.366654,108.900069 32.0500205,119.749961 27.95,127.65 C23.8499795,135.55004 18.633365,139.5 12.3,139.5 C8.899983,139.5 6.133344,138.45001 4,136.35 C1.866656,134.249989 0.8,131.500017 0.8,128.1 C0.8,123.366643 2.666648,118.283361 6.4,112.85 C10.133352,107.41664 17.133282,100.733373 27.4,92.8 L28,88.9 C26.866661,90.700009 25.3833425,92.0833285 23.55,93.05 C21.7166575,94.0166715 19.900009,94.5 18.1,94.5 C13.966646,94.5 10.666679,93.000015 8.2,90 C5.733321,86.999985 4.5,83.066691 4.5,78.2 C4.5,72.86664 5.733321,67.8166905 8.2,63.05 C10.666679,58.2833095 13.9499795,54.4500145 18.05,51.55 C22.1500205,48.6499855 26.499977,47.2 31.1,47.2 C32.566674,47.2 33.5499975,47.4833305 34.05,48.05 C34.5500025,48.6166695 34.966665,49.633326 35.3,51.1 C36.566673,50.833332 38.033325,50.7 39.7,50.7 C41.366675,50.7 42.5499965,50.9499975 43.25,51.45 C43.9500035,51.9500025 44.3,52.933326 44.3,54.4 C44.3,55.200004 44.266667,55.833331 44.2,56.3 C43.933332,58.366677 43.100007,63.599958 41.7,72 C41.433332,73.600008 41.1500015,75.3499905 40.85,77.25 C40.5499985,79.1500095 40.233335,81.166656 39.9,83.3 C44.8530444,79.4404848 49.6198227,76.0154794 54.2004678,73.0248883 C54.2247096,68.49123 55.191211,64.2663084 57.1,60.35 C59.033343,56.3833135 61.7166495,53.233345 65.15,50.9 C68.5833505,48.566655 72.466645,47.4 76.8,47.4 C80.666686,47.4 83.766655,48.5499885 86.1,50.85 C88.433345,53.1500115 89.6,56.266647 89.6,60.2 C89.6,64.800023 87.9500165,68.7499835 84.65,72.05 C81.3499835,75.3500165 75.766706,77.966657 67.9,79.9 C69.566675,82.966682 72.73331,84.5 77.4,84.5 C80.400015,84.5 83.8166475,83.4500105 87.65,81.35 C90.5918472,79.7383794 93.2293697,77.7439598 95.5626126,75.3667041 C95.5208708,74.7520601 95.5,74.1298255 95.5,73.5 C95.5,68.433308 96.466657,63.9166865 98.4,59.95 C100.333343,55.9833135 102.999983,52.8833445 106.4,50.65 C109.800017,48.4166555 113.566646,47.3 117.7,47.3 C122.766692,47.3 126.849985,49.0499825 129.95,52.55 C133.050016,56.0500175 134.866664,60.366641 135.4,65.5 C138.09121,65.3282206 141.225,64.8121885 144.801439,63.9518909 C144.845717,55.5030859 145.911894,46.3358766 148,36.45 C150.133344,26.3499495 153.24998,17.7500355 157.35,10.65 C161.450021,3.5499645 166.333305,0 172,0 C175.066682,0 177.533324,1.3166535 179.4,3.95 C181.266676,6.5833465 182.2,9.999979 182.2,14.2 C182.2,19.666694 181.166677,25.099973 179.1,30.5 C177.033323,35.900027 173.600024,41.566637 168.8,47.5 C173.266689,47.833335 176.899986,49.6833165 179.7,53.05 C182.500014,56.4166835 184.166664,60.566642 184.7,65.5 C187.575427,65.3164621 190.956098,64.7399292 194.842098,63.770386 C195.514661,60.341834 196.467289,56.7517283 197.7,53 C198.36667,50.99999 199.299994,49.566671 200.5,48.7 C201.700006,47.833329 203.599987,47.4 206.2,47.4 C207.666674,47.4 208.683331,47.633331 209.25,48.1 C209.81667,48.566669 210.1,49.266662 210.1,50.2 C210.1,50.733336 209.733337,52.533318 209,55.6 C208.33333,58.066679 207.800002,60.29999 207.4,62.3 C206.06666,69.300035 205.4,73.966655 205.4,76.3 C205.4,77.700007 205.566665,78.6833305 205.9,79.25 C206.233335,79.8166695 206.766663,80.1 207.5,80.1 C208.500005,80.1 209.749993,79.10001 211.25,77.1 C212.750008,75.09999 214.349992,72.066687 216.05,68 C217.750009,63.933313 219.399992,58.933363 221,53 C221.533336,50.99999 222.349995,49.566671 223.45,48.7 C224.550006,47.833329 226.199989,47.4 228.4,47.4 C229.933341,47.4 230.999997,47.5833315 231.6,47.95 C232.200003,48.3166685 232.5,48.999995 232.5,50 C232.5,51.666675 231.666675,56.233296 230,63.7 C228.133324,72.233376 227.2,77.49999 227.2,79.5 C227.2,80.766673 227.466664,81.7499965 228,82.45 C228.533336,83.1500035 229.233329,83.5 230.1,83.5 C231.43334,83.5 233.016658,82.6833415 234.85,81.05 C236.623193,79.4702466 238.97322,76.939476 241.900148,73.4576163 C242.239199,66.3359223 243.439143,59.5167649 245.5,53 C246.100003,51.066657 247.083327,49.6500045 248.45,48.75 C249.816674,47.8499955 251.733321,47.4 254.2,47.4 C255.53334,47.4 256.466664,47.566665 257,47.9 C257.533336,48.233335 257.8,48.866662 257.8,49.8 C257.8,50.866672 257.300005,53.266648 256.3,57 C255.63333,59.66668 255.100002,61.9833235 254.7,63.95 C254.299998,65.9166765 253.966668,68.366652 253.7,71.3 C255.500009,66.099974 257.649988,61.700018 260.15,58.1 C262.650013,54.499982 265.216654,51.8166755 267.85,50.05 C270.483347,48.2833245 272.966655,47.4 275.3,47.4 C277.633345,47.4 279.283329,47.933328 280.25,49 C281.216672,50.066672 281.7,51.699989 281.7,53.9 C281.7,56.033344 281.066673,59.899972 279.8,65.5 C279.266664,67.900012 278.900001,69.699994 278.7,70.9 C282.03335,62.699959 285.733313,56.733352 289.8,53 C293.866687,49.266648 297.666649,47.4 301.2,47.4 C305.533355,47.4 307.7,49.566645 307.7,53.9 C307.7,56.500013 306.966674,61.199966 305.5,68 C304.233327,73.800029 303.6,77.633324 303.6,79.5 C303.6,82.16668 304.566657,83.5 306.5,83.5 C307.83334,83.5 309.416658,82.6833415 311.25,81.05 C313.083343,79.4166585 315.533318,76.766685 318.6,73.1 C318.947657,72.6943997 319.314197,72.3769316 319.699622,72.1475943 Z M21.7,84.4 C23.233341,84.4 24.699993,83.466676 26.1,81.6 C27.500007,79.733324 28.499997,77.066684 29.1,73.6 L32.3,56.5 C29.566653,56.566667 27.033345,57.6166565 24.7,59.65 C22.366655,61.6833435 20.500007,64.36665 19.1,67.7 C17.699993,71.03335 17,74.566648 17,78.3 C17,80.366677 17.4166625,81.899995 18.25,82.9 C19.0833375,83.900005 20.233326,84.4 21.7,84.4 Z M13.4,129.8 C15.066675,129.8 16.9499895,127.80002 19.05,123.8 C21.1500105,119.79998 23.166657,113.433377 25.1,104.7 C19.966641,109.100022 16.266678,113.066649 14,116.6 C11.733322,120.133351 10.6,123.23332 10.6,125.9 C10.6,127.033339 10.8166645,127.966663 11.25,128.7 C11.6833355,129.433337 12.399995,129.8 13.4,129.8 Z M75.1,57.2 C72.633321,57.2 70.5500085,58.633319 68.85,61.5 C67.1499915,64.366681 66.3,67.833313 66.3,71.9 L66.3,72.1 C70.233353,71.166662 73.333322,69.766676 75.6,67.9 C77.866678,66.033324 79,63.866679 79,61.4 C79,60.133327 78.6500035,59.1166705 77.95,58.35 C77.2499965,57.5833295 76.300006,57.2 75.1,57.2 Z M115.2,83.9 C117.333344,83.9 119.183326,83.033342 120.75,81.3 C122.316675,79.566658 123.366664,77.066683 123.9,73.8 C121.833323,72.399993 120.250006,70.566678 119.15,68.3 C118.049995,66.033322 117.5,63.633346 117.5,61.1 C117.5,60.033328 117.599999,58.966672 117.8,57.9 L117.3,57.9 C114.63332,57.9 112.416676,59.1833205 110.65,61.75 C108.883325,64.3166795 108,67.93331 108,72.6 C108,76.266685 108.71666,79.066657 110.15,81 C111.583341,82.933343 113.266657,83.9 115.2,83.9 Z M169.7,9.9 C168.36666,9.9 166.916675,11.8833135 165.35,15.85 C163.783326,19.8166865 162.33334,25.199966 161,32 C159.66666,38.800034 158.66667,46.233293 158,54.3 C162.400022,46.233293 165.916654,39.1166975 168.55,32.95 C171.183347,26.7833025 172.5,21.300024 172.5,16.5 C172.5,14.366656 172.250003,12.733339 171.75,11.6 C171.249998,10.466661 170.566671,9.9 169.7,9.9 Z M164.5,83.9 C166.566677,83.9 168.399992,83.033342 170,81.3 C171.600008,79.566658 172.666664,77.066683 173.2,73.8 C171.133323,72.399993 169.550006,70.566678 168.45,68.3 C167.349995,66.033322 166.8,63.633346 166.8,61.1 C166.8,60.166662 166.933332,58.900008 167.2,57.3 L166.9,57.3 C164.166653,57.3 161.883343,58.6499865 160.05,61.35 C158.216658,64.0500135 157.3,67.666644 157.3,72.2 C157.3,76.000019 158.01666,78.89999 159.45,80.9 C160.883341,82.90001 162.566657,83.9 164.5,83.9 Z M331.8,84.9 C334.200012,84.366664 336.416657,83.0500105 338.45,80.95 C340.483344,78.8499895 342.099994,76.2500155 343.3,73.15 C344.500006,70.0499845 345.1,66.800017 345.1,63.4 C345.1,61.39999 344.700004,59.8833385 343.9,58.85 C343.099996,57.8166615 342.03334,57.3 340.7,57.3 C338.299988,57.3 335.400017,59.833308 332,64.9 C331.933333,67.833348 331.9,72.133305 331.9,77.8 C331.9,80.866682 331.866667,83.233325 331.8,84.9 Z M312.7,129.9 C314.500009,129.9 315.999994,125.983372 317.2,118.15 C318.400006,110.316627 319.166665,100.566725 319.5,88.9 C316.633319,95.5667 314.366675,101.933303 312.7,108 C311.033325,114.066697 310.2,119.166646 310.2,123.3 C310.2,125.433344 310.449998,127.066661 310.95,128.2 C311.450003,129.333339 312.03333,129.9 312.7,129.9 Z" id="geobump"></path>
        </g>
    </g>
</svg>