<!--?xml version="1.0" encoding="UTF-8"?-->
<svg width="628px" height="628px" viewBox="0 0 628 628" version="1.1" xmlns="http://www.w3.org/2000/svg" xmlns:xlink="http://www.w3.org/1999/xlink" style="">
    <!-- Generator: Sketch 52.5 (67469) - http://www.bohemiancoding.com/sketch -->
    <title>logo-square</title>
    <desc>Created with Sketch.</desc>
    <defs>
        <path id="path-1" d="M0.0945230769,0.2752875L23.7810462,0.2752875L23.7810462,24L0.0945230769,24Z" class="TEHOTFYb_0"></path>
    </defs>
    <g id="logo-square" stroke="none" stroke-width="1" fill="none" fill-rule="evenodd">
        <g id="Group-2" transform="translate(134.000000, 90.000000)">
            <path d="M319.699622,381.147594 C319.694079,372.083985 319.627538,365.734846 319.5,362.1 C319.433333,360.166657 320.199992,358.633339 321.8,357.5 C323.400008,356.366661 325.399988,355.8 327.8,355.8 C329.200007,355.8 330.216664,356.08333 330.85,356.65 C331.483337,357.216669 331.833333,358.333325 331.9,360 C331.9,361.666675 331.933333,362.899996 332,363.7 C334.133344,361.03332 336.233323,359.116672 338.3,357.95 C340.366677,356.783327 342.566655,356.2 344.9,356.2 C348.633352,356.2 351.683322,357.699985 354.05,360.7 C356.416679,363.700015 357.6,367.633309 357.6,372.5 C357.6,377.766693 356.383346,382.749977 353.95,387.45 C351.516655,392.150023 348.283354,395.966652 344.25,398.9 C340.216647,401.833348 335.900023,403.366666 331.3,403.5 C330.433329,416.366731 328.466682,427.116624 325.4,435.75 C322.333318,444.383376 317.833363,448.7 311.9,448.7 C308.299982,448.7 305.633342,447.400013 303.9,444.8 C302.166658,442.199987 301.3,438.600023 301.3,434 C301.3,427.466634 302.799985,419.850043 305.8,411.15 C306.813434,408.211041 308.013249,405.171297 309.399451,402.030755 C307.027431,403.010255 304.460958,403.5 301.7,403.5 C298.299983,403.5 295.733342,402.516677 294,400.55 C292.266658,398.583324 291.4,395.733352 291.4,392 C291.4,390.133324 291.866662,386.800024 292.8,382 C293.666671,377.799979 294.1,374.900008 294.1,373.3 C294.1,372.233328 293.733337,371.7 293,371.7 C292.133329,371.7 290.900008,372.816656 289.3,375.05 C287.699992,377.283345 286.100008,380.233315 284.5,383.9 C282.899992,387.566685 281.600005,391.433313 280.6,395.5 C279.866663,398.700016 279.016671,400.833328 278.05,401.9 C277.083328,402.966672 275.533344,403.5 273.4,403.5 C271.199989,403.5 269.550005,402.450011 268.45,400.35 C267.349994,398.24999 266.8,395.700015 266.8,392.7 C266.8,390.166654 267.13333,386.500024 267.8,381.7 C268.333336,377.433312 268.6,374.63334 268.6,373.3 C268.6,372.233328 268.233337,371.7 267.5,371.7 C266.499995,371.7 265.233341,372.899988 263.7,375.3 C262.166659,377.700012 260.68334,380.766648 259.25,384.5 C257.816659,388.233352 256.666671,391.899982 255.8,395.5 C255.066663,398.633349 254.216671,400.749995 253.25,401.85 C252.283328,402.950006 250.766677,403.5 248.7,403.5 C246.166654,403.5 244.383338,402.16668 243.35,399.5 C242.914314,398.375649 242.570479,396.966874 242.318492,395.273665 C240.475458,397.115682 238.552634,398.724453 236.55,400.1 C233.249983,402.366678 229.500021,403.5 225.3,403.5 C222.099984,403.5 219.750007,402.266679 218.25,399.8 C216.749992,397.333321 216,393.866689 216,389.4 C214.866661,393.933356 213.166678,397.416655 210.9,399.85 C208.633322,402.283346 206.200013,403.5 203.6,403.5 C200.599985,403.5 198.150009,402.116681 196.25,399.35 C194.34999,396.58332 193.4,393.133354 193.4,389 C193.4,387.164769 193.444907,385.385681 193.534721,383.662731 C190.525491,384.411999 187.313933,384.857753 183.9,385 C182.56666,390.533361 180.050018,394.999983 176.35,398.4 C172.649981,401.800017 168.566689,403.5 164.1,403.5 C157.366633,403.5 152.466682,400.933359 149.4,395.8 C147.466379,392.563287 146.142366,388.41222 145.427949,383.346744 C142.078543,384.2877 138.46925,384.838781 134.6,385 C133.333327,390.600028 130.833352,395.083317 127.1,398.45 C123.366648,401.816683 119.133357,403.5 114.4,403.5 C110.39998,403.5 106.983347,402.533343 104.15,400.6 C101.74466,398.958709 99.8318233,396.861003 98.4114491,394.306832 C96.3119377,396.208819 93.7581318,398.006533 90.75,399.7 C86.2499775,402.233346 81.433359,403.5 76.3,403.5 C69.299965,403.5 63.866686,401.600019 60,397.8 C58.2636589,396.093596 56.9171769,394.1049 55.9605488,391.833898 C50.7056507,395.381471 46.8188365,398.036814 44.3,399.8 L37.9,404.1 C35.366654,417.900069 32.0500205,428.749961 27.95,436.65 C23.8499795,444.55004 18.633365,448.5 12.3,448.5 C8.899983,448.5 6.133344,447.45001 4,445.35 C1.866656,443.249989 0.8,440.500017 0.8,437.1 C0.8,432.366643 2.666648,427.283361 6.4,421.85 C10.133352,416.416639 17.133282,409.733373 27.4,401.8 L28,397.9 C26.866661,399.700009 25.3833425,401.083328 23.55,402.05 C21.7166575,403.016672 19.900009,403.5 18.1,403.5 C13.966646,403.5 10.666679,402.000015 8.2,399 C5.733321,395.999985 4.5,392.066691 4.5,387.2 C4.5,381.86664 5.733321,376.816691 8.2,372.05 C10.666679,367.283309 13.9499795,363.450015 18.05,360.55 C22.1500205,357.649985 26.499977,356.2 31.1,356.2 C32.566674,356.2 33.5499975,356.48333 34.05,357.05 C34.5500025,357.61667 34.966665,358.633326 35.3,360.1 C36.566673,359.833332 38.033325,359.7 39.7,359.7 C41.366675,359.7 42.5499965,359.949997 43.25,360.45 C43.9500035,360.950002 44.3,361.933326 44.3,363.4 C44.3,364.200004 44.266667,364.833331 44.2,365.3 C43.933332,367.366677 43.100007,372.599958 41.7,381 C41.433332,382.600008 41.1500015,384.34999 40.85,386.25 C40.5499985,388.15001 40.233335,390.166656 39.9,392.3 C44.8530444,388.440485 49.6198227,385.015479 54.2004678,382.024888 C54.2247096,377.49123 55.191211,373.266308 57.1,369.35 C59.033343,365.383314 61.7166495,362.233345 65.15,359.9 C68.5833505,357.566655 72.466645,356.4 76.8,356.4 C80.666686,356.4 83.766655,357.549989 86.1,359.85 C88.433345,362.150012 89.6,365.266647 89.6,369.2 C89.6,373.800023 87.9500165,377.749984 84.65,381.05 C81.3499835,384.350017 75.766706,386.966657 67.9,388.9 C69.566675,391.966682 72.73331,393.5 77.4,393.5 C80.400015,393.5 83.8166475,392.450011 87.65,390.35 C90.5918472,388.738379 93.2293697,386.74396 95.5626126,384.366704 C95.5208708,383.75206 95.5,383.129826 95.5,382.5 C95.5,377.433308 96.466657,372.916686 98.4,368.95 C100.333343,364.983314 102.999983,361.883345 106.4,359.65 C109.800017,357.416655 113.566646,356.3 117.7,356.3 C122.766692,356.3 126.849984,358.049982 129.95,361.55 C133.050015,365.050017 134.866664,369.366641 135.4,374.5 C138.09121,374.328221 141.225,373.812188 144.801439,372.951891 C144.845717,364.503086 145.911894,355.335877 148,345.45 C150.133344,335.349949 153.249979,326.750035 157.35,319.65 C161.45002,312.549964 166.333305,309 172,309 C175.066682,309 177.533324,310.316654 179.4,312.95 C181.266676,315.583346 182.2,318.999979 182.2,323.2 C182.2,328.666694 181.166677,334.099973 179.1,339.5 C177.033323,344.900027 173.600024,350.566637 168.8,356.5 C173.266689,356.833335 176.899986,358.683316 179.7,362.05 C182.500014,365.416683 184.166664,369.566642 184.7,374.5 C187.575427,374.316462 190.956098,373.739929 194.842098,372.770386 C195.514661,369.341834 196.467289,365.751728 197.7,362 C198.36667,359.99999 199.299994,358.566671 200.5,357.7 C201.700006,356.833329 203.599987,356.4 206.2,356.4 C207.666674,356.4 208.68333,356.633331 209.25,357.1 C209.816669,357.566669 210.1,358.266662 210.1,359.2 C210.1,359.733336 209.733337,361.533318 209,364.6 C208.33333,367.066679 207.800002,369.29999 207.4,371.3 C206.06666,378.300035 205.4,382.966655 205.4,385.3 C205.4,386.700007 205.566665,387.683331 205.9,388.25 C206.233335,388.81667 206.766663,389.1 207.5,389.1 C208.500005,389.1 209.749992,388.10001 211.25,386.1 C212.750007,384.09999 214.349991,381.066687 216.05,377 C217.750008,372.933313 219.399992,367.933363 221,362 C221.533336,359.99999 222.349994,358.566671 223.45,357.7 C224.550005,356.833329 226.199989,356.4 228.4,356.4 C229.933341,356.4 230.999997,356.583332 231.6,356.95 C232.200003,357.316669 232.5,357.999995 232.5,359 C232.5,360.666675 231.666675,365.233296 230,372.7 C228.133324,381.233376 227.2,386.49999 227.2,388.5 C227.2,389.766673 227.466664,390.749997 228,391.45 C228.533336,392.150004 229.233329,392.5 230.1,392.5 C231.43334,392.5 233.016657,391.683342 234.85,390.05 C236.623193,388.470247 238.97322,385.939476 241.900148,382.457616 C242.239199,375.335922 243.439143,368.516765 245.5,362 C246.100003,360.066657 247.083326,358.650005 248.45,357.75 C249.816673,356.849996 251.733321,356.4 254.2,356.4 C255.53334,356.4 256.466664,356.566665 257,356.9 C257.533336,357.233335 257.8,357.866662 257.8,358.8 C257.8,359.866672 257.300005,362.266648 256.3,366 C255.63333,368.66668 255.100002,370.983324 254.7,372.95 C254.299998,374.916677 253.966668,377.366652 253.7,380.3 C255.500009,375.099974 257.649987,370.700018 260.15,367.1 C262.650012,363.499982 265.216653,360.816676 267.85,359.05 C270.483346,357.283325 272.966655,356.4 275.3,356.4 C277.633345,356.4 279.283328,356.933328 280.25,358 C281.216671,359.066672 281.7,360.699989 281.7,362.9 C281.7,365.033344 281.066673,368.899972 279.8,374.5 C279.266664,376.900012 278.900001,378.699994 278.7,379.9 C282.03335,371.699959 285.733313,365.733352 289.8,362 C293.866687,358.266648 297.666649,356.4 301.2,356.4 C305.533355,356.4 307.7,358.566645 307.7,362.9 C307.7,365.500013 306.966674,370.199966 305.5,377 C304.233327,382.800029 303.6,386.633324 303.6,388.5 C303.6,391.16668 304.566657,392.5 306.5,392.5 C307.83334,392.5 309.416657,391.683342 311.25,390.05 C313.083342,388.416659 315.533318,385.766685 318.6,382.1 C318.947657,381.6944 319.314197,381.376932 319.699622,381.147594 Z M21.7,393.4 C23.233341,393.4 24.699993,392.466676 26.1,390.6 C27.500007,388.733324 28.499997,386.066684 29.1,382.6 L32.3,365.5 C29.566653,365.566667 27.033345,366.616656 24.7,368.65 C22.366655,370.683343 20.500007,373.36665 19.1,376.7 C17.699993,380.03335 17,383.566648 17,387.3 C17,389.366677 17.4166625,390.899995 18.25,391.9 C19.0833375,392.900005 20.233326,393.4 21.7,393.4 Z M13.4,438.8 C15.066675,438.8 16.9499895,436.80002 19.05,432.8 C21.1500105,428.79998 23.166657,422.433377 25.1,413.7 C19.966641,418.100022 16.266678,422.066649 14,425.6 C11.733322,429.133351 10.6,432.23332 10.6,434.9 C10.6,436.033339 10.8166645,436.966663 11.25,437.7 C11.6833355,438.433337 12.399995,438.8 13.4,438.8 Z M75.1,366.2 C72.633321,366.2 70.5500085,367.633319 68.85,370.5 C67.1499915,373.366681 66.3,376.833313 66.3,380.9 L66.3,381.1 C70.233353,380.166662 73.333322,378.766676 75.6,376.9 C77.866678,375.033324 79,372.866679 79,370.4 C79,369.133327 78.6500035,368.11667 77.95,367.35 C77.2499965,366.583329 76.300006,366.2 75.1,366.2 Z M115.2,392.9 C117.333344,392.9 119.183325,392.033342 120.75,390.3 C122.316674,388.566658 123.366664,386.066683 123.9,382.8 C121.833323,381.399993 120.250005,379.566678 119.15,377.3 C118.049994,375.033322 117.5,372.633346 117.5,370.1 C117.5,369.033328 117.599999,367.966672 117.8,366.9 L117.3,366.9 C114.63332,366.9 112.416675,368.183321 110.65,370.75 C108.883324,373.316679 108,376.93331 108,381.6 C108,385.266685 108.716659,388.066657 110.15,390 C111.58334,391.933343 113.266657,392.9 115.2,392.9 Z M169.7,318.9 C168.36666,318.9 166.916674,320.883313 165.35,324.85 C163.783325,328.816687 162.33334,334.199966 161,341 C159.66666,347.800034 158.66667,355.233293 158,363.3 C162.400022,355.233293 165.916653,348.116697 168.55,341.95 C171.183346,335.783302 172.5,330.300024 172.5,325.5 C172.5,323.366656 172.250002,321.733339 171.75,320.6 C171.249997,319.466661 170.566671,318.9 169.7,318.9 Z M164.5,392.9 C166.566677,392.9 168.399992,392.033342 170,390.3 C171.600008,388.566658 172.666664,386.066683 173.2,382.8 C171.133323,381.399993 169.550005,379.566678 168.45,377.3 C167.349994,375.033322 166.8,372.633346 166.8,370.1 C166.8,369.166662 166.933332,367.900008 167.2,366.3 L166.9,366.3 C164.166653,366.3 161.883342,367.649987 160.05,370.35 C158.216657,373.050013 157.3,376.666644 157.3,381.2 C157.3,385.000019 158.016659,387.89999 159.45,389.9 C160.88334,391.90001 162.566657,392.9 164.5,392.9 Z M331.8,393.9 C334.200012,393.366664 336.416656,392.05001 338.45,389.95 C340.483343,387.849989 342.099994,385.250016 343.3,382.15 C344.500006,379.049984 345.1,375.800017 345.1,372.4 C345.1,370.39999 344.700004,368.883339 343.9,367.85 C343.099996,366.816662 342.03334,366.3 340.7,366.3 C338.299988,366.3 335.400017,368.833308 332,373.9 C331.933333,376.833348 331.9,381.133305 331.9,386.8 C331.9,389.866682 331.866667,392.233325 331.8,393.9 Z M312.7,438.9 C314.500009,438.9 315.999994,434.983372 317.2,427.15 C318.400006,419.316627 319.166665,409.566725 319.5,397.9 C316.633319,404.5667 314.366675,410.933303 312.7,417 C311.033325,423.066697 310.2,428.166646 310.2,432.3 C310.2,434.433344 310.449998,436.066661 310.95,437.2 C311.450003,438.333339 312.03333,438.9 312.7,438.9 Z" id="bumpmap" fill="#000000" class="TEHOTFYb_1"></path>
            <g id="Group" transform="translate(37.000000, 0.000000)">
                <g id="continents" transform="translate(9.000000, 42.000000)">
                    <g id="Group-3" transform="translate(68.000000, 219.000000)">
                        <mask id="mask-2" fill="white">
                            <use xlink:href="#path-1"></use>
                        </mask>
                        <g id="Clip-2"></g>
                        <path d="M0.144369231,0.2752875 L0.0945230769,0.3266625 C0.290215385,0.4200375 0.485538462,0.5134125 0.681230769,0.6071625 C0.502153846,0.4965375 0.323076923,0.3859125 0.144369231,0.2752875" id="Fill-1" fill="#000000" mask="url(#mask-2)" class="TEHOTFYb_2"></path>
                    </g>
                    <path d="M97.7507149,180.868551 C98.4431891,180.03149 99.0394049,179.682441 99.5807206,179.682441 C99.9566037,179.682441 100.305769,179.850218 100.643588,180.138721 C100.305769,179.850218 99.9562377,179.682806 99.5807206,179.682806 C99.0390389,179.682806 98.4431891,180.03149 97.7507149,180.868551 C97.7441269,180.876211 97.7375389,180.884599 97.7309509,180.892624 C97.7375389,180.884599 97.7441269,180.876211 97.7507149,180.868551 M30.8014229,141 C30.5635222,141 30.3805216,141.183096 30.2945114,141.713052 C29.7810118,144.881849 27.1373856,147.597647 28.2866292,151.07902 C30.2041091,153.103285 30.175561,155.631247 29.7246476,158.047965 C29.2755642,160.458117 28.1054586,162.780734 29.9984164,165.057395 C31.792188,169.962318 34.6964069,174.028722 39.0811004,176.974302 C41.9900773,182.201284 46.3041326,185.98502 51.5547848,188.695347 C54.4421677,190.185644 56.4822579,192.277386 58.1764772,195.053 C62.4678404,202.083585 67.6500503,208.464946 73.3706479,214.404616 C75.8693376,215.871935 78.5788439,217.072999 80.1372767,219.727158 C83.2929384,221.148521 85.8853244,224 89.6006018,224 C89.990759,224 90.3937263,223.968268 90.8109676,223.900063 C85.1752822,216.978534 85.1752822,216.978534 89.1881186,212.68782 C89.9504989,206.881642 88.1051212,199.954277 97.6072425,198.771814 C100.66811,198.390668 100.313821,193.658628 99.8735215,190.493843 C97.6515286,186.865484 101.669855,185.303334 102.479815,182.678354 C102.479449,182.677625 102.479083,182.676895 102.478717,182.676166 C102.505802,182.678719 102.53252,182.679813 102.55814,182.679813 C102.81251,182.679813 102.995877,182.556534 103.106043,182.307421 C103.970172,182.135267 104.383753,181.623912 104.297011,180.735789 C105.955728,177.854401 104.475986,176.554859 101.975832,175.124743 C95.6795145,171.523374 88.6178888,169.942258 81.7648837,168.769278 C76.8494886,167.928205 74.9085846,165.746375 73.4866703,161.846289 C62.3734121,155.568877 52.1572226,147.533454 39.3603593,144.556872 C37.5021715,142.879832 35.2201545,142.243373 32.8129651,141.910372 C32.7946651,141.912196 32.776365,141.912926 32.7576989,141.912926 C32.139889,141.912926 31.3328566,141 30.8014229,141" id="Fill-4" stroke="#000000" fill="#000000" class="TEHOTFYb_3"></path>
                    <path d="M231,28 C231.189399,28.9402062 231.600042,29.7538462 233,30 C232.333752,29.3335448 231.666667,28.6667724 231,28" id="Fill-6" stroke="#000000" fill="#000000" class="TEHOTFYb_4"></path>
                    <path d="M235,164 C228.894363,167.614939 227.038187,174.198822 224,180 C228.998451,175.647426 232.099609,169.937889 235,164 Z" id="Fill-8" stroke="#000000" fill="#000000" class="TEHOTFYb_5"></path>
                    <path d="M153.727892,32 C153.348482,32 152.999161,32.262641 152.767259,33.0575143 C152.264559,34.7804103 151.602244,35.3309322 150.865073,35.3309322 C149.816009,35.3309322 148.615401,34.2163539 147.506159,33.7792285 C148.038214,36.1137342 145.705614,37.0007879 145,38.7097836 C147.166745,39.0689946 144.791581,42.7690143 147.012266,42.7690143 C147.213346,42.7690143 147.451853,42.7390191 147.735126,42.6731759 C149.516958,42.2587298 152.648739,42.2291004 151.873408,38.7474605 C151.425748,36.7352205 152.038895,35.7812263 153.5092,35.7812263 C153.863658,35.7812263 154.268386,35.8368271 154.719715,35.9465657 C157.447869,36.6082895 156.45201,37.9664875 155.715207,39.8408228 C154.936206,41.8227018 154.870525,44.3177917 157.97919,45 C160.347382,43.1428571 164.457776,45.2999522 166,41.5403078 C163.311841,37.4686401 158.876343,35.5211458 155.143157,32.7272011 C154.746134,32.4298095 154.212612,32 153.727892,32" id="Fill-10" stroke="#000000" fill="#000000" class="TEHOTFYb_6"></path>
                    <path d="M228.974727,87.2672876 C231.400414,90.9584424 233.528641,94.0850849 234.346344,97.8619124 C234.345608,97.8630125 234.344873,97.864846 234.343769,97.8663128 C236.276476,102.93013 236.9646,108.600108 241.439799,113.219113 C243.409652,105.760352 238.166887,100.781977 237.357761,94.7742639 C234.596069,92.4981317 235.066098,86.6660698 229.338961,86.6660698 C229.329282,86.6660698 229.319585,86.6660866 229.30987,86.6661201 C233.711328,78.7668145 237.698593,71.4474949 241.271666,64.7081613 C241.45277,64.7532553 241.642562,64.7771361 241.838845,64.7771361 C241.960949,64.7771361 242.085996,64.7679685 242.212514,64.7488999 C243.575522,64.5424455 243.492771,63.1038653 243.212887,62.0565585 C243.152994,61.832417 243.089323,61.6102202 243.022098,61.3898522 C244.215747,59.115169 245.359385,56.9105155 246.453011,54.7758919 C250.355248,64.0297261 252.900441,73.7945894 254,84.1035417 C253.319231,84.3551007 252.710916,84.4669454 252.15924,84.4669454 C249.959154,84.4669454 248.655359,82.6851303 247.205921,80.8633443 C246.302275,79.7272951 245.494989,79.1383683 244.856883,79.1383683 C244.036724,79.1383683 243.496081,80.1119677 243.38832,82.150109 C246.116544,83.3319963 246.549426,86.3224681 248.152598,88.3826117 C248.69177,89.0753157 249.13164,89.306706 249.527375,89.306706 C250.178354,89.306706 250.710537,88.6825756 251.367768,88.4533856 C255.979047,98.5879864 250.201524,106.512462 245.333531,114.336094 C243.719694,116.929792 244.251142,117.711605 246.147438,118.991769 C246.281311,119.029172 246.423644,119.042374 246.570022,119.042374 C246.900292,119.042374 247.25263,118.975634 247.5829,118.975634 C248.071317,118.975634 248.511923,119.121582 248.764223,119.843256 C247.952523,120.023674 247.141191,120.204092 246.329491,120.384511 C245.971637,121.971606 247.000697,123.114256 247.620414,124.388186 C245.001054,131.930189 240.588379,138.482091 235.970111,144.875943 C233.519197,148.26869 231.66299,151.962133 231.404805,155.98121 C230.930731,163.354162 226.167557,167.9673 221.920752,173.186232 C215.289234,181.334031 208.823218,189.551502 199.784184,195.275387 C198.478918,196.101571 197.466408,197.193982 195.823147,197.684266 C193.106693,198.495048 191.275863,199 190.062175,199 C187.748076,199 187.677829,197.163913 187.992285,192.10853 C187.568597,183.512253 191.210029,175.314216 190.534042,166.659266 C190.464163,165.768542 192.066599,164.748371 192.89301,163.787973 C195.473017,160.169337 192.659835,156.530899 192.933099,152.903829 L192.933099,152.903463 C188.770516,151.175186 187.608318,148.522449 189.447607,144.15757 C190.688511,141.212203 190.900723,137.895731 186.024271,137.769218 C186.002939,137.5932 185.974988,137.430384 185.941152,137.278201 C185.974988,137.430384 186.002939,137.5932 186.024271,137.769218 C185.354904,137.877029 184.680019,137.994374 184.068026,137.994374 C182.842937,137.994374 181.870148,137.522426 181.701335,135.550658 C180.625198,135.495653 179.607171,135.335403 179.158474,134.130047 C178.309996,134.134447 177.461517,134.138481 176.612671,134.143248 C173.9786,138.264269 169.484276,137.398847 165.619231,138.219897 C164.974506,138.098518 164.338239,138.04718 163.708224,138.04718 C160.192574,138.04718 156.872218,139.652977 153.363188,139.709083 C152.788709,139.362547 152.213127,139.016379 151.637912,138.67021 C151.637912,138.67021 151.160528,138.443954 151.149862,138.443954 C151.149862,138.443954 151.149862,138.44432 151.149495,138.44432 C150.009731,136.867493 148.263859,136.321104 146.530492,135.754179 C146.261642,135.373174 145.893857,135.170386 145.427139,135.145084 C144.570569,133.73804 142.4856,133.259491 142.450661,131.231618 C141.601079,130.736567 140.75113,130.24115 139.901548,129.746466 C139.368629,127.506638 137.840853,126.500402 135.640032,126.329884 C131.311578,120.694742 137.072184,115.123774 135.748528,109.506967 C133.899676,107.597172 133.916594,105.697279 135.355367,103.449383 C138.380024,98.7255005 141.095376,93.7412585 145.814416,90.4372547 C150.196198,87.3701417 149.99502,81.013693 154.82366,78.3484877 C156.315025,77.3789221 156.84868,76.4445601 154.723622,75.6070079 C153.826596,75.1706301 152.929938,74.7346189 152.032912,74.2986078 C147.012289,69.7085727 149.216788,64.6858268 151.150598,59.6810494 C151.766269,60.7367905 152.415776,61.0811256 153.083304,61.0811256 C154.334139,61.0811256 155.644922,59.8702687 156.896492,59.8702687 C157.11422,59.8702687 157.329374,59.9069391 157.543056,59.9923812 C158.462517,59.9744127 159.382346,59.9560775 160.301071,59.9384757 C160.82075,59.971479 161.469154,60.5215352 161.981109,60.5215352 C162.341538,60.5215352 162.634294,60.2483406 162.766329,59.3290135 C163.99105,55.4489175 162.621422,52.811215 158.910478,51.2710578 C157.644933,50.7459376 155.081109,50.828446 157.481637,48.4437693 C157.881418,48.4888739 158.267959,48.5105095 158.641996,48.5105095 C162.918591,48.5105095 165.552295,45.6667192 167.956501,42.4261552 C168.000635,42.4342227 168.04293,42.4382565 168.083386,42.4382565 C168.289345,42.4382565 168.439401,42.332279 168.532083,42.1192239 C172.937035,38.7671818 177.095572,35.5988585 183.175782,35.5988585 C183.606457,35.5988585 184.04743,35.6149935 184.497966,35.6479969 C184.970569,35.682467 185.48988,35.7074029 186.033833,35.7074029 C186.257767,35.7074029 186.485793,35.7031675 186.716305,35.6936163 C187.154821,36.8346351 187.600893,37.9670636 188.054518,39.0909017 C186.600901,41.9933681 187.680614,46.3092611 187.418173,49.8658478 C187.35234,50.7558386 187.425529,51.6557304 187.43362,52.5508551 C189.770175,52.6441734 192.266054,52.4300359 194.29668,53.1127571 C195.018642,54.6098899 195.783394,56.1670341 196.590933,57.7841819 C195.220282,57.3933185 194.016067,56.6928753 193.098969,55.4063798 C192.609816,54.7202765 191.979802,54.4661505 191.368176,54.4661505 C190.66387,54.4661505 189.983469,54.8035183 189.569344,55.2065261 C188.137559,56.6011018 190.18906,57.2633693 190.763539,58.2630047 C192.513616,61.3081346 196.391414,60.9650516 199.024774,62.5876723 C199.472391,63.4593381 199.930846,64.3462034 200.40014,65.2482684 C200.134425,65.5444799 199.868764,65.8405599 199.603234,66.1365082 C199.102312,66.5439164 198.599919,66.952058 198.098261,67.3601997 C197.260448,66.5736194 196.422268,65.7874059 195.58372,65.0004589 C192.826441,62.0642593 187.600962,62.5369408 185.954392,58.0675514 C185.46671,57.7485188 184.979764,57.4294863 184.492817,57.110087 C183.658682,56.950204 182.824915,56.7899544 181.991884,56.6297047 C180.46374,57.5739677 179.527729,59.6535466 177.507858,59.6535466 C177.190828,59.6535466 176.847318,59.6025747 176.470707,59.4877963 C175.183094,59.5989077 173.895849,59.7096523 172.608972,59.8207636 L172.608972,59.8211303 C169.927824,64.2094782 167.246677,68.597826 164.565529,72.9861738 C164.27167,74.2744053 164.522499,75.385152 165.625484,76.217937 C165.469911,76.7995296 165.227173,77.3066814 164.90904,77.6616509 C165.227173,77.3066814 165.469911,76.7995296 165.625484,76.217937 C166.555978,76.1412958 167.48684,76.0646546 168.417334,75.9880135 C168.825207,75.7925602 169.233448,75.5974736 169.64132,75.4020204 C170.695758,74.3415121 171.920479,74.0646505 173.20515,74.0646505 C173.849508,74.0646505 174.508945,74.1343243 175.169854,74.2098654 C176.985237,73.8376607 178.800252,73.4654561 180.616003,73.0932514 C180.047776,74.5116628 179.4082,75.5824388 178.634381,76.005982 C179.4082,75.5824388 180.047776,74.5116628 180.616371,73.0932514 C182.232783,73.0133099 184.023892,72.318039 185.617869,72.318039 C187.18132,72.318039 188.556098,72.9872739 189.3906,75.5626367 C188.304901,78.8065011 189.173608,80.8827797 192.833429,81.291288 C193.743327,80.8684782 194.57121,80.6917268 195.340982,80.6920935 C198.613527,80.6924602 200.824278,83.8868195 203.758829,84.9047901 C204.846367,85.7610441 205.933537,86.6172982 207.054176,87.5003216 C207.128836,87.5589943 207.203864,87.6180336 207.278524,87.677073 C207.203864,87.6180336 207.128836,87.5589943 207.054176,87.5003216 C205.933537,86.6172982 204.846367,85.7610441 203.758829,84.9044234 C204.167437,84.9960994 204.54037,85.0390038 204.88241,85.0390038 C207.150272,85.0390038 208.07357,83.165393 209.036548,81.3472384 C212.528449,87.6943536 216.403363,94.5786075 220.661289,102 C223.578385,96.8847253 226.349531,91.9738212 228.974727,87.2672876 Z M185.901431,137.137754 C185.876422,137.040944 185.85178,136.942667 185.821254,136.855758 C185.85178,136.942667 185.876054,137.040944 185.901431,137.137754 Z M185.759098,136.709443 C185.72894,136.637569 185.700989,136.562395 185.667152,136.497488 C185.700989,136.562395 185.72894,136.637569 185.759098,136.709443 Z M185.587343,136.366942 C185.552771,136.309369 185.520039,136.248863 185.481789,136.197524 C185.519671,136.248863 185.552771,136.309369 185.587343,136.366942 Z M185.385062,136.085313 C185.346077,136.040208 185.308931,135.99217 185.267371,135.952199 C185.308931,135.99217 185.346077,136.040208 185.385062,136.085313 Z M185.154461,135.85869 C185.112166,135.823853 185.071342,135.786082 185.02684,135.755646 C185.071342,135.786082 185.112166,135.823853 185.154461,135.85869 Z M184.899219,135.681572 C184.853614,135.655536 184.809479,135.626933 184.762035,135.604197 C184.809479,135.626933 184.853614,135.655536 184.899219,135.681572 Z M184.621174,135.548091 C184.572994,135.529023 184.525918,135.508487 184.476267,135.492719 C184.525918,135.508487 184.572994,135.529023 184.621174,135.548091 Z M184.321062,135.452382 C184.271411,135.439914 184.223231,135.425612 184.172109,135.416078 C184.223231,135.425612 184.271411,135.439914 184.321062,135.452382 Z M182.479934,135.388209 C182.494277,135.387108 182.508621,135.386375 182.522597,135.384908 C182.508621,135.386375 182.494277,135.387108 182.479934,135.388209 Z M184.001825,135.390042 C183.951807,135.383075 183.902523,135.374274 183.851769,135.369507 C183.902523,135.374274 183.951807,135.383075 184.001825,135.390042 Z M182.826019,135.362906 C182.863165,135.360339 182.900311,135.359239 182.93709,135.357772 C182.900311,135.359239 182.863165,135.360339 182.826019,135.362906 Z M183.666406,135.357039 C183.617123,135.354105 183.568208,135.349705 183.518557,135.348238 C183.568208,135.349705 183.617123,135.354105 183.666406,135.357039 Z M183.234627,135.347138 L183.230582,135.347138 L183.212192,135.347138 C183.200055,135.347138 183.187551,135.347504 183.175046,135.347871 C183.187551,135.347504 183.200055,135.347138 183.212192,135.347138 L183.230582,135.347138 L183.234627,135.347138 L183.295679,135.347138 L183.31223,135.347138 L183.295679,135.347138 L183.234627,135.347138 Z M171.155856,79.1541366 C171.123123,79.1570702 171.09039,79.1596371 171.059864,79.1600039 L171.049934,79.1600039 L171.037797,79.1600039 L171.049934,79.1600039 L171.059864,79.1600039 C171.09039,79.1596371 171.123123,79.1570702 171.155856,79.1541366 C171.175349,79.1526698 171.195209,79.1508362 171.214701,79.1490027 C171.195209,79.1508362 171.175349,79.1526698 171.155856,79.1541366 Z M170.944012,79.1493694 C170.89951,79.144969 170.852802,79.1435022 170.812345,79.1347013 C170.852802,79.1435022 170.89951,79.144969 170.944012,79.1493694 Z M171.298556,79.1438689 C171.364022,79.1347013 171.436843,79.1170995 171.508561,79.1002311 C171.436843,79.1170995 171.364022,79.1347013 171.298556,79.1438689 Z M170.621098,79.0727283 C170.653095,79.086663 170.689873,79.0950972 170.724077,79.1060984 C170.689873,79.0950972 170.653095,79.086663 170.621098,79.0727283 C170.619994,79.0723616 170.618891,79.0719949 170.617788,79.0712615 C170.618891,79.0719949 170.619994,79.0723616 170.621098,79.0727283 Z M170.543127,79.0276237 C170.512969,79.0100219 170.480236,78.994987 170.452652,78.9740849 C170.480236,78.994987 170.512969,79.0100219 170.543127,79.0276237 Z M171.596462,79.0822626 C171.703119,79.0536597 171.815661,79.017356 171.935926,78.9718847 C171.815661,79.017356 171.703119,79.0536597 171.596462,79.0822626 Z M170.39491,78.9212795 C170.367326,78.8967103 170.338271,78.8739747 170.313262,78.8464719 C170.338271,78.8739747 170.367326,78.8967103 170.39491,78.9212795 Z M170.266921,78.785599 C170.243015,78.7547958 170.218006,78.7258262 170.196675,78.6920894 C170.217638,78.7258262 170.243015,78.7547958 170.266921,78.785599 Z M170.157689,78.622049 C170.138197,78.5868454 170.117233,78.5527419 170.099212,78.5149714 C170.117233,78.5527419 170.138197,78.5868454 170.157689,78.622049 Z M170.069421,78.4419972 C170.052135,78.4009264 170.034114,78.3613223 170.018667,78.318418 C170.034114,78.3613223 170.052135,78.4009264 170.069421,78.4419972 Z M169.995864,78.2454439 C169.981153,78.1992391 169.965706,78.1541345 169.952098,78.106463 C169.965338,78.1541345 169.981153,78.1992391 169.995864,78.2454439 Z M169.936283,78.0426565 C169.922307,77.9898511 169.908699,77.9370457 169.895827,77.8824068 C169.908332,77.9370457 169.922307,77.9898511 169.936283,78.0426565 Z M169.884793,77.8296014 C169.871921,77.7701954 169.859416,77.7107893 169.847647,77.6502831 C169.859416,77.7107893 169.871921,77.7701954 169.884793,77.8296014 Z M169.832568,77.5703416 C169.835878,77.5901436 169.839924,77.6099457 169.843602,77.6301144 C169.839924,77.6099457 169.835878,77.5901436 169.832568,77.5703416 C169.810869,77.4570301 169.790641,77.3426184 169.770413,77.2293068 C169.790641,77.3426184 169.810869,77.4566634 169.832568,77.5703416 Z M169.761586,77.1801685 C169.755701,77.1471651 169.749081,77.1148952 169.743197,77.0818918 C169.749081,77.1148952 169.755701,77.1471651 169.761586,77.1801685 Z M172.744316,77.525237 C171.735484,77.3323507 170.726652,77.139831 169.717819,76.9473114 C170.726652,77.139831 171.735484,77.3323507 172.744316,77.525237 Z M178.086383,76.1911676 C178.023492,76.1996017 177.960233,76.205469 177.895503,76.2058357 L177.88925,76.2058357 L177.887779,76.2058357 L177.88925,76.2058357 L177.895503,76.2058357 C177.960233,76.205469 178.023492,76.1996017 178.086383,76.1911676 C178.088957,76.1908008 178.091164,76.1904341 178.093739,76.1900674 C178.091164,76.1904341 178.088957,76.1908008 178.086383,76.1911676 Z M178.350452,76.129928 C178.390908,76.1167266 178.430997,76.1013251 178.471085,76.0848234 C178.430997,76.1013251 178.390908,76.1167266 178.350452,76.129928 Z M174.436859,57.9989777 L174.435756,57.9989777 C174.429504,57.9989777 174.422884,57.9989777 174.416264,57.9989777 C174.409643,57.9993444 174.403023,57.9993444 174.396403,57.9997111 C174.403023,57.9993444 174.409643,57.9993444 174.416264,57.9989777 C174.422884,57.9989777 174.429504,57.9989777 174.435756,57.9989777 L174.436859,57.9989777 L174.447525,57.9989777 C174.6476,58.0008113 174.852088,58.0550835 175.060622,58.158494 C175.088573,58.1716954 175.115789,58.1859968 175.143373,58.2013984 C175.115789,58.1859968 175.088573,58.1716954 175.060622,58.158494 C174.852088,58.0550835 174.6476,58.0008113 174.447525,57.9989777 L174.436859,57.9989777 Z" id="Combined-Shape" stroke="#000000" fill="#000000" class="TEHOTFYb_7"></path>
                    <path d="M194.931475,69 C194.28745,69.4662087 193.643725,69.9324175 193,70.398183 C193.041095,70.379127 193.08609,70.3707068 193.133784,70.3707068 C193.544737,70.3707068 194.164465,71 194.575417,71 C194.914977,71 195.112354,70.5701307 194.931475,69" id="Fill-14" stroke="#000000" fill="#000000" class="TEHOTFYb_8"></path>
                    <path d="M193.342,70 C193.219,70.038 193.104,70.089 193,70.167 C193.114,70.111 193.228,70.056 193.342,70 Z" id="Fill-16" stroke="#000000" fill="#000000" class="TEHOTFYb_9"></path>
                    <path d="M73.356,55 L73.355,55.001 C73.247,55.02 73.138,55.037 73.029,55.056 C73.019,55.143 73.009,55.23 73,55.316 C73.103,55.276 73.197,55.235 73.292,55.194 C73.312,55.13 73.337,55.066 73.355,55.001 L73.356,55.001 L73.356,55 Z" id="Fill-18" stroke="#000000" fill="#000000" class="TEHOTFYb_10"></path>
                    <path d="M67.0152162,0 C66.7135106,0 66.3858598,0.0612096187 66.0255921,0.201481661 L66.115659,0.712290503 C65.9118039,0.632863736 65.7290755,0.594972067 65.5659914,0.594972067 C65.0863758,0.594972067 64.7735508,0.920694681 64.5767379,1.47340296 C64.1638386,1.58452757 63.7457502,1.67196988 63.3228434,1.7357299 C63.3228434,1.7357299 63.2316645,1.85195531 63.2316645,1.85195531 C62.2687269,3.6503522 61.3054187,5.44947778 60.342481,7.24896769 C61.0771009,8.07019675 62.1667994,8.18241438 63.2794778,8.18241438 C63.6960837,8.18241438 64.1163959,8.16674763 64.522253,8.16674763 C65.9236645,8.16674763 67.1560616,8.35365557 67.502986,10.0201603 C68.1134395,12.9498421 65.243159,15.4160797 63.8484191,18.0353413 C62.7012705,20.1893369 59.8143109,19.5470002 58,20.7792082 C60.0207605,22.3280301 64.4933426,21.3428467 63.5441189,25.9616225 C65.11751,26.6502308 66.4848222,27 67.6349359,27 C70.8232305,27 72.3465845,24.3140636 71.9870581,18.704275 C73.3465867,19.8089628 74.7602295,20.7690066 76.0715741,20.7690066 C76.8803231,20.7690066 77.6497836,20.4035706 78.3436325,19.4810542 C80.1379285,17.0953364 77.8521562,16.0314549 76.279877,14.7792082 C75.8451096,14.4330823 75.418867,13.3484333 75.6327295,13.0533155 C78.8788449,8.57153267 74.8258338,6.06120962 72.9170082,2.97741074 C72.6456956,3.06120962 72.3936565,3.09873694 72.1575551,3.09873694 C70.0126283,3.09873694 69.1601431,0 67.0152162,0 Z" id="Fill-20" stroke="#000000" fill="#000000" class="TEHOTFYb_11"></path>
                    <path d="M46.3780255,71.3756128 C46.3860324,71.2575538 46.3944033,71.1394948 46.4053219,71.0232577 C46.3944033,71.1394948 46.3860324,71.2575538 46.3780255,71.3756128 M50.6268002,4 C44.9877291,6.58162957 39.9287974,9.94594656 36.0188619,14.8596057 C35.5628301,15.0334147 35.3389997,15.3646358 35.3480985,15.8532689 C33.9148558,16.3244117 32.9754959,17.2827301 32.5256514,18.7231227 C24.6591945,25.9400254 19.5238329,35.1890732 14.4481594,44.3069443 C10.6852604,51.0661861 6.70435432,57.9893988 5.94369481,66.0374514 C3.92230583,70.821027 2.60261616,75.7871568 2.06505917,80.9569747 C2.01228614,81.8198257 1.95951311,82.6823122 1.90710404,83.5451631 C1.85724262,84.8565654 1.80774516,86.1679676 1.75788375,87.4793699 C-1.80520557,95.5671398 1.02452063,103.646165 1.79027547,111.728104 C5.28639763,119.361493 11.5583811,124.52038 17.7586661,129.758701 C18.6234158,130.489282 19.3389453,132 20.3343538,132 C20.7321533,132 21.1747188,131.759145 21.6893468,131.130955 C22.7408039,129.848338 22.6137847,126.767144 21.0091207,126.319322 C14.9551444,124.631151 16.7053892,120.299406 17.1585093,116.408561 C17.2866204,115.309227 17.9930511,114.14795 16.7123043,113.529962 C16.3425291,113.35178 16.0226154,113.271252 15.7405526,113.271252 C14.8401356,113.270888 14.3258715,114.09475 13.8105156,115.197727 C12.9166497,117.111085 12.0930265,117.844581 11.3633029,117.844581 C10.2936482,117.844581 9.4259868,116.267546 8.83420097,114.522532 C6.53511668,107.743249 6.00665849,100.964331 10.2488821,94.5906024 C17.1945406,94.9247385 25.0628172,93.873139 25.1366994,104.527599 C26.3490233,104.303505 25.995262,103.189597 26.3104444,102.455736 C26.1564927,98.2868692 25.3885542,93.9700639 29.1267043,90.7387455 L28.6961492,90.265052 C28.6961492,90.265052 28.6961492,90.265052 28.6961492,90.265052 C28.6961492,90.265052 29.1256125,90.7376524 29.1256125,90.7376524 C30.0052843,90.1972774 30.885684,89.6587243 31.7660837,89.1198069 C30.7699473,89.0677006 29.773083,89.0155943 28.7769466,88.9638524 C29.9656135,86.6609732 29.7439668,85.2810676 28.5596673,84.6703674 C29.7439668,85.2810676 29.9656135,86.6609732 28.7769466,88.9638524 C29.773083,89.0155943 30.7699473,89.0677006 31.7660837,89.1198069 C33.8973861,88.3243662 35.9344251,87.084018 35.5580988,84.5938477 C35.0602125,81.302771 37.8662819,81.0218343 39.3708591,79.5344367 C38.3554332,73.9357439 46.0315432,76.1052602 46.3543686,71.7024613 C46.3543686,71.7020969 46.3543686,71.7020969 46.3543686,71.7020969 C46.979274,70.9281546 47.6045434,70.154941 48.2294489,69.3813631 L48.5599172,69.4203517 C48.5595533,69.4181655 48.5591893,69.4167079 48.5588254,69.4145217 C48.584302,69.3959383 48.9373354,69.207554 48.9373354,69.207554 C49.8464873,68.9182366 50.7556392,68.6289192 51.6647911,68.3396018 C52.7238912,68.039353 53.7666134,67.642908 54.8453669,67.4614469 C56.4391124,67.1939923 59.1254415,67.9843317 58.3782482,65.1352475 C57.8527017,63.1318883 60.1102954,59.5504011 55.7614339,59.1834708 C54.5811378,57.8680604 54.8231659,56.5858086 55.852058,55.3225044 C58.3993575,55.9772946 60.9452012,56.2374616 63.489589,56.2374616 C66.7178426,56.2374616 69.9439124,55.8187895 73.1696183,55.2565517 C73.2154763,54.8451671 73.2613342,54.4337825 73.3071921,54.0220336 C74.2356335,54.5554853 74.06494,54.9665055 73.2653377,55.3068361 C72.3085081,58.4058847 67.3438399,61.4630297 73.1907275,64.6334967 C75.8643183,64.4134114 81.0746541,63.7356654 78.1193645,60.9226547 C74.4176095,57.3991039 76.3840417,55.098411 76.8091375,52.177544 C77.1068502,50.1337387 76.0910604,49.3131558 74.5093253,48.6929817 C70.1943114,45.0681333 69.4416588,40.0214756 69.8813127,34.778053 C69.7324564,34.7587408 69.5865116,34.749267 69.4431146,34.749267 C67.0122797,34.749267 65.3533868,37.4216271 63.671929,37.4216271 C63.0968849,37.4216271 62.5196572,37.1093537 61.90749,36.2712806 C60.5615958,34.4282485 61.158113,31.1634072 60.878234,28.5398739 C58.7465676,28.0665448 56.6149012,27.5928513 54.4835987,27.1187934 C50.492138,32.4966722 51.4256747,40.8624638 43.9766707,44.2694132 C43.04277,44.6968305 42.9961842,47.0685774 42.5383327,48.5395779 C43.2145554,48.5563394 43.792511,49.4239272 44.3748341,50.0211454 C44.5302416,50.1803793 44.685649,50.3199367 44.8436042,50.4194123 C44.9615246,50.4941101 45.0812648,50.5458521 45.2028247,50.5658929 C45.0812648,50.5458521 44.9615246,50.4941101 44.8436042,50.4194123 C44.685649,50.3199367 44.5302416,50.1803793 44.3748341,50.0211454 C43.792511,49.4239272 43.2145554,48.5567037 42.5383327,48.5399423 C41.9894932,49.4993538 41.7354547,50.9415683 40.4630788,50.9415683 C40.2887459,50.9415683 40.0954874,50.9146042 39.8796639,50.8555747 C38.6713435,50.5254468 38.0064033,49.0668352 38.5869067,48.1580724 C41.1564072,44.1378721 38.6993678,41.4432849 36.2536109,38.9097534 C32.0405034,34.5459431 33.4173336,30.7757073 37.0841492,27.0706953 C41.1178283,25.0010191 44.3959433,21.0063254 49.243055,21.0063254 C50.0084459,21.0063254 50.8124157,21.105801 51.6647911,21.3280726 C51.7324861,20.4980158 51.7998172,19.6683235 51.8675123,18.8382667 C52.3148092,18.1310059 52.6605635,16.9161642 53.2257809,16.8032065 C55.7930977,16.2912532 57.025075,14.3024692 56.9770333,12.3067621 C56.9442777,10.9436179 56.1730635,10.7268121 55.2449861,10.7268121 C54.8126113,10.7268121 54.3463888,10.773817 53.9045512,10.773817 C53.4736321,10.773817 53.0663699,10.7293627 52.7369934,10.5526386 C51.4766279,9.87707881 52.6241684,9.15451404 52.7719328,8.45381204 C52.7428167,8.45417642 52.7133366,8.4545408 52.6849483,8.4545408 C48.9220494,8.4545408 51.1043051,5.58468695 50.6268002,4" id="Fill-22" stroke="#000000" fill="#000000" class="TEHOTFYb_12"></path>
                </g>
                <g id="globe-original" fill-rule="nonzero" stroke="#000000" stroke-width="10">
                    <path d="M257.008826,84.1370702 L256.329021,85.5267595 C250.06625,98.3291617 242.47539,112.531919 234.733685,126.34475 L230.366238,134.137195 L226.007616,126.33981 C208.124649,94.3479621 194.260783,66.5539126 191.079138,52.6389582 C188.809971,42.8087754 192.307041,34.2470718 198.566693,27.4222396 L199.249945,26.6780295 L198.347767,26.2213253 C179.989597,16.920142 159.275744,12 138.461538,12 C64.876433,12 5,71.876433 5,145.461538 C5,219.046644 64.876433,278.923077 138.461538,278.923077 C212.046644,278.923077 271.923077,219.046644 271.923077,145.461538 C271.923077,124.299529 267.143185,104.148871 257.707186,85.5157581 L257.008826,84.1370702 Z M230.365848,137.133692 L231.027203,135.993658 C231.127998,135.819366 231.287508,135.54271 231.516292,135.14436 C231.894944,134.485067 232.330287,133.723848 232.818959,132.865487 C234.207464,130.426553 235.749394,127.690642 237.407108,124.714789 C242.12481,116.245785 246.837378,107.531087 251.232423,99.0475828 C251.587157,98.3628595 251.938689,97.6817798 252.286911,97.0045103 L257.341796,87.1730655 L261.386842,97.4612515 C267.365548,112.667515 270.384615,128.771661 270.384615,145.461538 C270.384615,218.20869 211.20869,277.384615 138.461538,277.384615 C65.7143874,277.384615 6.53846154,218.20869 6.53846154,145.461538 C6.53846154,72.7143874 65.7143874,13.5384615 138.461538,13.5384615 C156.864681,13.5384615 174.554341,17.2216589 191.117732,24.5023995 L196.402763,26.8255314 L193.348806,31.7246992 C189.196232,38.3862709 187.900788,45.7071213 189.579737,52.9802306 C191.760062,62.5157986 199.549509,79.876842 210.906637,101.679646 C214.988494,109.515776 219.272022,117.427216 223.518128,125.05315 C225.045058,127.795489 226.472743,130.33084 227.772609,132.616482 C228.250136,133.45615 228.684234,134.21603 229.072296,134.892469 C229.335819,135.35182 229.539855,135.706088 229.699332,135.982061 L230.365848,137.133692 Z" id="Shape" class="TEHOTFYb_13"></path>
                    <g id="pin" transform="translate(183.000000, 7.000000)">
                        <path d="M47.3658512,130.133699 L48.0256417,128.996366 C48.1281911,128.818978 48.2889665,128.540095 48.5166745,128.143594 C48.8961008,127.482911 49.3316419,126.721303 49.820585,125.862416 C51.2107504,123.420423 52.7539392,120.682061 54.4130692,117.703336 C59.1354693,109.224957 63.8523423,100.500572 68.2514657,92.006442 C69.6508282,89.3044566 70.9982207,86.6632811 72.2874405,84.0924463 C73.1253695,82.421531 73.9371461,80.7834657 74.7127291,79.1981231 C82.2383025,63.6609205 86.66102,52.7323754 88.2103099,45.9818985 L88.2649105,45.7439958 C90.0918564,37.3822825 87.9172443,28.7859966 82.0143693,21.3838638 C74.1185103,11.4876539 60.4247468,5 47.3663988,5 C35.3029735,5 22.6094008,10.5468187 14.4314317,19.387541 C7.15823062,27.3103538 4.43239515,36.6822149 6.57973626,45.9802306 C8.76006116,55.5157986 16.5495088,72.876842 27.9066366,94.6796464 C31.9884933,102.515776 36.2720211,110.427216 40.5181278,118.05315 C42.0450579,120.795489 43.4727423,123.33084 44.7726084,125.616482 C45.2501354,126.45615 45.684233,127.21603 46.0722959,127.892469 C46.3358185,128.35182 46.539854,128.706088 46.6993312,128.982061 L47.3658512,130.133699 Z M47.3663988,6.53846154 C60.0676312,6.53846154 73.1062084,12.6840329 80.8133015,22.3444493 C86.1082011,28.9902735 88.7035685,36.8765956 86.7111411,45.6396378 C85.1634108,52.3757482 80.6778369,63.3508253 73.329021,78.5267589 C67.0662502,91.3291611 59.4753901,105.531918 51.7336852,119.344749 L47.366238,127.137194 L43.007616,119.339809 C25.1246493,87.3479616 11.2607832,59.553912 8.07913802,45.6389577 C5.81057808,35.8114065 9.30856315,27.2417289 15.5636411,20.4297507 C23.5259462,11.8279033 35.6345073,6.53846154 47.3663988,6.53846154 Z" id="Shape" class="TEHOTFYb_14"></path>
                        <path d="M47.3861181,64.6814904 C57.3501826,64.6814904 65.4630412,56.5693155 65.4630412,46.6045673 C65.4630412,36.6398191 57.3501826,28.5276442 47.3861181,28.5276442 C37.4220535,28.5276442 29.309195,36.6398191 29.309195,46.6045673 C29.309195,56.5693155 37.4220535,64.6814904 47.3861181,64.6814904 Z M47.3861181,30.0661058 C56.5103774,30.0661058 63.9245796,37.4815574 63.9245796,46.6045673 C63.9245796,55.7275772 56.5103774,63.1430288 47.3861181,63.1430288 C38.2618587,63.1430288 30.8476565,55.7275772 30.8476565,46.6045673 C30.8476565,37.4815574 38.2618587,30.0661058 47.3861181,30.0661058 Z" id="Shape" class="TEHOTFYb_15"></path>
                    </g>
                </g>
            </g>
        </g>
    </g>
<style data-made-with="vivus-instant">.TEHOTFYb_0{stroke-dasharray:95 97;stroke-dashoffset:96;animation:TEHOTFYb_draw 1000ms ease-in-out 0ms forwards;}.TEHOTFYb_1{stroke-dasharray:2255 2257;stroke-dashoffset:2256;animation:TEHOTFYb_draw 1000ms ease-in-out 33ms forwards;}.TEHOTFYb_2{stroke-dasharray:2 4;stroke-dashoffset:3;animation:TEHOTFYb_draw 1000ms ease-in-out 66ms forwards;}.TEHOTFYb_3{stroke-dasharray:261 263;stroke-dashoffset:262;animation:TEHOTFYb_draw 1000ms ease-in-out 100ms forwards;}.TEHOTFYb_4{stroke-dasharray:6 8;stroke-dashoffset:7;animation:TEHOTFYb_draw 1000ms ease-in-out 133ms forwards;}.TEHOTFYb_5{stroke-dasharray:40 42;stroke-dashoffset:41;animation:TEHOTFYb_draw 1000ms ease-in-out 166ms forwards;}.TEHOTFYb_6{stroke-dasharray:69 71;stroke-dashoffset:70;animation:TEHOTFYb_draw 1000ms ease-in-out 200ms forwards;}.TEHOTFYb_7{stroke-dasharray:805 807;stroke-dashoffset:806;animation:TEHOTFYb_draw 1000ms ease-in-out 233ms forwards;}.TEHOTFYb_8{stroke-dasharray:7 9;stroke-dashoffset:8;animation:TEHOTFYb_draw 1000ms ease-in-out 266ms forwards;}.TEHOTFYb_9{stroke-dasharray:1 3;stroke-dashoffset:2;animation:TEHOTFYb_draw 1000ms ease-in-out 300ms forwards;}.TEHOTFYb_10{stroke-dasharray:2 4;stroke-dashoffset:3;animation:TEHOTFYb_draw 1000ms ease-in-out 333ms forwards;}.TEHOTFYb_11{stroke-dasharray:93 95;stroke-dashoffset:94;animation:TEHOTFYb_draw 1000ms ease-in-out 366ms forwards;}.TEHOTFYb_12{stroke-dasharray:517 519;stroke-dashoffset:518;animation:TEHOTFYb_draw 1000ms ease-in-out 400ms forwards;}.TEHOTFYb_13{stroke-dasharray:1852 1854;stroke-dashoffset:1853;animation:TEHOTFYb_draw 1000ms ease-in-out 433ms forwards;}.TEHOTFYb_14{stroke-dasharray:627 629;stroke-dashoffset:628;animation:TEHOTFYb_draw 1000ms ease-in-out 466ms forwards;}.TEHOTFYb_15{stroke-dasharray:218 220;stroke-dashoffset:219;animation:TEHOTFYb_draw 1000ms ease-in-out 500ms forwards;}@keyframes TEHOTFYb_draw{100%{stroke-dashoffset:0;}}@keyframes TEHOTFYb_fade{0%{stroke-opacity:1;}92.98245614035088%{stroke-opacity:1;}100%{stroke-opacity:0;}}</style></svg>