<?xml version="1.0" encoding="UTF-8"?>
<svg width="628px" height="628px" viewBox="0 0 628 628" version="1.1" xmlns="http://www.w3.org/2000/svg" xmlns:xlink="http://www.w3.org/1999/xlink">
    <!-- Generator: Sketch 52.5 (67469) - http://www.bohemiancoding.com/sketch -->
    <title>logo-square-light</title>
    <desc>Created with Sketch.</desc>
    <defs>
        <linearGradient x1="0%" y1="0%" x2="68.5125385%" y2="90.1656746%" id="linearGradient-1">
            <stop stop-color="#5EFCE8" offset="0%"></stop>
            <stop stop-color="#736EFE" offset="100%"></stop>
        </linearGradient>
        <linearGradient x1="-1%" y1="0%" x2="100%" y2="100%" id="linearGradient-2">
            <stop stop-color="#F0FF00" offset="0%"></stop>
            <stop stop-color="#58CFFB" offset="100%"></stop>
        </linearGradient>
        <linearGradient x1="39.0054424%" y1="105.978895%" x2="65.2036517%" y2="30.7952425%" id="linearGradient-3">
            <stop stop-color="#E80505" offset="0%"></stop>
            <stop stop-color="#FDD819" offset="100%"></stop>
        </linearGradient>
    </defs>
    <g id="logo-square-light" stroke="none" stroke-width="1" fill="none" fill-rule="evenodd">
        <g id="Group" transform="translate(129.000000, 114.000000)">
            <g id="Wumpmap" transform="translate(0.000000, 316.000000)" fill="#FFFFFF">
                <path d="M18.6922078,6.20454545 L7.68831169,6.20454545 L7.68831169,60.2727273 L18.6922078,60.2727273 L18.6922078,57.525 C21.4807795,59.9026175 25.1698186,61.1757291 28.9657143,61.0704545 C40.8537662,61.0704545 48.8015584,52.1093182 48.8015584,41.7388636 C48.8015584,31.3684091 40.8537662,22.425 28.9657143,22.425 C25.1848707,22.3353209 21.5097572,23.5814313 18.6922078,25.9084091 L18.6922078,6.20454545 Z M27.3415584,51.8256818 C23.8866211,51.9528204 20.6092788,50.4112516 18.6922078,47.7572727 L18.6922078,35.685 C20.641377,33.0717543 23.9048514,31.5601188 27.3415584,31.6786364 C33.3864935,31.6786364 37.4805195,36.27 37.4805195,41.7565909 C37.4805195,47.2431818 33.3864935,51.8256818 27.3607792,51.8256818 L27.3415584,51.8256818 Z" id="Shape" fill-rule="nonzero"></path>
                <path d="M89.5207792,23.2404545 L78.5168831,23.2404545 L78.5168831,47.6065909 C76.9235382,50.0863413 74.0934401,51.6690818 70.9727273,51.8256818 C65.7446753,51.8256818 63.418961,48.2802273 63.418961,43.0152273 L63.418961,23.2404545 L52.4150649,23.2404545 L52.4150649,44.7170455 C52.4150649,54.5645455 58.3638961,61.0881818 68.6374026,61.0881818 C72.3366353,61.0492825 75.8764139,59.6932135 78.5168831,57.3034091 L78.5168831,60.2727273 L89.5207792,60.2727273 L89.5207792,23.2404545 Z" id="Path" fill-rule="evenodd"></path>
                <path d="M141.272727,22.425 C135.256623,22.425 130.701299,24.6497727 128.183377,27.3088636 C125.420695,24.1667025 121.248142,22.3666752 116.862338,22.425 C113.171948,22.425 109.174026,23.9052273 107.069351,26.13 L107.069351,23.2404545 L96.1038961,23.2404545 L96.1038961,60.2727273 L107.107792,60.2727273 L107.107792,35.685 C108.636082,33.2545635 111.451882,31.7584995 114.498182,31.7584091 C119.553247,31.7584091 121.398442,35.6052273 121.398442,40.7195455 L121.398442,60.2727273 L132.402338,60.2727273 L132.402338,38.9379545 C132.417381,37.9926075 132.307657,37.0490838 132.075584,36.1281818 C133.553348,33.4624296 136.517757,31.7775613 139.763896,31.7584091 C144.818961,31.7584091 146.664156,35.6052273 146.664156,40.7195455 L146.664156,60.2727273 L157.668052,60.2727273 L157.668052,38.9379545 C157.668052,29.7552273 152.612987,22.425 141.282338,22.425 L141.272727,22.425 Z" id="Shape" fill-rule="nonzero"></path>
                <path d="M185.086494,22.425 C181.302841,22.3357473 177.624893,23.5816535 174.803377,25.9084091 L174.803377,23.2493182 L163.799481,23.2493182 L163.799481,74.6584091 L174.803377,74.6584091 L174.803377,57.525 C177.595447,59.9031507 181.287648,61.1761627 185.086494,61.0704545 C196.964935,61.0704545 204.912727,52.1093182 204.912727,41.7388636 C204.912727,31.3684091 197.012987,22.425 185.086494,22.425 Z M183.471948,51.8256818 C180.017427,51.9510714 176.740959,50.409914 174.822597,47.7572727 L174.822597,35.685 C176.774215,33.0743472 180.036034,31.5634787 183.471948,31.6786364 C189.497662,31.6786364 193.591688,36.27 193.591688,41.7565909 C193.591688,47.2431818 189.497662,51.8256818 183.471948,51.8256818 Z" id="Shape" fill-rule="nonzero"></path>
                <path d="M254.223636,22.425 C248.197922,22.425 243.652208,24.6497727 241.134286,27.3088636 C238.371604,24.1667025 234.199051,22.3666752 229.813247,22.425 C226.122857,22.425 222.124935,23.9052273 220.02026,26.13 L220.02026,23.2404545 L209.016364,23.2404545 L209.016364,60.2727273 L220.02026,60.2727273 L220.02026,35.685 C221.543938,33.2546315 224.357114,31.7580155 227.401039,31.7584091 C232.465714,31.7584091 234.310909,35.6052273 234.310909,40.7195455 L234.310909,60.2727273 L245.314805,60.2727273 L245.314805,38.9379545 C245.324997,37.9928191 245.215335,37.0498259 244.988052,36.1281818 C246.457437,33.4553058 249.427092,31.7674556 252.676364,31.7584091 C257.741039,31.7584091 259.586234,35.6052273 259.586234,40.7195455 L259.586234,60.2727273 L270.59013,60.2727273 L270.59013,38.9379545 C270.59013,29.7552273 265.525455,22.425 254.204416,22.425 L254.223636,22.425 Z" id="Shape" fill-rule="nonzero"></path>
                <path d="M293.972208,22.425 C282.093766,22.425 274.145974,31.3861364 274.145974,41.7565909 C274.145974,52.1270455 282.093766,61.0881818 293.972208,61.0881818 C297.772768,61.2035011 301.468796,59.9291698 304.255325,57.5427273 L304.255325,60.2727273 L315.220779,60.2727273 L315.220779,23.2404545 L304.255325,23.2404545 L304.255325,25.8995455 C301.442061,23.5601435 297.758444,22.3123169 293.972208,22.4161364 L293.972208,22.425 Z M295.586753,51.8256818 C289.637922,51.8256818 285.543896,47.2343182 285.543896,41.7565909 C285.543896,36.2788636 289.637922,31.6786364 295.586753,31.6786364 C299.022668,31.5634787 302.284486,33.0743472 304.236104,35.685 L304.236104,47.7572727 C302.317742,50.409914 299.041274,51.9510714 295.586753,51.8256818 Z" id="Shape" fill-rule="nonzero"></path>
                <path d="M343.090909,22.425 C339.307257,22.3357473 335.629309,23.5816535 332.807792,25.9084091 L332.807792,23.2493182 L321.842338,23.2493182 L321.842338,74.6584091 L332.846234,74.6584091 L332.846234,57.525 C335.638304,59.9031507 339.330506,61.1761627 343.129351,61.0704545 C355.007792,61.0704545 362.955584,52.1093182 362.955584,41.7388636 C362.955584,31.3684091 355.007792,22.425 343.090909,22.425 Z M341.476364,51.8256818 C338.021842,51.9510714 334.745375,50.409914 332.827013,47.7572727 L332.827013,35.685 C334.778631,33.0743472 338.040449,31.5634787 341.476364,31.6786364 C347.502078,31.6786364 351.596104,36.27 351.596104,41.7565909 C351.596104,47.2431818 347.502078,51.8256818 341.476364,51.8256818 Z" id="Shape" fill-rule="nonzero"></path>
            </g>
            <g id="BumpmapEmblem" transform="translate(42.000000, 0.000000)">
                <g id="Group" transform="translate(0.000000, 7.000000)">
                    <g id="continents" transform="translate(9.000000, 1.000000)">
                        <path d="M120.582816,70.8917984 C89.0497847,76.0997121 65,103.491292 65,136.5 C65,173.226936 94.7730641,203 131.5,203 C148.528104,203 164.061385,196.5999 175.825556,186.073987 L163.319387,163.506909 C148.748872,137.21477 138.331584,116.860137 131.790921,101.664151 C127.559863,91.8340943 123.827522,81.5745913 120.582817,70.8918012 Z" id="Combined-Shape" stroke="url(#linearGradient-1)" stroke-width="130"></path>
                        <path d="M97.7507149,214.868551 C98.4431891,214.03149 99.0394049,213.682441 99.5807206,213.682441 C99.9566037,213.682441 100.305769,213.850218 100.643588,214.138721 C100.305769,213.850218 99.9562377,213.682806 99.5807206,213.682806 C99.0390389,213.682806 98.4431891,214.03149 97.7507149,214.868551 C97.7441269,214.876211 97.7375389,214.884599 97.7309509,214.892624 C97.7375389,214.884599 97.7441269,214.876211 97.7507149,214.868551 M30.8014229,175 C30.5635222,175 30.3805216,175.183096 30.2945114,175.713052 C29.7810118,178.881849 27.1373856,181.597647 28.2866292,185.07902 C30.2041091,187.103285 30.175561,189.631247 29.7246476,192.047965 C29.2755642,194.458117 28.1054586,196.780734 29.9984164,199.057395 C31.792188,203.962318 34.6964069,208.028722 39.0811004,210.974302 C41.9900773,216.201284 46.3041326,219.98502 51.5547848,222.695347 C54.4421677,224.185644 56.4822579,226.277386 58.1764772,229.053 C62.4678404,236.083585 67.6500503,242.464946 73.3706479,248.404616 C75.8693376,249.871935 78.5788439,251.072999 80.1372767,253.727158 C83.2929384,255.148521 85.8853244,258 89.6006018,258 C89.990759,258 90.3937263,257.968268 90.8109676,257.900063 C85.1752822,250.978534 85.1752822,250.978534 89.1881186,246.68782 C89.9504989,240.881642 88.1051212,233.954277 97.6072425,232.771814 C100.66811,232.390668 100.313821,227.658628 99.8735215,224.493843 C97.6515286,220.865484 101.669855,219.303334 102.479815,216.678354 C102.479449,216.677625 102.479083,216.676895 102.478717,216.676166 C102.505802,216.678719 102.53252,216.679813 102.55814,216.679813 C102.81251,216.679813 102.995877,216.556534 103.106043,216.307421 C103.970172,216.135267 104.383753,215.623912 104.297011,214.735789 C105.955728,211.854401 104.475986,210.554859 101.975832,209.124743 C95.6795145,205.523374 88.6178888,203.942258 81.7648837,202.769278 C76.8494886,201.928205 74.9085846,199.746375 73.4866703,195.846289 C62.3734121,189.568877 52.1572226,181.533454 39.3603593,178.556872 C37.5021715,176.879832 35.2201545,176.243373 32.8129651,175.910372 C32.7946651,175.912196 32.776365,175.912926 32.7576989,175.912926 C32.139889,175.912926 31.3328566,175 30.8014229,175" id="Fill-4" fill="url(#linearGradient-2)"></path>
                        <path d="M231,62 C231.189399,62.9402062 231.600042,63.7538462 233,64 C232.333752,63.3335448 231.666667,62.6667724 231,62" id="Fill-6" fill="url(#linearGradient-2)"></path>
                        <path d="M235,198 C228.894363,201.614939 227.038187,208.198822 224,214 C228.998451,209.647426 232.099609,203.937889 235,198 Z" id="Fill-8" fill="url(#linearGradient-2)"></path>
                        <path d="M153.727892,66 C153.348482,66 152.999161,66.262641 152.767259,67.0575143 C152.264559,68.7804103 151.602244,69.3309322 150.865073,69.3309322 C149.816009,69.3309322 148.615401,68.2163539 147.506159,67.7792285 C148.038214,70.1137342 145.705614,71.0007879 145,72.7097836 C147.166745,73.0689946 144.791581,76.7690143 147.012266,76.7690143 C147.213346,76.7690143 147.451853,76.7390191 147.735126,76.6731759 C149.516958,76.2587298 152.648739,76.2291004 151.873408,72.7474605 C151.425748,70.7352205 152.038895,69.7812263 153.5092,69.7812263 C153.863658,69.7812263 154.268386,69.8368271 154.719715,69.9465657 C157.447869,70.6082895 156.45201,71.9664875 155.715207,73.8408228 C154.936206,75.8227018 154.870525,78.3177917 157.97919,79 C160.347382,77.1428571 164.457776,79.2999522 166,75.5403078 C163.311841,71.4686401 158.876343,69.5211458 155.143157,66.7272011 C154.746134,66.4298095 154.212612,66 153.727892,66" id="Fill-10" fill="url(#linearGradient-2)"></path>
                        <path d="M228.974727,121.267288 C231.400414,124.958442 233.528641,128.085085 234.346344,131.861912 C234.345608,131.863012 234.344873,131.864846 234.343769,131.866313 C236.276476,136.93013 236.9646,142.600108 241.439799,147.219113 C243.409652,139.760352 238.166887,134.781977 237.357761,128.774264 C234.596069,126.498132 235.066098,120.66607 229.338961,120.66607 C229.329282,120.66607 229.319585,120.666087 229.30987,120.66612 C233.711328,112.766814 237.698593,105.447495 241.271666,98.7081613 C241.45277,98.7532553 241.642562,98.7771361 241.838845,98.7771361 C241.960949,98.7771361 242.085996,98.7679685 242.212514,98.7488999 C243.575522,98.5424455 243.492771,97.1038653 243.212887,96.0565585 C243.152994,95.832417 243.089323,95.6102202 243.022098,95.3898522 C244.215747,93.115169 245.359385,90.9105155 246.453011,88.7758919 C250.355248,98.0297261 252.900441,107.794589 254,118.103542 C253.319231,118.355101 252.710916,118.466945 252.15924,118.466945 C249.959154,118.466945 248.655359,116.68513 247.205921,114.863344 C246.302275,113.727295 245.494989,113.138368 244.856883,113.138368 C244.036724,113.138368 243.496081,114.111968 243.38832,116.150109 C246.116544,117.331996 246.549426,120.322468 248.152598,122.382612 C248.69177,123.075316 249.13164,123.306706 249.527375,123.306706 C250.178354,123.306706 250.710537,122.682576 251.367768,122.453386 C255.979047,132.587986 250.201524,140.512462 245.333531,148.336094 C243.719694,150.929792 244.251142,151.711605 246.147438,152.991769 C246.281311,153.029172 246.423644,153.042374 246.570022,153.042374 C246.900292,153.042374 247.25263,152.975634 247.5829,152.975634 C248.071317,152.975634 248.511923,153.121582 248.764223,153.843256 C247.952523,154.023674 247.141191,154.204092 246.329491,154.384511 C245.971637,155.971606 247.000697,157.114256 247.620414,158.388186 C245.001054,165.930189 240.588379,172.482091 235.970111,178.875943 C233.519197,182.26869 231.66299,185.962133 231.404805,189.98121 C230.930731,197.354162 226.167557,201.9673 221.920752,207.186232 C215.289234,215.334031 208.823218,223.551502 199.784184,229.275387 C198.478918,230.101571 197.466408,231.193982 195.823147,231.684266 C193.106693,232.495048 191.275863,233 190.062175,233 C187.748076,233 187.677829,231.163913 187.992285,226.10853 C187.568597,217.512253 191.210029,209.314216 190.534042,200.659266 C190.464163,199.768542 192.066599,198.748371 192.89301,197.787973 C195.473017,194.169337 192.659835,190.530899 192.933099,186.903829 L192.933099,186.903463 C188.770516,185.175186 187.608318,182.522449 189.447607,178.15757 C190.688511,175.212203 190.900723,171.895731 186.024271,171.769218 C186.002939,171.5932 185.974988,171.430384 185.941152,171.278201 C185.974988,171.430384 186.002939,171.5932 186.024271,171.769218 C185.354904,171.877029 184.680019,171.994374 184.068026,171.994374 C182.842937,171.994374 181.870148,171.522426 181.701335,169.550658 C180.625198,169.495653 179.607171,169.335403 179.158474,168.130047 C178.309996,168.134447 177.461517,168.138481 176.612671,168.143248 C173.9786,172.264269 169.484276,171.398847 165.619231,172.219897 C164.974506,172.098518 164.338239,172.04718 163.708224,172.04718 C160.192574,172.04718 156.872218,173.652977 153.363188,173.709083 C152.788709,173.362547 152.213127,173.016379 151.637912,172.67021 C151.637912,172.67021 151.160528,172.443954 151.149862,172.443954 C151.149862,172.443954 151.149862,172.44432 151.149495,172.44432 C150.009731,170.867493 148.263859,170.321104 146.530492,169.754179 C146.261642,169.373174 145.893857,169.170386 145.427139,169.145084 C144.570569,167.73804 142.4856,167.259491 142.450661,165.231618 C141.601079,164.736567 140.75113,164.24115 139.901548,163.746466 C139.368629,161.506638 137.840853,160.500402 135.640032,160.329884 C131.311578,154.694742 137.072184,149.123774 135.748528,143.506967 C133.899676,141.597172 133.916594,139.697279 135.355367,137.449383 C138.380024,132.7255 141.095376,127.741259 145.814416,124.437255 C150.196198,121.370142 149.99502,115.013693 154.82366,112.348488 C156.315025,111.378922 156.84868,110.44456 154.723622,109.607008 C153.826596,109.17063 152.929938,108.734619 152.032912,108.298608 C147.012289,103.708573 149.216788,98.6858268 151.150598,93.6810494 C151.766269,94.7367905 152.415776,95.0811256 153.083304,95.0811256 C154.334139,95.0811256 155.644922,93.8702687 156.896492,93.8702687 C157.11422,93.8702687 157.329374,93.9069391 157.543056,93.9923812 C158.462517,93.9744127 159.382346,93.9560775 160.301071,93.9384757 C160.82075,93.971479 161.469154,94.5215352 161.981109,94.5215352 C162.341538,94.5215352 162.634294,94.2483406 162.766329,93.3290135 C163.99105,89.4489175 162.621422,86.811215 158.910478,85.2710578 C157.644933,84.7459376 155.081109,84.828446 157.481637,82.4437693 C157.881418,82.4888739 158.267959,82.5105095 158.641996,82.5105095 C162.918591,82.5105095 165.552295,79.6667192 167.956501,76.4261552 C168.000635,76.4342227 168.04293,76.4382565 168.083386,76.4382565 C168.289345,76.4382565 168.439401,76.332279 168.532083,76.1192239 C172.937035,72.7671818 177.095572,69.5988585 183.175782,69.5988585 C183.606457,69.5988585 184.04743,69.6149935 184.497966,69.6479969 C184.970569,69.682467 185.48988,69.7074029 186.033833,69.7074029 C186.257767,69.7074029 186.485793,69.7031675 186.716305,69.6936163 C187.154821,70.8346351 187.600893,71.9670636 188.054518,73.0909017 C186.600901,75.9933681 187.680614,80.3092611 187.418173,83.8658478 C187.35234,84.7558386 187.425529,85.6557304 187.43362,86.5508551 C189.770175,86.6441734 192.266054,86.4300359 194.29668,87.1127571 C195.018642,88.6098899 195.783394,90.1670341 196.590933,91.7841819 C195.220282,91.3933185 194.016067,90.6928753 193.098969,89.4063798 C192.609816,88.7202765 191.979802,88.4661505 191.368176,88.4661505 C190.66387,88.4661505 189.983469,88.8035183 189.569344,89.2065261 C188.137559,90.6011018 190.18906,91.2633693 190.763539,92.2630047 C192.513616,95.3081346 196.391414,94.9650516 199.024774,96.5876723 C199.472391,97.4593381 199.930846,98.3462034 200.40014,99.2482684 C200.134425,99.5444799 199.868764,99.8405599 199.603234,100.136508 C199.102312,100.543916 198.599919,100.952058 198.098261,101.3602 C197.260448,100.573619 196.422268,99.7874059 195.58372,99.0004589 C192.826441,96.0642593 187.600962,96.5369408 185.954392,92.0675514 C185.46671,91.7485188 184.979764,91.4294863 184.492817,91.110087 C183.658682,90.950204 182.824915,90.7899544 181.991884,90.6297047 C180.46374,91.5739677 179.527729,93.6535466 177.507858,93.6535466 C177.190828,93.6535466 176.847318,93.6025747 176.470707,93.4877963 C175.183094,93.5989077 173.895849,93.7096523 172.608972,93.8207636 L172.608972,93.8211303 C169.927824,98.2094782 167.246677,102.597826 164.565529,106.986174 C164.27167,108.274405 164.522499,109.385152 165.625484,110.217937 C165.469911,110.79953 165.227173,111.306681 164.90904,111.661651 C165.227173,111.306681 165.469911,110.79953 165.625484,110.217937 C166.555978,110.141296 167.48684,110.064655 168.417334,109.988013 C168.825207,109.79256 169.233448,109.597474 169.64132,109.40202 C170.695758,108.341512 171.920479,108.064651 173.20515,108.064651 C173.849508,108.064651 174.508945,108.134324 175.169854,108.209865 C176.985237,107.837661 178.800252,107.465456 180.616003,107.093251 C180.047776,108.511663 179.4082,109.582439 178.634381,110.005982 C179.4082,109.582439 180.047776,108.511663 180.616371,107.093251 C182.232783,107.01331 184.023892,106.318039 185.617869,106.318039 C187.18132,106.318039 188.556098,106.987274 189.3906,109.562637 C188.304901,112.806501 189.173608,114.88278 192.833429,115.291288 C193.743327,114.868478 194.57121,114.691727 195.340982,114.692094 C198.613527,114.69246 200.824278,117.88682 203.758829,118.90479 C204.846367,119.761044 205.933537,120.617298 207.054176,121.500322 C207.128836,121.558994 207.203864,121.618034 207.278524,121.677073 C207.203864,121.618034 207.128836,121.558994 207.054176,121.500322 C205.933537,120.617298 204.846367,119.761044 203.758829,118.904423 C204.167437,118.996099 204.54037,119.039004 204.88241,119.039004 C207.150272,119.039004 208.07357,117.165393 209.036548,115.347238 C212.528449,121.694354 216.403363,128.578608 220.661289,136 C223.578385,130.884725 226.349531,125.973821 228.974727,121.267288 Z M185.901431,171.137754 C185.876422,171.040944 185.85178,170.942667 185.821254,170.855758 C185.85178,170.942667 185.876054,171.040944 185.901431,171.137754 Z M185.759098,170.709443 C185.72894,170.637569 185.700989,170.562395 185.667152,170.497488 C185.700989,170.562395 185.72894,170.637569 185.759098,170.709443 Z M185.587343,170.366942 C185.552771,170.309369 185.520039,170.248863 185.481789,170.197524 C185.519671,170.248863 185.552771,170.309369 185.587343,170.366942 Z M185.385062,170.085313 C185.346077,170.040208 185.308931,169.99217 185.267371,169.952199 C185.308931,169.99217 185.346077,170.040208 185.385062,170.085313 Z M185.154461,169.85869 C185.112166,169.823853 185.071342,169.786082 185.02684,169.755646 C185.071342,169.786082 185.112166,169.823853 185.154461,169.85869 Z M184.899219,169.681572 C184.853614,169.655536 184.809479,169.626933 184.762035,169.604197 C184.809479,169.626933 184.853614,169.655536 184.899219,169.681572 Z M184.621174,169.548091 C184.572994,169.529023 184.525918,169.508487 184.476267,169.492719 C184.525918,169.508487 184.572994,169.529023 184.621174,169.548091 Z M184.321062,169.452382 C184.271411,169.439914 184.223231,169.425612 184.172109,169.416078 C184.223231,169.425612 184.271411,169.439914 184.321062,169.452382 Z M182.479934,169.388209 C182.494277,169.387108 182.508621,169.386375 182.522597,169.384908 C182.508621,169.386375 182.494277,169.387108 182.479934,169.388209 Z M184.001825,169.390042 C183.951807,169.383075 183.902523,169.374274 183.851769,169.369507 C183.902523,169.374274 183.951807,169.383075 184.001825,169.390042 Z M182.826019,169.362906 C182.863165,169.360339 182.900311,169.359239 182.93709,169.357772 C182.900311,169.359239 182.863165,169.360339 182.826019,169.362906 Z M183.666406,169.357039 C183.617123,169.354105 183.568208,169.349705 183.518557,169.348238 C183.568208,169.349705 183.617123,169.354105 183.666406,169.357039 Z M183.234627,169.347138 L183.230582,169.347138 L183.212192,169.347138 C183.200055,169.347138 183.187551,169.347504 183.175046,169.347871 C183.187551,169.347504 183.200055,169.347138 183.212192,169.347138 L183.230582,169.347138 L183.234627,169.347138 L183.295679,169.347138 L183.31223,169.347138 L183.295679,169.347138 L183.234627,169.347138 Z M171.155856,113.154137 C171.123123,113.15707 171.09039,113.159637 171.059864,113.160004 L171.049934,113.160004 L171.037797,113.160004 L171.049934,113.160004 L171.059864,113.160004 C171.09039,113.159637 171.123123,113.15707 171.155856,113.154137 C171.175349,113.15267 171.195209,113.150836 171.214701,113.149003 C171.195209,113.150836 171.175349,113.15267 171.155856,113.154137 Z M170.944012,113.149369 C170.89951,113.144969 170.852802,113.143502 170.812345,113.134701 C170.852802,113.143502 170.89951,113.144969 170.944012,113.149369 Z M171.298556,113.143869 C171.364022,113.134701 171.436843,113.117099 171.508561,113.100231 C171.436843,113.117099 171.364022,113.134701 171.298556,113.143869 Z M170.621098,113.072728 C170.653095,113.086663 170.689873,113.095097 170.724077,113.106098 C170.689873,113.095097 170.653095,113.086663 170.621098,113.072728 C170.619994,113.072362 170.618891,113.071995 170.617788,113.071261 C170.618891,113.071995 170.619994,113.072362 170.621098,113.072728 Z M170.543127,113.027624 C170.512969,113.010022 170.480236,112.994987 170.452652,112.974085 C170.480236,112.994987 170.512969,113.010022 170.543127,113.027624 Z M171.596462,113.082263 C171.703119,113.05366 171.815661,113.017356 171.935926,112.971885 C171.815661,113.017356 171.703119,113.05366 171.596462,113.082263 Z M170.39491,112.921279 C170.367326,112.89671 170.338271,112.873975 170.313262,112.846472 C170.338271,112.873975 170.367326,112.89671 170.39491,112.921279 Z M170.266921,112.785599 C170.243015,112.754796 170.218006,112.725826 170.196675,112.692089 C170.217638,112.725826 170.243015,112.754796 170.266921,112.785599 Z M170.157689,112.622049 C170.138197,112.586845 170.117233,112.552742 170.099212,112.514971 C170.117233,112.552742 170.138197,112.586845 170.157689,112.622049 Z M170.069421,112.441997 C170.052135,112.400926 170.034114,112.361322 170.018667,112.318418 C170.034114,112.361322 170.052135,112.400926 170.069421,112.441997 Z M169.995864,112.245444 C169.981153,112.199239 169.965706,112.154135 169.952098,112.106463 C169.965338,112.154135 169.981153,112.199239 169.995864,112.245444 Z M169.936283,112.042656 C169.922307,111.989851 169.908699,111.937046 169.895827,111.882407 C169.908332,111.937046 169.922307,111.989851 169.936283,112.042656 Z M169.884793,111.829601 C169.871921,111.770195 169.859416,111.710789 169.847647,111.650283 C169.859416,111.710789 169.871921,111.770195 169.884793,111.829601 Z M169.832568,111.570342 C169.835878,111.590144 169.839924,111.609946 169.843602,111.630114 C169.839924,111.609946 169.835878,111.590144 169.832568,111.570342 C169.810869,111.45703 169.790641,111.342618 169.770413,111.229307 C169.790641,111.342618 169.810869,111.456663 169.832568,111.570342 Z M169.761586,111.180168 C169.755701,111.147165 169.749081,111.114895 169.743197,111.081892 C169.749081,111.114895 169.755701,111.147165 169.761586,111.180168 Z M172.744316,111.525237 C171.735484,111.332351 170.726652,111.139831 169.717819,110.947311 C170.726652,111.139831 171.735484,111.332351 172.744316,111.525237 Z M178.086383,110.191168 C178.023492,110.199602 177.960233,110.205469 177.895503,110.205836 L177.88925,110.205836 L177.887779,110.205836 L177.88925,110.205836 L177.895503,110.205836 C177.960233,110.205469 178.023492,110.199602 178.086383,110.191168 C178.088957,110.190801 178.091164,110.190434 178.093739,110.190067 C178.091164,110.190434 178.088957,110.190801 178.086383,110.191168 Z M178.350452,110.129928 C178.390908,110.116727 178.430997,110.101325 178.471085,110.084823 C178.430997,110.101325 178.390908,110.116727 178.350452,110.129928 Z M174.436859,91.9989777 L174.435756,91.9989777 C174.429504,91.9989777 174.422884,91.9989777 174.416264,91.9989777 C174.409643,91.9993444 174.403023,91.9993444 174.396403,91.9997111 C174.403023,91.9993444 174.409643,91.9993444 174.416264,91.9989777 C174.422884,91.9989777 174.429504,91.9989777 174.435756,91.9989777 L174.436859,91.9989777 L174.447525,91.9989777 C174.6476,92.0008113 174.852088,92.0550835 175.060622,92.158494 C175.088573,92.1716954 175.115789,92.1859968 175.143373,92.2013984 C175.115789,92.1859968 175.088573,92.1716954 175.060622,92.158494 C174.852088,92.0550835 174.6476,92.0008113 174.447525,91.9989777 L174.436859,91.9989777 Z" id="Combined-Shape" fill="url(#linearGradient-2)"></path>
                        <path d="M194.931475,103 C194.28745,103.466209 193.643725,103.932417 193,104.398183 C193.041095,104.379127 193.08609,104.370707 193.133784,104.370707 C193.544737,104.370707 194.164465,105 194.575417,105 C194.914977,105 195.112354,104.570131 194.931475,103" id="Fill-14" fill="url(#linearGradient-2)"></path>
                        <path d="M193.342,104 C193.219,104.038 193.104,104.089 193,104.167 C193.114,104.111 193.228,104.056 193.342,104 Z" id="Fill-16" fill="url(#linearGradient-2)"></path>
                        <path d="M73.356,89 L73.355,89.001 C73.247,89.02 73.138,89.037 73.029,89.056 C73.019,89.143 73.009,89.23 73,89.316 C73.103,89.276 73.197,89.235 73.292,89.194 C73.312,89.13 73.337,89.066 73.355,89.001 L73.356,89.001 L73.356,89 Z" id="Fill-18" fill="url(#linearGradient-2)"></path>
                        <path d="M67.0152162,34 C66.7135106,34 66.3858598,34.0612096 66.0255921,34.2014817 L66.115659,34.7122905 C65.9118039,34.6328637 65.7290755,34.5949721 65.5659914,34.5949721 C65.0863758,34.5949721 64.7735508,34.9206947 64.5767379,35.473403 C64.1638386,35.5845276 63.7457502,35.6719699 63.3228434,35.7357299 C63.3228434,35.7357299 63.2316645,35.8519553 63.2316645,35.8519553 C62.2687269,37.6503522 61.3054187,39.4494778 60.342481,41.2489677 C61.0771009,42.0701967 62.1667994,42.1824144 63.2794778,42.1824144 C63.6960837,42.1824144 64.1163959,42.1667476 64.522253,42.1667476 C65.9236645,42.1667476 67.1560616,42.3536556 67.502986,44.0201603 C68.1134395,46.9498421 65.243159,49.4160797 63.8484191,52.0353413 C62.7012705,54.1893369 59.8143109,53.5470002 58,54.7792082 C60.0207605,56.3280301 64.4933426,55.3428467 63.5441189,59.9616225 C65.11751,60.6502308 66.4848222,61 67.6349359,61 C70.8232305,61 72.3465845,58.3140636 71.9870581,52.704275 C73.3465867,53.8089628 74.7602295,54.7690066 76.0715741,54.7690066 C76.8803231,54.7690066 77.6497836,54.4035706 78.3436325,53.4810542 C80.1379285,51.0953364 77.8521562,50.0314549 76.279877,48.7792082 C75.8451096,48.4330823 75.418867,47.3484333 75.6327295,47.0533155 C78.8788449,42.5715327 74.8258338,40.0612096 72.9170082,36.9774107 C72.6456956,37.0612096 72.3936565,37.0987369 72.1575551,37.0987369 C70.0126283,37.0987369 69.1601431,34 67.0152162,34 Z" id="Fill-20" fill="url(#linearGradient-2)"></path>
                        <path d="M46.3780255,105.375613 C46.3860324,105.257554 46.3944033,105.139495 46.4053219,105.023258 C46.3944033,105.139495 46.3860324,105.257554 46.3780255,105.375613 M50.6268002,38 C44.9877291,40.5816296 39.9287974,43.9459466 36.0188619,48.8596057 C35.5628301,49.0334147 35.3389997,49.3646358 35.3480985,49.8532689 C33.9148558,50.3244117 32.9754959,51.2827301 32.5256514,52.7231227 C24.6591945,59.9400254 19.5238329,69.1890732 14.4481594,78.3069443 C10.6852604,85.0661861 6.70435432,91.9893988 5.94369481,100.037451 C3.92230583,104.821027 2.60261616,109.787157 2.06505917,114.956975 C2.01228614,115.819826 1.95951311,116.682312 1.90710404,117.545163 C1.85724262,118.856565 1.80774516,120.167968 1.75788375,121.47937 C-1.80520557,129.56714 1.02452063,137.646165 1.79027547,145.728104 C5.28639763,153.361493 11.5583811,158.52038 17.7586661,163.758701 C18.6234158,164.489282 19.3389453,166 20.3343538,166 C20.7321533,166 21.1747188,165.759145 21.6893468,165.130955 C22.7408039,163.848338 22.6137847,160.767144 21.0091207,160.319322 C14.9551444,158.631151 16.7053892,154.299406 17.1585093,150.408561 C17.2866204,149.309227 17.9930511,148.14795 16.7123043,147.529962 C16.3425291,147.35178 16.0226154,147.271252 15.7405526,147.271252 C14.8401356,147.270888 14.3258715,148.09475 13.8105156,149.197727 C12.9166497,151.111085 12.0930265,151.844581 11.3633029,151.844581 C10.2936482,151.844581 9.4259868,150.267546 8.83420097,148.522532 C6.53511668,141.743249 6.00665849,134.964331 10.2488821,128.590602 C17.1945406,128.924739 25.0628172,127.873139 25.1366994,138.527599 C26.3490233,138.303505 25.995262,137.189597 26.3104444,136.455736 C26.1564927,132.286869 25.3885542,127.970064 29.1267043,124.738746 L28.6961492,124.265052 C28.6961492,124.265052 28.6961492,124.265052 28.6961492,124.265052 C28.6961492,124.265052 29.1256125,124.737652 29.1256125,124.737652 C30.0052843,124.197277 30.885684,123.658724 31.7660837,123.119807 C30.7699473,123.067701 29.773083,123.015594 28.7769466,122.963852 C29.9656135,120.660973 29.7439668,119.281068 28.5596673,118.670367 C29.7439668,119.281068 29.9656135,120.660973 28.7769466,122.963852 C29.773083,123.015594 30.7699473,123.067701 31.7660837,123.119807 C33.8973861,122.324366 35.9344251,121.084018 35.5580988,118.593848 C35.0602125,115.302771 37.8662819,115.021834 39.3708591,113.534437 C38.3554332,107.935744 46.0315432,110.10526 46.3543686,105.702461 C46.3543686,105.702097 46.3543686,105.702097 46.3543686,105.702097 C46.979274,104.928155 47.6045434,104.154941 48.2294489,103.381363 L48.5599172,103.420352 C48.5595533,103.418165 48.5591893,103.416708 48.5588254,103.414522 C48.584302,103.395938 48.9373354,103.207554 48.9373354,103.207554 C49.8464873,102.918237 50.7556392,102.628919 51.6647911,102.339602 C52.7238912,102.039353 53.7666134,101.642908 54.8453669,101.461447 C56.4391124,101.193992 59.1254415,101.984332 58.3782482,99.1352475 C57.8527017,97.1318883 60.1102954,93.5504011 55.7614339,93.1834708 C54.5811378,91.8680604 54.8231659,90.5858086 55.852058,89.3225044 C58.3993575,89.9772946 60.9452012,90.2374616 63.489589,90.2374616 C66.7178426,90.2374616 69.9439124,89.8187895 73.1696183,89.2565517 C73.2154763,88.8451671 73.2613342,88.4337825 73.3071921,88.0220336 C74.2356335,88.5554853 74.06494,88.9665055 73.2653377,89.3068361 C72.3085081,92.4058847 67.3438399,95.4630297 73.1907275,98.6334967 C75.8643183,98.4134114 81.0746541,97.7356654 78.1193645,94.9226547 C74.4176095,91.3991039 76.3840417,89.098411 76.8091375,86.177544 C77.1068502,84.1337387 76.0910604,83.3131558 74.5093253,82.6929817 C70.1943114,79.0681333 69.4416588,74.0214756 69.8813127,68.778053 C69.7324564,68.7587408 69.5865116,68.749267 69.4431146,68.749267 C67.0122797,68.749267 65.3533868,71.4216271 63.671929,71.4216271 C63.0968849,71.4216271 62.5196572,71.1093537 61.90749,70.2712806 C60.5615958,68.4282485 61.158113,65.1634072 60.878234,62.5398739 C58.7465676,62.0665448 56.6149012,61.5928513 54.4835987,61.1187934 C50.492138,66.4966722 51.4256747,74.8624638 43.9766707,78.2694132 C43.04277,78.6968305 42.9961842,81.0685774 42.5383327,82.5395779 C43.2145554,82.5563394 43.792511,83.4239272 44.3748341,84.0211454 C44.5302416,84.1803793 44.685649,84.3199367 44.8436042,84.4194123 C44.9615246,84.4941101 45.0812648,84.5458521 45.2028247,84.5658929 C45.0812648,84.5458521 44.9615246,84.4941101 44.8436042,84.4194123 C44.685649,84.3199367 44.5302416,84.1803793 44.3748341,84.0211454 C43.792511,83.4239272 43.2145554,82.5567037 42.5383327,82.5399423 C41.9894932,83.4993538 41.7354547,84.9415683 40.4630788,84.9415683 C40.2887459,84.9415683 40.0954874,84.9146042 39.8796639,84.8555747 C38.6713435,84.5254468 38.0064033,83.0668352 38.5869067,82.1580724 C41.1564072,78.1378721 38.6993678,75.4432849 36.2536109,72.9097534 C32.0405034,68.5459431 33.4173336,64.7757073 37.0841492,61.0706953 C41.1178283,59.0010191 44.3959433,55.0063254 49.243055,55.0063254 C50.0084459,55.0063254 50.8124157,55.105801 51.6647911,55.3280726 C51.7324861,54.4980158 51.7998172,53.6683235 51.8675123,52.8382667 C52.3148092,52.1310059 52.6605635,50.9161642 53.2257809,50.8032065 C55.7930977,50.2912532 57.025075,48.3024692 56.9770333,46.3067621 C56.9442777,44.9436179 56.1730635,44.7268121 55.2449861,44.7268121 C54.8126113,44.7268121 54.3463888,44.773817 53.9045512,44.773817 C53.4736321,44.773817 53.0663699,44.7293627 52.7369934,44.5526386 C51.4766279,43.8770788 52.6241684,43.154514 52.7719328,42.453812 C52.7428167,42.4541764 52.7133366,42.4545408 52.6849483,42.4545408 C48.9220494,42.4545408 51.1043051,39.5846869 50.6268002,38" id="Fill-22" fill="url(#linearGradient-2)"></path>
                    </g>
                    <g id="globe-original">
                        <g id="pin">
                            <path d="M256.977606,72.6494298 L254.532464,77.6479068 C248.288905,90.4110348 240.714073,104.583803 232.989024,118.366916 L230.368556,123.042383 L227.753383,118.363952 C209.994648,86.5943496 196.147958,58.8347345 193.027892,45.1891143 C190.93337,36.115507 194.182258,28.1614142 200.039956,21.7748282 L202.508576,19.0859644 L199.251674,17.4372424 C180.612555,7.99371584 159.588955,3 138.461538,3 C63.7718635,3 3,63.7718635 3,138.461538 C3,213.151213 63.7718635,273.923077 138.461538,273.923077 C213.151213,273.923077 273.923077,213.151213 273.923077,138.461538 C273.923077,116.986588 269.069737,96.5262958 259.491349,77.6120091 L256.977606,72.6494298 Z M230.363813,134.12288 L232.759576,129.9931 C232.860405,129.818751 233.020844,129.540482 233.250607,129.140429 C233.630494,128.478984 234.067088,127.715578 234.55703,126.854986 C235.948506,124.410834 237.493466,121.669547 239.154309,118.688077 C243.881155,110.202657 248.603022,101.470763 253.008258,92.9675887 C253.363933,92.2810488 253.71641,91.5981382 254.065581,90.9190223 L257.098512,85.0201554 L259.52554,91.193067 C265.412099,106.164963 268.384615,122.020801 268.384615,138.461538 C268.384615,210.10412 210.10412,268.384615 138.461538,268.384615 C66.8189569,268.384615 8.53846154,210.10412 8.53846154,138.461538 C8.53846154,66.8189569 66.8189569,8.53846154 138.461538,8.53846154 C156.588804,8.53846154 174.004316,12.164578 190.312917,19.3333208 L193.483936,20.7272 L191.651561,23.6667007 C187.222456,30.7718854 185.831267,38.633811 187.630054,46.4260291 C189.862414,56.1891717 197.69326,73.6424827 209.132859,95.6036113 C213.224017,103.457597 217.516169,111.384965 221.770736,119.026094 C223.300698,121.773878 224.73133,124.314462 226.03409,126.605194 C226.512873,127.447071 226.94821,128.20912 227.337498,128.887696 C227.602107,129.348941 227.807185,129.705018 227.968337,129.983888 L230.363813,134.12288 Z" id="globe-border" stroke-opacity="0.6" stroke="#003BFF" stroke-width="6" fill="#D8D8D8" fill-rule="nonzero"></path>
                            <path d="M251.019736,34.6484596 C251.015305,34.6840746 251.006753,34.7446502 250.993308,34.8284865 C250.932156,35.2098179 250.823028,35.736639 250.661413,36.3917596 C250.464668,37.1892775 250.215813,38.0783686 249.914997,39.056015 C251.402981,41.0309105 252.985342,43.2455513 254.654339,45.6952299 L275.314881,31.6189367 L253.114367,43.1140303 C252.071403,41.0997513 251.47702,39.1803495 251.188299,37.3926606 C251.023365,36.3714272 250.982222,35.5590628 251.005174,34.9110834 C251.009849,34.7790943 251.016187,34.6877317 251.021625,34.6330791 Z M231.211096,81.3696214 C225.20292,93.2966382 217.868639,107.188533 209.220836,123.008945 L253.06335,122.952962 C243.964466,106.407871 236.670542,92.518825 231.211094,81.3696249 Z M213.986161,36.547146 C213.059745,33.1249864 212.188577,29.6276067 211.372955,26.0548501 L187,31.6189367 L207.933378,45.2861857 C210.167626,41.8641099 212.210828,38.9386442 213.986161,36.547146 Z M230.655958,26.2828193 C231.716563,26.0948405 232.83807,25.9153314 234.019288,25.7454784 L230.461016,1 L227.343075,25.8048069 C228.505241,25.9508901 229.609846,26.1106476 230.655958,26.2828193 Z" id="pin-body" stroke="url(#linearGradient-3)" stroke-width="50"></path>
                            <path d="M230.363814,134.122883 L232.758639,129.994725 C232.860554,129.818438 233.022341,129.5378 233.251016,129.139616 C233.631677,128.476783 234.068468,127.71299 234.558682,126.85187 C235.951823,124.404649 237.498049,121.660898 239.160316,118.676541 C243.891885,110.181701 248.618083,101.440069 253.027422,92.9262127 C254.430671,90.216724 255.781999,87.5678342 257.075236,84.9889883 C257.916056,83.3123084 258.730748,81.6683603 259.512704,80.0699557 C267.099673,64.4059947 271.56773,53.3654171 273.159629,46.4292833 L273.216555,46.1812488 C275.179085,37.2145765 272.850764,28.0028123 266.577732,20.1365081 C258.299477,9.76102527 244.028697,3 230.366399,3 C217.745647,3 204.519864,8.77938349 195.958108,18.0350187 C188.251082,26.4304035 185.33087,36.4705613 187.630053,46.4260291 C189.862414,56.1891717 197.693259,73.6424827 209.132858,95.6036113 C213.224017,103.457597 217.516168,111.384965 221.770736,119.026094 C223.300697,121.773878 224.731329,124.314462 226.034089,126.605194 C226.512872,127.447071 226.948209,128.20912 227.337498,128.887696 C227.602107,129.348941 227.807184,129.705018 227.968337,129.983888 L230.363814,134.122883 Z M230.366399,8.53846154 C242.465083,8.53846154 254.926138,14.4118249 262.249069,23.590714 C267.197752,29.8019893 269.600822,37.1039941 267.761931,45.1917753 C266.257571,51.7391302 261.815469,62.6078415 254.532464,77.6479062 C248.288905,90.4110342 240.714073,104.583802 232.989024,118.366916 L230.368556,123.042383 L227.753383,118.363952 C209.994648,86.594349 196.147958,58.834734 193.027892,45.1891138 C190.933948,36.1180142 194.183568,28.1568036 200.031364,21.7883492 C207.615073,13.5955075 219.191634,8.53846154 230.366399,8.53846154 Z" id="pin-outline" stroke="#B14C37" stroke-width="6" fill-rule="nonzero"></path>
                            <path d="M230.386118,66.6814904 C241.454714,66.6814904 250.463041,57.6739228 250.463041,46.6045673 C250.463041,35.5352119 241.454714,26.5276442 230.386118,26.5276442 C219.317522,26.5276442 210.309195,35.5352119 210.309195,46.6045673 C210.309195,57.6739228 219.317522,66.6814904 230.386118,66.6814904 Z M230.386118,32.0661058 C238.405732,32.0661058 244.92458,38.5860515 244.92458,46.6045673 C244.92458,54.6230831 238.405732,61.1430288 230.386118,61.1430288 C222.366504,61.1430288 215.847657,54.6230831 215.847657,46.6045673 C215.847657,38.5860515 222.366504,32.0661058 230.386118,32.0661058 Z" id="pin-center" stroke="#B14C37" stroke-width="6" fill-rule="nonzero"></path>
                        </g>
                    </g>
                </g>
            </g>
        </g>
    </g>
</svg>