<?xml version="1.0" encoding="UTF-8"?>
<svg width="277px" height="277px" viewBox="0 0 277 277" version="1.1" xmlns="http://www.w3.org/2000/svg" xmlns:xlink="http://www.w3.org/1999/xlink">
    <!-- Generator: Sketch 52.5 (67469) - http://www.bohemiancoding.com/sketch -->
    <title>tiny-emblem-light</title>
    <desc>Created with Sketch.</desc>
    <g id="tiny-emblem-light" stroke="none" stroke-width="1" fill="none" fill-rule="evenodd">
        <rect fill="#000000" x="0" y="0" width="277" height="277"></rect>
        <g id="Group" transform="translate(29.000000, 21.000000)" fill-rule="nonzero" stroke="#FFFFFF" stroke-width="8">
            <g id="globe-original">
                <path d="M205.786711,67.2457006 L205.238108,68.365214 C200.223452,78.5982425 194.145409,89.950534 187.946583,100.991158 L184.454092,107.211574 L180.968652,100.987204 C166.649276,75.4153669 155.548491,53.1997065 153.000686,42.0763886 C151.182909,34.2154641 153.983986,27.3697467 158.997153,21.9135244 L159.538081,21.3253692 L158.821021,20.9630126 C144.120555,13.5280635 127.533535,9.59507042 110.866057,9.59507042 C51.943014,9.59507042 4,57.4540463 4,116.266793 C4,175.07954 51.943014,222.938516 110.866057,222.938516 C169.7891,222.938516 217.732114,175.07954 217.732114,116.266793 C217.732114,99.35365 213.905204,83.2487717 206.350362,68.3564997 L205.786711,67.2457006 Z M184.453768,109.613825 L184.987868,108.694765 C185.068575,108.555455 185.196292,108.334328 185.379476,108.015934 C185.682659,107.488969 186.031235,106.880536 186.422511,106.194458 C187.534278,104.245042 188.768892,102.058255 190.096214,99.6796836 C193.873648,92.9104908 197.646971,85.9449194 201.16605,79.1641488 C201.450083,78.6168579 201.731551,78.0724793 202.010369,77.5311464 L206.052828,69.6825914 L209.288132,77.896853 C214.075682,90.0521808 216.493276,102.925377 216.493276,116.266793 C216.493276,174.416801 169.11115,221.715872 110.866057,221.715872 C52.6209645,221.715872 5.23883808,174.416801 5.23883808,116.266793 C5.23883808,58.1167855 52.6209645,10.817714 110.866057,10.817714 C125.600052,10.817714 139.76283,13.7614037 153.024062,19.580402 L157.259418,21.4388668 L154.809618,25.3619545 C151.485658,30.6849158 150.448869,36.5337778 151.792614,42.344602 C153.53817,49.9653462 159.775046,63.8416665 168.868366,81.2679342 C172.136678,87.5312664 175.566471,93.8548011 178.966302,99.9501345 C180.188905,102.14206 181.332043,104.168541 182.372837,105.995431 C182.755189,106.666568 183.102767,107.273931 183.413486,107.8146 C183.624485,108.181753 183.787854,108.464913 183.915542,108.685489 L184.453768,109.613825 Z" id="Shape"></path>
                <g id="pin" transform="translate(146.527972, 5.595070)">
                    <path d="M37.9257986,104.01876 L38.4586443,103.101862 C38.5407572,102.960073 38.6694873,102.737168 38.8518103,102.420251 C39.1556135,101.892175 39.5043475,101.283432 39.8958406,100.596932 C41.0089369,98.645072 42.2445588,96.4563258 43.5730144,94.0754589 C47.3542106,87.2987737 51.1309806,80.325459 54.6533252,73.5361955 C55.7737818,71.3765329 56.8526258,69.2654764 57.8848907,67.210644 C58.5558106,65.8751068 59.2057903,64.5658269 59.8267784,63.2987115 C65.8522598,50.8803856 69.3933582,42.1456612 70.6336842,36.7508571 L70.6773911,36.5607535 C72.1395709,29.8801847 70.3990658,23.0120451 65.6737166,17.096902 C59.3511453,9.18644962 48.3846654,4 37.9262424,4 C28.2645766,4 18.0989581,8.43437044 11.550296,15.5013354 C5.72770774,21.8328548 3.54599129,29.3207987 5.26464124,36.7495315 C7.01019795,44.3702758 13.2470737,58.2465961 22.3403935,75.6728637 C25.6087057,81.936196 29.0384985,88.2597307 32.4383291,94.3550641 C33.6609326,96.5469898 34.8040704,98.5734702 35.8448644,100.400361 C36.2272165,101.071498 36.5747949,101.67886 36.8855133,102.21953 C37.0965128,102.586683 37.2598811,102.869843 37.3875699,103.090419 L37.9257986,104.01876 Z M37.9262424,5.22264355 C48.0935068,5.22264355 58.5315842,10.1338777 64.7022866,17.8549552 C68.9429499,23.1682386 71.0218909,29.4742666 69.4257988,36.4818519 C68.1863397,41.8668331 64.5945848,50.6395543 58.7101362,62.7701431 C53.69548,73.0031716 47.6174367,84.3554631 41.4186105,95.3960868 L37.9261196,101.616503 L34.4406801,95.392133 C20.1213038,69.820296 9.02051885,47.6046356 6.47271356,36.4813177 C4.65542369,28.6224979 7.45723422,21.7704031 12.4667402,16.3244551 C18.8415812,9.44965073 28.5350142,5.22264355 37.9262424,5.22264355 Z" id="Shape"></path>
                    <path d="M37.9420316,51.6961208 C45.9237514,51.6961208 52.4197078,45.2120975 52.4197078,37.2508337 C52.4197078,29.2895699 45.9237514,22.8055466 37.9420316,22.8055466 C29.9603118,22.8055466 23.4643554,29.2895699 23.4643554,37.2508337 C23.4643554,45.2120975 29.9603118,51.6961208 37.9420316,51.6961208 Z M37.9420316,24.0281902 C45.2443188,24.0281902 51.1808697,29.9553338 51.1808697,37.2508337 C51.1808697,44.5463337 45.2443188,50.4734773 37.9420316,50.4734773 C30.6397445,50.4734773 24.7031935,44.5463337 24.7031935,37.2508337 C24.7031935,29.9553338 30.6397445,24.0281902 37.9420316,24.0281902 Z" id="Shape"></path>
                </g>
            </g>
        </g>
        <path d="M129.341281,78 L109,78 L109,186.388703 L129.341281,186.388703 L129.341281,180.880425 C134.496102,185.646756 141.315485,188.198921 148.332398,187.987881 C170.308088,187.987881 185,170.023786 185,149.234477 C185,128.445168 170.308088,110.516611 148.332398,110.516611 C141.34331,110.336834 134.549669,112.834871 129.341281,117.499686 L129.341281,78 Z M145.636317,169.651955 C139.310584,169.908316 133.310014,166.799907 129.8,161.44844 L129.8,137.105982 C133.368784,131.83665 139.343962,128.788597 145.636317,129.027575 C156.704143,129.027575 164.2,138.285573 164.2,149.348701 C164.2,160.41183 156.704143,169.651955 145.671509,169.651955 L145.636317,169.651955 Z" id="Shape" fill="#FFFFFF" fill-rule="nonzero"></path>
    </g>
</svg>