<!--?xml version="1.0" encoding="UTF-8"?-->
<svg width="277px" height="277px" viewBox="0 0 277 277" version="1.1" xmlns="http://www.w3.org/2000/svg" xmlns:xlink="http://www.w3.org/1999/xlink" style="">
    <!-- Generator: Sketch 52.5 (67469) - http://www.bohemiancoding.com/sketch -->
    <title>tiny-emblem-mono</title>
    <desc>Created with Sketch.</desc>
    <g id="tiny-emblem-mono" stroke="none" stroke-width="1" fill="none" fill-rule="evenodd">
        <g id="Group" transform="translate(0.000000, -7.000000)" fill-rule="nonzero" stroke="#000000" stroke-width="10">
            <g id="globe-original">
                <path d="M257.008826,84.1370702 L256.329021,85.5267595 C250.06625,98.3291617 242.47539,112.531919 234.733685,126.34475 L230.366238,134.137195 L226.007616,126.33981 C208.124649,94.3479621 194.260783,66.5539126 191.079138,52.6389582 C188.809971,42.8087754 192.307041,34.2470718 198.566693,27.4222396 L199.249945,26.6780295 L198.347767,26.2213253 C179.989597,16.920142 159.275744,12 138.461538,12 C64.876433,12 5,71.876433 5,145.461538 C5,219.046644 64.876433,278.923077 138.461538,278.923077 C212.046644,278.923077 271.923077,219.046644 271.923077,145.461538 C271.923077,124.299529 267.143185,104.148871 257.707186,85.5157581 L257.008826,84.1370702 Z M230.365848,137.133692 L231.027203,135.993658 C231.127998,135.819366 231.287508,135.54271 231.516292,135.14436 C231.894944,134.485067 232.330287,133.723848 232.818959,132.865487 C234.207464,130.426553 235.749394,127.690642 237.407108,124.714789 C242.12481,116.245785 246.837378,107.531087 251.232423,99.0475828 C251.587157,98.3628595 251.938689,97.6817798 252.286911,97.0045103 L257.341796,87.1730655 L261.386842,97.4612515 C267.365548,112.667515 270.384615,128.771661 270.384615,145.461538 C270.384615,218.20869 211.20869,277.384615 138.461538,277.384615 C65.7143874,277.384615 6.53846154,218.20869 6.53846154,145.461538 C6.53846154,72.7143874 65.7143874,13.5384615 138.461538,13.5384615 C156.864681,13.5384615 174.554341,17.2216589 191.117732,24.5023995 L196.402763,26.8255314 L193.348806,31.7246992 C189.196232,38.3862709 187.900788,45.7071213 189.579737,52.9802306 C191.760062,62.5157986 199.549509,79.876842 210.906637,101.679646 C214.988494,109.515776 219.272022,117.427216 223.518128,125.05315 C225.045058,127.795489 226.472743,130.33084 227.772609,132.616482 C228.250136,133.45615 228.684234,134.21603 229.072296,134.892469 C229.335819,135.35182 229.539855,135.706088 229.699332,135.982061 L230.365848,137.133692 Z" id="Shape" class="nZAsbjcy_0"></path>
                <g id="pin" transform="translate(183.000000, 7.000000)">
                    <path d="M47.3658512,130.133699 L48.0256417,128.996366 C48.1281911,128.818978 48.2889665,128.540095 48.5166745,128.143594 C48.8961008,127.482911 49.3316419,126.721303 49.820585,125.862416 C51.2107504,123.420423 52.7539392,120.682061 54.4130692,117.703336 C59.1354693,109.224957 63.8523423,100.500572 68.2514657,92.006442 C69.6508282,89.3044566 70.9982207,86.6632811 72.2874405,84.0924463 C73.1253695,82.421531 73.9371461,80.7834657 74.7127291,79.1981231 C82.2383025,63.6609205 86.66102,52.7323754 88.2103099,45.9818985 L88.2649105,45.7439958 C90.0918564,37.3822825 87.9172443,28.7859966 82.0143693,21.3838638 C74.1185103,11.4876539 60.4247468,5 47.3663988,5 C35.3029735,5 22.6094008,10.5468187 14.4314317,19.387541 C7.15823062,27.3103538 4.43239515,36.6822149 6.57973626,45.9802306 C8.76006116,55.5157986 16.5495088,72.876842 27.9066366,94.6796464 C31.9884933,102.515776 36.2720211,110.427216 40.5181278,118.05315 C42.0450579,120.795489 43.4727423,123.33084 44.7726084,125.616482 C45.2501354,126.45615 45.684233,127.21603 46.0722959,127.892469 C46.3358185,128.35182 46.539854,128.706088 46.6993312,128.982061 L47.3658512,130.133699 Z M47.3663988,6.53846154 C60.0676312,6.53846154 73.1062084,12.6840329 80.8133015,22.3444493 C86.1082011,28.9902735 88.7035685,36.8765956 86.7111411,45.6396378 C85.1634108,52.3757482 80.6778369,63.3508253 73.329021,78.5267589 C67.0662502,91.3291611 59.4753901,105.531918 51.7336852,119.344749 L47.366238,127.137194 L43.007616,119.339809 C25.1246493,87.3479616 11.2607832,59.553912 8.07913802,45.6389577 C5.81057808,35.8114065 9.30856315,27.2417289 15.5636411,20.4297507 C23.5259462,11.8279033 35.6345073,6.53846154 47.3663988,6.53846154 Z" id="Shape" class="nZAsbjcy_1"></path>
                    <path d="M47.3861181,64.6814904 C57.3501826,64.6814904 65.4630412,56.5693155 65.4630412,46.6045673 C65.4630412,36.6398191 57.3501826,28.5276442 47.3861181,28.5276442 C37.4220535,28.5276442 29.309195,36.6398191 29.309195,46.6045673 C29.309195,56.5693155 37.4220535,64.6814904 47.3861181,64.6814904 Z M47.3861181,30.0661058 C56.5103774,30.0661058 63.9245796,37.4815574 63.9245796,46.6045673 C63.9245796,55.7275772 56.5103774,63.1430288 47.3861181,63.1430288 C38.2618587,63.1430288 30.8476565,55.7275772 30.8476565,46.6045673 C30.8476565,37.4815574 38.2618587,30.0661058 47.3861181,30.0661058 Z" id="Shape" class="nZAsbjcy_2"></path>
                </g>
            </g>
        </g>
        <path d="M122.426601,63 L97,63 L97,198.978555 L122.426601,198.978555 L122.426601,192.068169 C128.870128,198.047748 137.394357,201.249555 146.165498,200.984796 C173.63511,200.984796 192,178.448022 192,152.366889 C192,126.285757 173.63511,103.793566 146.165498,103.793566 C137.429138,103.568028 128.937087,106.701929 122.426601,112.554152 L122.426601,63 Z M142.795396,177.981543 C134.88823,178.303161 127.387518,174.403519 123,167.689861 L123,137.151142 C127.46098,130.540524 134.929953,126.716604 142.795396,127.016413 C156.630179,127.016413 166,138.630991 166,152.510189 C166,166.389387 156.630179,177.981543 142.839386,177.981543 L142.795396,177.981543 Z" id="Shape" fill="#000000" fill-rule="nonzero" class="nZAsbjcy_3"></path>
    </g>
<style data-made-with="vivus-instant">.nZAsbjcy_0{stroke-dasharray:1852 1854;stroke-dashoffset:1853;animation:nZAsbjcy_draw_0 21800ms linear 0ms infinite,nZAsbjcy_fade 21800ms linear 0ms infinite;}.nZAsbjcy_1{stroke-dasharray:627 629;stroke-dashoffset:628;animation:nZAsbjcy_draw_1 21800ms linear 0ms infinite,nZAsbjcy_fade 21800ms linear 0ms infinite;}.nZAsbjcy_2{stroke-dasharray:218 220;stroke-dashoffset:219;animation:nZAsbjcy_draw_2 21800ms linear 0ms infinite,nZAsbjcy_fade 21800ms linear 0ms infinite;}.nZAsbjcy_3{stroke-dasharray:599 601;stroke-dashoffset:600;animation:nZAsbjcy_draw_3 21800ms linear 0ms infinite,nZAsbjcy_fade 21800ms linear 0ms infinite;}@keyframes nZAsbjcy_draw{100%{stroke-dashoffset:0;}}@keyframes nZAsbjcy_fade{0%{stroke-opacity:1;}86.23853211009174%{stroke-opacity:1;}100%{stroke-opacity:0;}}@keyframes nZAsbjcy_draw_0{3.669724770642202%{stroke-dashoffset: 1853}12.844036697247708%{ stroke-dashoffset: 0;}100%{ stroke-dashoffset: 0;}}@keyframes nZAsbjcy_draw_1{5.198776758409786%{stroke-dashoffset: 628}14.37308868501529%{ stroke-dashoffset: 0;}100%{ stroke-dashoffset: 0;}}@keyframes nZAsbjcy_draw_2{6.727828746177369%{stroke-dashoffset: 219}15.902140672782874%{ stroke-dashoffset: 0;}100%{ stroke-dashoffset: 0;}}@keyframes nZAsbjcy_draw_3{8.256880733944955%{stroke-dashoffset: 600}17.431192660550458%{ stroke-dashoffset: 0;}100%{ stroke-dashoffset: 0;}}</style></svg>