<svg xmlns="http://www.w3.org/2000/svg" viewBox="0 0 369.67 89.08"><title>bumpmap</title><g id="Layer_2" data-name="Layer 2"><g id="Layer_1-2" data-name="Layer 1"><path d="M11.45,0H0V61H11.45V57.9a15.08,15.08,0,0,0,10.69,4c12.37,0,20.64-10.11,20.64-21.81S34.51,18.3,22.14,18.3a15.43,15.43,0,0,0-10.69,3.93V0Zm9,51.47a10.32,10.32,0,0,1-9-4.59V33.26a10.45,10.45,0,0,1,9-4.52C26.74,28.74,31,33.92,31,40.11S26.74,51.47,20.47,51.47Z"/><path d="M85.15,19.22H73.7V46.71a9.74,9.74,0,0,1-7.85,4.76c-5.44,0-7.86-4-7.86-9.94V19.22H46.54V43.45c0,11.11,6.19,18.47,16.88,18.47A14.92,14.92,0,0,0,73.7,57.65V61H85.15V19.22Z"/><path d="M179,88h0m22.2,1.08h0M139,18.3c-6.26,0-11,2.51-13.62,5.51a14.89,14.89,0,0,0-11.78-5.51c-3.84,0-8,1.67-10.19,4.18V19.22H92V61h11.45V33.26a8.89,8.89,0,0,1,7.69-4.43c5.26,0,7.18,4.34,7.18,10.11V61h11.45V36.93a13.15,13.15,0,0,0-.34-3.17,9.05,9.05,0,0,1,8-4.93c5.26,0,7.18,4.34,7.18,10.11V61h11.45V36.93c0-10.36-5.26-18.63-17.05-18.63Z"/><path d="M184.59,18.3a15.46,15.46,0,0,0-10.7,3.93v-3H162.44v58h11.45V57.9a15.1,15.1,0,0,0,10.7,4c12.36,0,20.63-10.11,20.63-21.81S197,18.3,184.59,18.3Zm-1.68,33.17a10.33,10.33,0,0,1-9-4.59V33.26a10.47,10.47,0,0,1,9-4.52c6.27,0,10.53,5.18,10.53,11.37s-4.26,11.36-10.53,11.36Z"/><path d="M296.49,88h0m22.19,1.09h0M256.53,18.3c-6.27,0-11,2.51-13.62,5.51a14.89,14.89,0,0,0-11.78-5.51c-3.84,0-8,1.67-10.19,4.18V19.22H209.49V61h11.45V33.26a8.87,8.87,0,0,1,7.68-4.43c5.27,0,7.19,4.34,7.19,10.11V61h11.45V36.93a13.68,13.68,0,0,0-.34-3.17,9,9,0,0,1,8-4.93c5.27,0,7.19,4.34,7.19,10.11V61h11.45V36.93c0-10.36-5.27-18.63-17.05-18.63Z"/><path d="M297.89,18.3c-12.36,0-20.63,10.11-20.63,21.81s8.27,21.81,20.63,21.81a15,15,0,0,0,10.7-4V61H320V19.22H308.59v3a15.3,15.3,0,0,0-10.7-3.93Zm1.68,33.17c-6.19,0-10.45-5.18-10.45-11.36s4.26-11.37,10.45-11.37a10.47,10.47,0,0,1,9,4.52V46.88a10.33,10.33,0,0,1-9,4.59Z"/><path d="M349,18.3a15.46,15.46,0,0,0-10.7,3.93v-3H326.89v58h11.45V57.9a15.1,15.1,0,0,0,10.7,4c12.36,0,20.63-10.11,20.63-21.81S361.4,18.3,349,18.3Zm-1.68,33.17a10.33,10.33,0,0,1-9-4.59V33.26a10.47,10.47,0,0,1,9-4.52c6.27,0,10.53,5.18,10.53,11.37s-4.26,11.36-10.53,11.36Z"/></g></g></svg>